<svg width="320" height="320" viewBox="0 0 320 320" fill="none" xmlns="http://www.w3.org/2000/svg">
<path d="M77.0769 268.142C76.2122 267.13 71.6656 263.806 70.3066 262.64C68.1051 260.736 65.9714 258.76 63.9056 256.71C61.8398 254.66 59.8466 252.542 57.9259 250.355C57.2547 249.584 56.5929 248.804 55.9406 248.016C55.2885 247.228 54.6461 246.432 54.0134 245.628C53.3807 244.825 52.758 244.013 52.1453 243.194C51.5326 242.375 50.9299 241.549 50.3372 240.715C49.7447 239.882 49.1625 239.041 48.5906 238.193C48.0187 237.345 47.4573 236.49 46.9062 235.628C46.3552 234.766 45.8149 233.898 45.2853 233.023C44.7555 232.148 44.2367 231.267 43.7287 230.379C43.2206 229.491 42.7234 228.597 42.2372 227.697C41.7511 226.797 41.276 225.892 40.8119 224.98C40.3479 224.069 39.8952 223.152 39.4537 222.229C39.0123 221.306 38.5822 220.378 38.1634 219.445C37.7447 218.512 37.3374 217.574 36.9416 216.631C36.5457 215.687 36.1616 214.74 35.7891 213.787C35.4166 212.834 35.0558 211.877 34.7069 210.916C34.3577 209.955 34.0204 208.989 33.695 208.019C33.3696 207.05 33.0561 206.076 32.7547 205.099C32.453 204.121 32.1634 203.14 31.8859 202.156C31.6084 201.172 31.343 200.184 31.0897 199.193C30.8364 198.202 30.5953 197.208 30.3664 196.211C30.1374 195.214 29.9207 194.215 29.7163 193.212C29.5118 192.21 29.3197 191.206 29.1399 190.199C28.9601 189.192 28.7926 188.183 28.6375 187.172C28.4824 186.161 28.3397 185.148 28.2095 184.134C28.0792 183.119 27.9614 182.103 27.856 181.086C27.7506 180.068 27.6577 179.05 27.5773 178.03C27.4969 177.01 27.429 175.99 27.3736 174.969C27.3182 173.947 27.2753 172.925 27.245 171.903C27.2146 170.881 27.1968 169.858 27.1916 168.835C27.1863 167.812 27.1935 166.79 27.2133 165.767C27.2331 164.744 27.2654 163.722 27.3102 162.7C27.355 161.678 27.4124 160.657 27.4822 159.637C30.068 122.083 48.6697 88.6165 76.8734 64.0999C104.239 40.3118 141.352 25.405 177.903 28.0126C178.751 28.0722 179.599 28.1404 180.447 28.2172C181.294 28.294 182.14 28.3793 182.985 28.4732C183.831 28.5671 184.675 28.6695 185.519 28.7804C186.362 28.8913 187.204 29.0108 188.045 29.1387C188.886 29.2667 189.726 29.4031 190.564 29.548C191.402 29.693 192.239 29.8463 193.074 30.0082C193.909 30.17 194.742 30.3402 195.574 30.5189C196.406 30.6976 197.235 30.8846 198.063 31.0801C198.891 31.2756 199.717 31.4794 200.541 31.6915C201.365 31.9036 202.186 32.124 203.006 32.3527C203.825 32.5815 204.642 32.8185 205.457 33.0637C206.271 33.3089 207.083 33.5623 207.892 33.824C208.702 34.0857 209.509 34.3555 210.312 34.6334C211.116 34.9113 211.917 35.1973 212.716 35.4915C213.514 35.7857 214.309 36.0878 215.101 36.3981C215.893 36.7083 216.682 37.0265 217.468 37.3527C218.253 37.6788 219.036 38.0128 219.814 38.3549C220.593 38.6968 221.369 39.0466 222.141 39.4043C222.912 39.7618 223.681 40.1271 224.445 40.5002C225.209 40.8734 225.97 41.2542 226.727 41.6427C227.484 42.0313 228.236 42.4274 228.985 42.8312C229.734 43.2349 230.478 43.6462 231.219 44.0649C231.959 44.4837 232.695 44.9099 233.427 45.3437C234.159 45.7772 234.886 46.2183 235.609 46.6668C236.332 47.1151 237.05 47.5707 237.764 48.0334C238.478 48.4963 239.187 48.9664 239.891 49.4437C240.595 49.9208 241.294 50.405 241.989 50.8965C242.683 51.3877 243.373 51.886 244.057 52.3912C244.741 52.8966 245.42 53.4088 246.094 53.9277C246.769 54.4467 247.437 54.9724 248.101 55.5049C248.764 56.0374 249.422 56.5766 250.074 57.1224C250.727 57.6681 251.374 58.2204 252.015 58.7793C257.144 63.2721 261.682 68.1377 266.139 73.2843C270.168 78.7702 274.258 83.9665 277.684 89.8846C278.116 90.6427 278.54 91.4053 278.956 92.1721C279.372 92.939 279.78 93.7102 280.179 94.4859C280.579 95.2613 280.971 96.0409 281.354 96.8246C281.738 97.6082 282.113 98.3958 282.48 99.1874C282.847 99.9789 283.205 100.774 283.556 101.573C283.906 102.372 284.248 103.175 284.581 103.981C284.915 104.787 285.24 105.597 285.556 106.41C285.873 107.223 286.181 108.039 286.48 108.859C286.779 109.678 287.07 110.501 287.352 111.326C287.635 112.152 287.908 112.98 288.173 113.812C288.438 114.643 288.694 115.477 288.941 116.313C289.189 117.15 289.427 117.989 289.657 118.831C289.887 119.673 290.108 120.516 290.32 121.363C290.532 122.209 290.735 123.057 290.93 123.908C291.124 124.758 291.309 125.611 291.486 126.465C291.662 127.32 291.83 128.176 291.988 129.034C292.147 129.892 292.297 130.751 292.437 131.612C292.578 132.473 292.709 133.336 292.832 134.2C292.954 135.063 293.067 135.928 293.172 136.795C293.276 137.661 293.372 138.528 293.458 139.396C293.544 140.264 293.621 141.133 293.689 142.003C293.757 142.873 293.816 143.743 293.866 144.614C293.916 145.485 293.956 146.357 293.988 147.229C294.019 148.101 294.042 148.973 294.055 149.845C294.068 150.718 294.072 151.59 294.067 152.462C294.062 153.335 294.048 154.207 294.025 155.079C294.002 155.951 293.969 156.823 293.928 157.695C293.886 158.566 293.836 159.437 293.776 160.307C293.716 161.178 293.647 162.048 293.569 162.916C293.491 163.785 293.404 164.653 293.308 165.521C293.212 166.388 293.107 167.254 292.992 168.119C292.878 168.984 292.755 169.847 292.622 170.71C291.822 175.905 290.567 180.877 289.086 185.918C286.984 193.071 284.442 199.952 281.21 206.678C270.661 228.631 253.529 248.999 233.877 263.362C203.683 285.43 166.502 295.577 129.362 289.76C127.555 289.485 125.756 289.169 123.964 288.811C122.172 288.453 120.389 288.053 118.616 287.612C116.842 287.171 115.08 286.689 113.329 286.166C111.578 285.643 109.84 285.079 108.116 284.475C106.391 283.87 104.681 283.227 102.987 282.543C101.292 281.859 99.6142 281.136 97.9531 280.374C96.2921 279.612 94.6497 278.812 93.0259 277.973C91.4022 277.135 89.7988 276.259 88.2159 275.346C85.6675 273.862 83.2306 272.214 80.7809 270.574C79.5687 269.763 78.3553 268.84 77.0769 268.142Z" fill="black"/>
<path d="M239.305 56.3662C239.364 56.3878 239.426 56.4043 239.483 56.4309C241.151 57.2043 242.903 58.9921 244.362 60.1546C245.094 60.7411 245.82 61.3362 246.538 61.94C247.256 62.5439 247.967 63.1564 248.67 63.7775C249.374 64.3985 250.069 65.028 250.757 65.6659C251.446 66.3038 252.126 66.9499 252.798 67.604C253.471 68.2584 254.136 68.9207 254.792 69.5909C255.449 70.2613 256.097 70.9395 256.737 71.6256C257.377 72.3116 258.009 73.0053 258.633 73.7065C259.256 74.4078 259.871 75.1164 260.477 75.8325C261.084 76.5487 261.681 77.272 262.27 78.0025C262.859 78.7331 263.439 79.4707 264.01 80.2153C264.581 80.9599 265.143 81.7112 265.696 82.4693C266.249 83.2275 266.792 83.9922 267.327 84.7634C267.861 85.5347 268.386 86.3123 268.902 87.0962C269.417 87.8802 269.923 88.6702 270.42 89.4662C270.916 90.2625 271.403 91.0645 271.881 91.8725C272.358 92.6804 272.825 93.4939 273.283 94.3131C274.527 96.5287 276.078 98.8943 276.898 101.292C275.432 100.543 271.278 96.514 269.804 95.2271C265.559 91.5228 261.239 87.7384 256.702 84.4009C252.405 74.0165 246.713 64.8212 239.305 56.3662Z" fill="#1268D9"/>
<path d="M44.2128 218.077C45.0963 218.657 48.3072 223.126 49.2741 224.273C50.9582 226.268 52.7226 228.19 54.5672 230.038C57.3349 232.712 60.273 235.184 63.3816 237.454C65.2788 238.848 67.3341 240.134 69.1119 241.674C72.1525 244.308 74.8516 247.428 77.6078 250.357L89.3838 262.747C91.8606 265.346 94.3548 267.929 96.8663 270.495C98.3969 272.045 100.216 273.578 101.503 275.33C100.851 275.133 100.208 274.794 99.5878 274.511C79.5938 265.39 62.3381 249.682 50.8688 231.007C48.3588 226.92 45.8935 222.581 44.2128 218.077Z" fill="#1268D9"/>
<path d="M259.523 93.8306C261.121 94.8515 262.623 96.5371 264.07 97.8015L275.684 107.898C276.949 108.978 281.082 112.011 281.706 113.136C281.755 113.224 281.784 113.322 281.823 113.414C284.735 120.198 287.186 134.086 287.577 141.512C285.683 140.112 283.976 138.144 282.229 136.543C278.958 133.605 275.722 130.628 272.521 127.614C269.509 124.773 266.514 121.773 263.283 119.184C263.296 110.552 261.297 102.209 259.523 93.8306Z" fill="#1268D9"/>
<path d="M83.1197 248.42C85.6219 249.245 88.0281 250.397 90.5406 251.239C97.2366 253.484 103.923 254.89 110.903 255.869C111.837 256 112.527 256.082 113.3 256.682C115.739 258.576 117.887 261.001 120.121 263.144C124.802 267.58 129.441 272.059 134.038 276.582C135.832 278.337 137.647 280.069 139.485 281.777C140.711 282.924 142.135 284.091 143.148 285.43C134.798 284.8 126.663 283.49 118.571 281.323C117.105 280.93 115.237 280.586 113.912 279.854C112.391 279.014 107.464 273.568 105.918 271.985L83.1197 248.42Z" fill="#1268D9"/>
<path d="M263.046 126.975C265.664 129.035 268.026 131.453 270.484 133.698C276.405 139.146 282.283 144.639 288.12 150.177C288.069 157.524 287.596 164.83 286.293 172.069C286.189 172.648 285.553 176.403 285.408 176.561C285.336 176.639 285.234 176.682 285.148 176.742L284.649 176.414C280.978 173.184 277.499 169.718 273.903 166.401C268.879 161.768 263.738 157.223 258.894 152.402C259.977 147.67 261.121 142.939 261.86 138.138C262.43 134.438 262.693 130.701 263.046 126.975Z" fill="#1268D9"/>
<path d="M243.754 187.024C253.078 195.453 261.969 204.354 271.182 212.903C267.047 219.24 263.033 225.431 258.307 231.362C255.448 228.292 252.32 225.455 249.273 222.574C245.779 219.225 242.262 215.899 238.724 212.596C236.085 210.151 233.335 207.774 230.85 205.174C232.672 202.496 234.88 199.975 236.824 197.378C239.33 194.029 241.556 190.577 243.754 187.024Z" fill="#1268D9"/>
<path d="M149.46 254.572C149.562 254.558 149.663 254.534 149.765 254.53C149.958 254.522 150.119 254.639 150.259 254.754C151.215 255.54 152.062 256.552 152.957 257.417L159.43 263.656C163.963 268.007 168.454 272.402 172.901 276.84C174.77 278.678 176.748 280.413 178.566 282.299C175.976 283.064 173.277 283.438 170.612 283.844C165.546 284.666 160.45 285.192 155.323 285.42C154.269 285.472 152.203 285.763 151.266 285.348C144.41 278.537 137.264 271.99 130.337 265.247C127.458 262.445 124.416 259.672 121.744 256.678C124.065 256.788 126.386 256.826 128.709 256.792C131.031 256.759 133.351 256.654 135.667 256.478C137.983 256.302 140.292 256.055 142.593 255.737C144.894 255.419 147.183 255.031 149.46 254.572Z" fill="#1268D9"/>
<path d="M256.909 158.822C259.011 160.318 262.004 163.548 264.035 165.436L274.567 175.173C277.578 177.988 280.54 180.873 283.674 183.549C281.389 190.398 279.003 196.968 275.937 203.511C275.393 204.673 274.849 206.239 274.022 207.217L257.773 191.948C254.13 188.543 250.393 185.21 246.877 181.675C250.784 174.196 254.168 166.813 256.909 158.822Z" fill="#1268D9"/>
<path d="M226.717 209.637C227.89 210.342 228.991 211.682 229.994 212.638L237.391 219.734C243.11 225.235 249.029 230.534 254.667 236.116C249.857 241.47 243.653 247.767 238.069 252.256C237.871 252.333 237.723 252.323 237.513 252.326C236.281 251.559 231.772 246.721 230.46 245.414C225.8 240.796 221.184 236.135 216.614 231.428C214.512 229.296 212.335 227.245 210.278 225.066C212.095 223.315 214.153 221.751 216.036 220.06C219.755 216.748 223.315 213.274 226.717 209.637Z" fill="#1268D9"/>
<path d="M179.885 244.046C180.854 244.679 181.771 245.89 182.606 246.715L187.943 251.89L202.303 265.828C204.334 267.802 206.57 269.665 208.473 271.753C202.654 275.085 191.747 279.012 185.133 280.667C183.196 279.204 181.453 277.292 179.706 275.608C176.547 272.601 173.42 269.562 170.324 266.49C165.751 261.996 160.855 257.72 156.498 253.021C160.519 251.869 164.482 250.544 168.388 249.045C172.293 247.546 176.126 245.88 179.885 244.046Z" fill="#1268D9"/>
<path d="M205.2 228.575C205.791 228.827 231.136 253.8 233.218 256.139C230.281 259.227 217.747 267.223 213.633 269.036C207.458 262.603 200.83 256.501 194.382 250.337C191.268 247.359 187.919 244.46 185.104 241.193C192.262 237.976 198.88 233.179 205.2 228.575Z" fill="#1268D9"/>
<path d="M165.239 33.6603C166.85 33.5316 168.515 33.5463 170.131 33.5388C193.123 33.4294 215.785 41.0459 232.253 57.4209C249.116 74.1881 257.008 96.995 257.058 120.512C257.13 153.944 242.05 186.123 218.607 209.588C216.654 211.513 214.651 213.383 212.597 215.2C210.543 217.017 208.443 218.777 206.294 220.481C204.146 222.185 201.953 223.829 199.717 225.415C197.48 227.001 195.202 228.526 192.883 229.989C171.953 243.317 150.282 251.039 125.309 251.053C101.656 250.777 77.9819 243.252 60.2553 227.248C43.3547 211.99 34.5959 191.174 33.4644 168.626C31.8397 136.251 46.4803 104.396 67.8972 80.7288C92.7278 53.2884 128.167 35.4928 165.239 33.6603Z" fill="#FEFEFE"/>
<path d="M160.248 53.6589C160.607 53.6306 160.967 53.6101 161.327 53.5974C181.622 52.8683 201.082 58.5611 216.091 72.6308C229.811 85.4917 236.217 102.429 236.814 120.998C237.648 146.922 226.171 172.884 208.582 191.626C188.459 213.065 159.987 228.603 130.195 229.53C126.675 229.596 123.135 229.708 119.621 229.422C104.483 228.191 88.9359 222.331 77.3463 212.409C63.4719 200.532 54.7869 184.264 53.3925 165.978C51.3997 139.848 62.9453 114.541 79.6703 95.0527C80.2945 94.3118 80.9278 93.5788 81.5703 92.8536C82.2126 92.1284 82.8639 91.4112 83.5241 90.7021C84.1843 89.9931 84.8531 89.2924 85.5306 88.5999C86.2081 87.9074 86.8941 87.2233 87.5884 86.5477C88.2828 85.8721 88.9855 85.2052 89.6966 84.5471C90.4074 83.8889 91.1264 83.2398 91.8534 82.5996C92.5805 81.9591 93.3153 81.3279 94.0578 80.7058C94.8005 80.0835 95.5507 79.4706 96.3084 78.8671C97.0664 78.2635 97.8316 77.6695 98.6041 77.0849C99.3766 76.5001 100.156 75.9251 100.943 75.3599C101.73 74.7945 102.523 74.2389 103.324 73.6933C104.124 73.1477 104.932 72.612 105.745 72.0861C106.559 71.5605 107.379 71.045 108.206 70.5396C109.032 70.0341 109.865 69.539 110.703 69.0542C111.542 68.5695 112.387 68.0951 113.237 67.6311C114.088 67.1674 114.944 66.7141 115.806 66.2714C116.668 65.8287 117.535 65.3967 118.407 64.9755C119.28 64.5542 120.157 64.1438 121.04 63.7442C121.922 63.3449 122.81 62.9564 123.702 62.5789C124.594 62.2012 125.491 61.8348 126.392 61.4796C127.293 61.1241 128.199 60.78 129.109 60.4471C130.019 60.1141 130.933 59.7926 131.85 59.4824C132.768 59.172 133.689 58.873 134.615 58.5855C135.54 58.2982 136.468 58.0223 137.4 57.7577C138.332 57.4931 139.268 57.2402 140.206 56.9989C141.144 56.7575 142.085 56.5278 143.029 56.3099C143.973 56.0917 144.92 55.8854 145.869 55.6908C146.818 55.4962 147.769 55.3134 148.722 55.1424C149.676 54.9713 150.632 54.8121 151.589 54.6646C152.547 54.5171 153.506 54.3815 154.467 54.258C155.428 54.1342 156.39 54.0225 157.354 53.9227C158.317 53.8229 159.282 53.735 160.248 53.6589Z" fill="black"/>
<path d="M161.396 59.4652C161.654 59.4406 161.912 59.4271 162.171 59.4152C179.809 58.5977 198.529 64.4377 211.668 76.4412C224.255 87.9406 230.449 103.679 231.201 120.547C232.283 144.843 220.96 169.746 204.754 187.409C190.855 202.558 170.637 215.451 150.67 220.661C143.489 222.535 136.36 223.39 128.96 223.711C110.834 224.22 93.2303 218.64 79.5791 206.469C79.2055 206.133 78.8361 205.792 78.4709 205.447C78.1055 205.102 77.7445 204.752 77.3878 204.398C77.0311 204.044 76.6789 203.686 76.3309 203.323C75.983 202.961 75.6396 202.594 75.3006 202.223C74.9617 201.852 74.6273 201.477 74.2975 201.097C73.9677 200.718 73.6426 200.335 73.3222 199.948C73.0018 199.561 72.6861 199.17 72.3753 198.775C72.0645 198.38 71.7584 197.981 71.4572 197.579C71.1561 197.177 70.86 196.771 70.5687 196.361C70.2777 195.952 69.9916 195.539 69.7103 195.122C69.4293 194.705 69.1533 194.285 68.8825 193.862C68.6117 193.439 68.346 193.012 68.0856 192.582C67.8254 192.153 67.5704 191.72 67.3206 191.284C67.0708 190.848 66.8263 190.409 66.5872 189.967C66.3482 189.524 66.1146 189.08 65.8862 188.632C65.6581 188.184 65.4355 187.734 65.2184 187.281C65.0011 186.827 64.7895 186.371 64.5834 185.913C64.3774 185.455 64.1771 184.994 63.9825 184.531C63.7877 184.067 63.5986 183.602 63.4153 183.134C63.2318 182.666 63.0542 182.196 62.8825 181.724C62.7106 181.252 62.5445 180.777 62.3841 180.301C62.2239 179.825 62.0695 179.346 61.9209 178.866C61.7724 178.386 61.6297 177.905 61.4928 177.421C61.3559 176.937 61.2251 176.452 61.1003 175.966C60.9753 175.479 60.8564 174.99 60.7434 174.501C60.6303 174.011 60.5232 173.52 60.4222 173.028C60.3214 172.536 60.2265 172.042 60.1375 171.547C60.0485 171.053 59.9656 170.557 59.8887 170.061C59.8121 169.564 59.7415 169.067 59.6769 168.568C59.6121 168.07 59.5535 167.571 59.5012 167.071C59.4487 166.571 59.4024 166.071 59.3622 165.57C59.322 165.069 59.2879 164.568 59.26 164.066C57.8825 139.788 68.77 115.735 84.6988 97.8815C104.623 75.5499 131.302 61.1959 161.396 59.4652Z" fill="#EE710C"/>
<path d="M213.05 154.602C213.756 155.487 214.447 156.384 215.236 157.198C213.528 158.782 211.796 160.339 210.041 161.87C209.348 160.93 208.674 159.848 207.846 159.028C209.232 157.315 211.302 155.944 213.05 154.602Z" fill="black"/>
<path d="M112.991 208.546C113.884 209.417 114.79 210.277 115.707 211.124C114.072 212.724 112.404 214.288 110.703 215.817C109.864 214.924 109.045 213.985 108.076 213.231C109.73 211.707 111.484 210.216 112.991 208.546Z" fill="black"/>
<path d="M190.144 186.781C190.944 187.59 191.727 188.415 192.493 189.257L187.271 193.991C186.444 193.08 185.595 191.93 184.613 191.198C186.536 189.865 188.341 188.271 190.144 186.781Z" fill="black"/>
<path d="M152.363 208.572C153.113 209.411 153.892 210.237 154.611 211.102C152.737 212.683 150.885 214.311 148.953 215.82C148.191 214.986 147.442 214.148 146.727 213.272C148.531 211.586 150.388 210.05 152.363 208.572Z" fill="black"/>
<path d="M87.4663 186.939C88.0953 188.005 89.0594 188.835 89.8375 189.789C88.0977 191.385 86.3378 192.959 84.5578 194.511C83.795 193.638 83.025 192.656 82.1413 191.904C83.9803 190.34 85.7059 188.593 87.4663 186.939Z" fill="black"/>
<path d="M75.5356 149.148C76.3734 150.032 77.1966 150.937 78.0541 151.801C76.1795 153.565 74.2617 155.28 72.3006 156.947C71.5913 156.17 70.7134 155.366 70.1247 154.502C71.9872 152.823 73.8622 151.014 75.5356 149.148Z" fill="black"/>
<path d="M217.924 113.908C218.753 114.779 219.554 115.675 220.328 116.594C218.546 118.43 216.536 120.081 214.567 121.712C213.851 120.843 213.156 119.929 212.372 119.121C214.135 117.288 216.094 115.672 217.924 113.908Z" fill="black"/>
<path d="M93.9859 110.74C94.7409 111.772 95.7362 112.679 96.6281 113.596C94.7325 115.172 92.9784 116.894 91.1337 118.526C90.3072 117.617 89.5013 116.672 88.6413 115.796C90.3534 114.05 92.1997 112.412 93.9859 110.74Z" fill="black"/>
<path d="M123.829 84.4199C124.851 85.2484 125.746 86.283 126.659 87.2305L120.913 92.0534C120.079 91.208 119.188 90.2996 118.51 89.3243C120.23 87.6387 122.049 86.0427 123.829 84.4199Z" fill="black"/>
<path d="M161.976 70.126C162.816 71.0454 163.67 71.9553 164.453 72.9241L158.891 77.891C158.026 76.9919 157.16 76.106 156.392 75.1203C158.165 73.357 160.027 71.6922 161.976 70.126Z" fill="black"/>
<path d="M197.442 80.8105L200.097 83.6037L194.291 88.6912C193.506 87.6878 192.704 86.6977 191.887 85.7209C193.687 84.0257 195.539 82.3889 197.442 80.8105Z" fill="black"/>
<path d="M108.675 203.57C110.143 205.194 111.645 206.818 112.991 208.546C111.484 210.215 109.73 211.706 108.076 213.231C106.404 211.845 104.939 210.067 103.477 208.465C105.238 206.865 106.918 205.176 108.675 203.57Z" fill="#FEFEFE"/>
<path d="M209.042 149.394C210.364 151.142 211.75 152.836 213.05 154.602C211.302 155.944 209.232 157.315 207.846 159.028C207.741 159.104 207.582 159.134 207.458 159.174C206.01 158.245 204.328 155.536 203.254 154.133C205.273 152.668 207.092 150.948 209.042 149.394Z" fill="#FEFEFE"/>
<path d="M142.429 208.225C144.241 206.549 146.258 205.039 148.127 203.418C149.55 205.127 150.962 206.845 152.363 208.572C150.388 210.05 148.531 211.586 146.727 213.272C145.118 211.94 143.73 209.86 142.429 208.225Z" fill="#FEFEFE"/>
<path d="M180.279 186.288L186.116 181.348C187.478 183.012 189.208 184.841 190.144 186.781C188.341 188.271 186.536 189.865 184.613 191.199C183.002 189.892 181.601 187.892 180.279 186.288Z" fill="#FEFEFE"/>
<path d="M82.9181 181.722C84.4553 183.351 86.2775 185.037 87.4663 186.939C85.7059 188.593 83.9803 190.34 82.1412 191.904C80.4569 190.38 79.0744 188.487 77.6581 186.72C79.3835 185.025 81.1369 183.359 82.9181 181.722Z" fill="#FEFEFE"/>
<path d="M151.804 69.9287C153.595 68.2116 155.435 66.549 157.324 64.9409L161.976 70.1259C160.027 71.6922 158.165 73.357 156.392 75.1203C154.813 73.4403 153.322 71.664 151.804 69.9287Z" fill="#FEFEFE"/>
<path d="M207.76 113.84C209.813 112.345 211.667 110.58 213.543 108.874C215.029 110.527 216.433 112.256 217.924 113.908C216.094 115.672 214.135 117.288 212.372 119.121C210.639 117.719 209.17 115.562 207.76 113.84Z" fill="#FEFEFE"/>
<path d="M187.192 80.8212C189.103 79.0537 190.991 77.2455 192.979 75.564C194.373 77.3793 196.033 78.9993 197.442 80.8105C195.539 82.3889 193.687 84.0256 191.887 85.7208C190.246 84.1558 188.645 82.5649 187.192 80.8212Z" fill="#FEFEFE"/>
<path d="M113.689 84.3299C115.504 82.5807 117.342 80.8555 119.203 79.1543C120.04 80.0999 123.566 83.4818 123.829 84.4196C122.049 86.0424 120.23 87.6384 118.51 89.324C117.711 89.1846 114.377 85.1052 113.689 84.3299Z" fill="#FEFEFE"/>
<path d="M65.3522 149.143C67.1853 147.511 68.8816 145.703 70.6094 143.959C72.3 145.651 73.9884 147.321 75.5356 149.148C73.8622 151.014 71.9872 152.824 70.1247 154.502C68.4786 152.765 66.8878 150.979 65.3522 149.143Z" fill="#FEFEFE"/>
<path d="M83.7431 110.489C85.4603 108.648 87.3428 106.9 89.2397 105.244C90.7456 107.109 92.6547 108.747 93.9859 110.741C92.1997 112.412 90.3534 114.05 88.6413 115.796L83.7431 110.489Z" fill="#FEFEFE"/>
<path d="M156.094 87.4096L156.222 87.3971C168.104 86.3427 180.555 89.919 189.73 97.6362C197.713 104.352 202.081 114.107 202.971 124.381C204.343 140.205 196.683 156.008 186.751 167.87C173.64 183.529 153.872 194.773 133.4 196.585C133.161 196.616 132.922 196.643 132.683 196.665C121.573 197.709 108.861 194.942 100.253 187.636C91.7847 180.449 87.3153 169.08 86.4331 158.192C85.1913 142.861 93.2713 127.378 102.964 115.989C116.352 100.257 135.291 89.1021 156.094 87.4096Z" fill="black"/>
<path d="M156.433 91.0025C156.46 90.9994 156.487 90.995 156.514 90.9928C167.012 90.1231 178.658 92.8865 186.805 99.7272C187.03 99.9182 187.252 100.112 187.471 100.309C187.691 100.505 187.908 100.705 188.122 100.907C188.337 101.108 188.549 101.313 188.758 101.52C188.968 101.727 189.175 101.937 189.38 102.149C189.584 102.361 189.786 102.576 189.985 102.793C190.184 103.01 190.38 103.23 190.574 103.452C190.768 103.674 190.959 103.898 191.147 104.125C191.335 104.352 191.521 104.581 191.703 104.812C191.886 105.043 192.066 105.277 192.243 105.513C192.419 105.748 192.593 105.986 192.764 106.226C192.935 106.466 193.103 106.708 193.268 106.952C193.433 107.197 193.595 107.443 193.754 107.691C193.913 107.939 194.069 108.189 194.222 108.441C194.375 108.693 194.525 108.947 194.671 109.202C194.818 109.458 194.961 109.715 195.101 109.974C195.242 110.234 195.379 110.494 195.513 110.757C195.646 111.019 195.777 111.284 195.904 111.549C196.032 111.815 196.156 112.082 196.277 112.351C196.397 112.62 196.515 112.89 196.629 113.162C196.743 113.434 196.854 113.707 196.961 113.981C197.068 114.255 197.172 114.531 197.273 114.808C197.373 115.085 197.471 115.363 197.565 115.642C197.658 115.922 197.749 116.202 197.836 116.484C197.922 116.765 198.006 117.048 198.086 117.332C198.166 117.615 198.242 117.9 198.315 118.185C198.388 118.471 198.457 118.757 198.523 119.045C198.589 119.332 198.651 119.62 198.71 119.908C198.769 120.197 198.824 120.487 198.876 120.777C198.927 121.067 198.975 121.357 199.02 121.649C199.064 121.94 199.105 122.232 199.143 122.524C199.18 122.817 199.214 123.109 199.244 123.402C199.274 123.696 199.301 123.989 199.323 124.283C200.612 139.41 193.568 154.364 183.978 165.685C171.505 180.408 152.499 191.406 133.087 193.024C133.003 193.033 132.919 193.043 132.835 193.05C121.9 194.023 110.384 191.459 101.972 184.127C94.46 177.58 90.5922 167.292 89.9394 157.517C88.9634 142.902 96.68 128.471 106.055 117.769C118.778 103.245 136.857 92.2834 156.433 91.0025Z" fill="#FEFEFE"/>
<path d="M162.438 96.0508C162.473 96.0564 162.51 96.0586 162.545 96.0673C163.972 96.427 187.694 114.198 190.071 116.149C190.407 116.425 190.885 116.807 191.091 117.194C191.33 117.645 191.389 118.15 191.43 118.65C191.616 120.894 191.417 123.24 191.437 125.5C191.466 128.774 191.679 132.136 191.526 135.4C191.496 136.036 191.448 136.922 191.179 137.5C190.882 138.137 190.015 138.811 189.463 139.246C186.349 141.7 182.905 143.855 179.657 146.134C177.376 147.734 172.21 151.857 169.891 152.74C169.855 152.722 169.818 152.704 169.782 152.686C167.822 151.76 141.661 132.92 140.945 131.864C140.656 131.438 140.627 130.719 140.607 130.21C140.458 126.562 140.679 122.851 140.675 119.195C140.672 116.801 140.35 114.129 140.663 111.774C140.738 111.211 140.928 110.938 141.343 110.57C143.1 109.016 145.381 107.763 147.328 106.427C152.37 102.97 157.479 99.6277 162.438 96.0508Z" fill="black"/>
<path d="M187.826 122.195C188.238 122.647 187.895 134.168 188.083 135.973C182.874 139.511 177.873 143.384 172.585 146.798L172.48 146.809C172.037 146.304 172.335 134.733 172.34 133.197C177.634 129.728 182.702 125.907 187.826 122.195Z" fill="#0B4098"/>
<path d="M144.2 115.428C146.306 116.704 148.213 118.485 150.202 119.947L161.256 127.972C163.734 129.771 166.179 131.647 168.736 133.332L168.732 147.777C167.218 147.157 163.731 144.198 162.218 143.092C156.217 138.702 150.096 134.411 144.216 129.862L144.2 115.428Z" fill="#1268D9"/>
<path d="M162.506 100.322C164.549 101.51 166.506 103.085 168.438 104.462C174.715 108.936 180.702 113.82 187.006 118.249C184.589 119.986 172.139 129.496 170.408 130.033C162.053 124.089 153.735 118.092 145.457 112.041C147.737 110.349 150.147 108.794 152.49 107.184C155.812 104.873 159.151 102.586 162.506 100.322Z" fill="#1268D9"/>
<path d="M120.704 131.208C121.227 131.339 121.623 131.517 122.085 131.796C127.422 135.017 132.83 139.217 138.01 142.79L145.807 148.146C147.166 149.085 148.673 149.992 149.901 151.098C150.072 151.252 150.433 151.543 150.541 151.748C150.831 152.3 150.67 168.932 150.744 171.071C150.39 171.623 149.944 172.063 149.434 172.471C146.897 174.5 144.03 176.244 141.336 178.06C137.151 180.885 132.984 183.735 128.833 186.61C128.483 186.781 128.209 186.905 127.813 186.874C127.364 186.838 126.859 186.526 126.49 186.294C121.491 183.15 116.376 179.252 111.524 175.825C107.838 173.222 103.946 170.806 100.361 168.075C99.8622 167.695 99.4778 167.304 99.1284 166.782C98.9013 162.579 99.0581 158.281 99.0459 154.07C99.0397 151.839 98.7166 148.772 99.1525 146.625C99.2459 146.166 99.3419 145.958 99.7203 145.661C100.404 145.125 101.269 144.719 102.009 144.249C103.192 143.498 104.331 142.668 105.478 141.864C110.541 138.314 115.574 134.656 120.704 131.208Z" fill="black"/>
<path d="M146.948 156.383L147.143 156.442C147.474 157.424 147.197 167.711 147.273 169.793C141.687 173.441 136.42 177.655 130.715 181.105C130.572 181.096 130.67 181.114 130.462 180.946C130.346 176.627 130.528 172.262 130.513 167.936C132.267 166.461 134.302 165.245 136.186 163.932L146.948 156.383Z" fill="#0B4098"/>
<path d="M102.501 150.047C105.304 151.36 109.107 154.578 111.748 156.516L127.043 167.708C127.046 172.56 127.136 177.43 126.997 182.28C125.317 181.638 121.817 178.742 120.128 177.528L110.725 170.897C108.019 168.961 105.369 166.936 102.535 165.189C102.459 160.145 102.511 155.092 102.501 150.047Z" fill="#1268D9"/>
<path d="M121.04 135.294C126.358 139.068 131.705 142.8 137.082 146.49C140.11 148.585 143.098 150.834 146.246 152.741C140.562 156.557 134.914 160.425 129.3 164.344C129.166 164.443 128.99 164.483 128.834 164.539C127.733 164.05 123.128 160.236 121.694 159.186C115.974 154.999 110.138 150.963 104.374 146.838C106.526 145.112 109.019 143.618 111.307 142.062C114.576 139.84 117.782 137.53 121.04 135.294Z" fill="#1268D9"/>
</svg>
