<svg width="320" height="320" viewBox="0 0 320 320" fill="none" xmlns="http://www.w3.org/2000/svg">
<path d="M173.099 15.7861C173.208 15.8749 173.145 15.8076 173.219 16.0358C173.064 16.2013 172.912 16.3689 172.763 16.5386C170.056 19.5969 167.732 23.1935 165.548 26.6376C158.781 37.3129 149.568 54.5076 150.312 67.5001C159.429 63.9273 169.618 61.5129 179.444 61.4314C174.284 65.0195 168.696 67.7442 164.212 72.2692C161.92 74.581 160.927 76.912 160.945 80.1792C162.179 80.3539 163.46 80.3201 164.706 80.3442C173.527 72.4285 183.193 64.6376 193.773 59.2135C195.939 58.1029 198.217 57.0989 200.488 56.2229C202.37 55.4976 204.807 54.9573 206.46 53.8404C208.404 52.527 210.205 50.4673 211.93 48.8685C214.755 46.2452 217.662 43.717 220.652 41.2839C233.887 30.5239 248.313 22.5147 264.069 16.1278C253.77 26.6971 243.203 38.0423 236.337 51.2173C231.397 60.6976 227.981 70.847 223.537 80.552C220.49 87.2063 216.908 93.1985 212.784 99.2217C217.099 99.2264 221.379 98.9345 225.703 99.097C244.136 99.7895 262.585 104.154 278.453 113.74L277.753 113.764C272.551 113.958 267.568 114.939 262.535 116.223C253.427 118.547 244.881 121.745 237.476 127.714C236.129 128.799 234.765 129.887 233.586 131.159C235.323 131.593 237.172 131.729 238.939 132.05C242.129 132.628 245.333 133.386 248.468 134.207C269.151 139.624 287.839 149.841 301.659 166.389C300.547 165.94 299.421 165.529 298.281 165.156C284.427 160.617 270.194 162.097 257.289 168.674C257.632 169.14 258.027 169.56 258.414 169.989L260.793 170.548C281.652 175.472 297.888 187.15 309.138 205.37C307.236 204.18 305.087 203.336 302.979 202.579C292.578 198.847 281.188 198.88 270.404 200.707C271.757 205.541 274.405 214.141 273.587 218.969C273.059 222.086 271.502 225.417 270.162 228.282C255.09 260.505 228.284 283.879 196 298.091C191.761 299.958 187.402 301.546 183.047 303.119C180.203 304.02 177.344 304.874 174.472 305.68C181.51 293.684 186.713 283.014 189.301 269.232C190.348 263.656 191.279 256.727 190.463 251.109C189.463 244.216 183.983 234.739 180.062 229.006C179.146 227.666 178.139 225.979 176.832 225.006C174.801 223.494 171.934 222.625 169.597 221.695C162.461 218.859 155.254 216.409 147.781 214.61C143.508 213.582 139.188 212.831 134.87 212.023C133.225 212.911 131.622 214.229 130.144 215.379C120.85 222.612 112.246 232.35 105.593 242.046C105.79 245.241 105.726 248.252 105.185 251.419C103.101 263.633 96.1494 275.832 86.0091 283.029C87.5044 276.084 89.3557 269.131 88.0282 262.01C86.4966 264.715 84.9882 267.496 83.1522 270.008C77.0241 278.392 66.9066 286.998 56.806 289.85C58.2419 286.684 59.6904 283.547 60.7444 280.227C60.9323 279.636 61.1082 279.04 61.2719 278.442C61.4357 277.843 61.5871 277.241 61.7263 276.636C61.8655 276.032 61.9923 275.424 62.1069 274.814C62.2213 274.204 62.3233 273.592 62.4129 272.978C62.5024 272.363 62.5795 271.748 62.6441 271.13C62.7085 270.513 62.7604 269.895 62.7997 269.275C62.8389 268.656 62.8656 268.036 62.8797 267.415C62.8937 266.795 62.8951 266.174 62.8838 265.554C62.8728 264.933 62.849 264.313 62.8125 263.693C62.7759 263.074 62.7267 262.455 62.6651 261.837C62.6034 261.22 62.5292 260.603 62.4426 259.989C62.3559 259.374 62.2566 258.762 62.1447 258.151C62.0331 257.541 61.909 256.933 61.7725 256.327C61.6361 255.722 61.4874 255.119 61.3266 254.519C61.1656 253.92 60.9924 253.324 60.8072 252.732C60.6218 252.139 60.4245 251.551 60.2154 250.967C55.9054 253.679 51.5107 255.069 46.5135 255.926C50.9404 251.991 52.8807 247.661 54.6047 242.097C55.2616 239.976 55.8907 237.873 57.0576 235.967C56.9107 235.625 56.7708 235.279 56.6379 234.931C56.5052 234.582 56.3794 234.231 56.2607 233.878C56.1419 233.524 56.0304 233.169 55.926 232.811C55.8216 232.453 55.7245 232.093 55.6347 231.731C55.5449 231.369 55.4624 231.006 55.3872 230.64C55.312 230.275 55.2442 229.909 55.1838 229.541C55.1234 229.173 55.0705 228.804 55.0251 228.434C54.9796 228.064 54.9416 227.693 54.911 227.321C54.8806 226.95 54.8576 226.578 54.8419 226.205C54.8265 225.832 54.8186 225.46 54.8182 225.087C54.8178 224.714 54.8248 224.341 54.8394 223.969C54.854 223.596 54.8761 223.224 54.9057 222.852C54.9353 222.481 54.9723 222.11 55.0169 221.739C55.0615 221.369 55.1135 221 55.1729 220.632C55.2324 220.264 55.2993 219.897 55.3735 219.532C55.4479 219.167 55.5295 218.803 55.6185 218.441C59.0094 220.585 62.5791 225.32 65.2735 228.399C68.0304 222.284 70.9132 216.216 74.7254 210.679C74.6469 207.191 74.5997 203.675 75.1591 200.22C73.0922 202.617 71.1888 205.442 68.9394 207.644C64.9154 207.419 61.0604 205.713 57.3704 204.217C57.0019 210.104 58.2744 214.027 61.3685 219.103C55.4544 217.194 52.4204 215.545 47.6582 211.518C48.6072 215.266 49.7579 218.913 51.3426 222.444C49.2766 221.311 47.0719 220.501 45.0819 219.209C39.7197 215.727 32.2888 207.54 29.4556 201.797C24.133 191.008 25.275 179.63 29.0373 168.628C24.1178 160.372 22.7642 147.804 23.1524 138.277C28.5285 144.884 33.6913 151.652 40.6454 156.75C48.6238 153.892 54.4197 149.051 60.5747 143.432C62.5338 141.644 64.4538 139.755 66.5388 138.114C64.7166 133.378 64.9122 128.719 65.9857 123.834C64.6301 121.55 63.176 119.269 62.096 116.839C61.0657 114.521 60.2857 111.775 61.3041 109.316C62.7938 105.718 67.9613 104.304 71.2722 103.016C74.9691 101.577 90.4532 95.0904 92.4732 93.322C94.3619 91.6685 95.7454 89.0135 97.4047 87.0848C99.2022 84.9951 101.346 83.2795 103.29 81.341C105.193 79.4438 107.25 74.7248 108.716 72.1942C110.356 69.379 112.118 66.6418 114 63.9826C125.282 48.1114 142.511 31.362 159.584 21.9186C163.938 19.5102 168.505 17.6717 173.099 15.7861Z" fill="#020101"/>
<path d="M81.8558 193.433L81.9717 193.573C81.2698 195.871 80.5167 197.997 80.1789 200.396L79.4961 199.453L77.8945 197.234C79.2689 196.061 80.5277 194.671 81.8558 193.433Z" fill="#FDFEFD"/>
<path d="M72.731 230.722C74.0538 232.055 74.9866 234.647 75.7969 236.372L74.3366 236.48L71.2231 236.695C71.396 234.565 72.0394 232.726 72.731 230.722Z" fill="#FDFEFD"/>
<path d="M111.111 188.555C112.073 189.819 112.846 191.367 113.656 192.739C113.035 193.744 112.292 194.692 111.598 195.649L110.356 197.251C110.079 194.252 110.22 191.445 111.111 188.555Z" fill="#FDFEFD"/>
<path d="M90.8652 218.971C92.0465 219.597 93.1658 220.998 94.1049 221.958L91.8708 225.484C91.5649 225.946 91.3237 226.394 90.8262 226.672C90.6058 226.65 90.5012 226.707 90.3677 226.5C89.5665 225.259 90.5855 220.561 90.8652 218.971Z" fill="#FDFEFD"/>
<path d="M97.1586 180.934C97.0836 182.163 95.9524 184.464 95.5386 185.793C95.1011 187.197 94.8224 188.606 94.5899 190.056C94.2002 189.533 93.8414 188.98 93.4699 188.444C92.8627 187.29 92.2858 186.146 91.7861 184.941C93.4864 183.464 95.2811 182.171 97.1586 180.934Z" fill="#FDFEFD"/>
<path d="M105.1 176.252C105.096 176.544 105.122 176.458 105.041 176.699C104.07 179.567 103.331 182.342 102.716 185.306L101.483 183.35C100.751 182.108 100.19 180.832 99.7236 179.471C101.471 178.3 103.237 177.228 105.1 176.252Z" fill="#FDFEFD"/>
<path d="M105.136 194.154C106.579 195.603 107.66 197.346 109.145 198.763C108.488 199.858 107.732 200.901 107.01 201.954L105.544 203.939C105.016 200.732 104.745 197.39 105.136 194.154Z" fill="#FDFEFD"/>
<path d="M89.3534 186.721C89.4846 186.865 89.4109 186.757 89.443 187.102L89.4006 186.939L89.2387 187.26L89.3668 187.406C88.5318 187.902 86.9981 195.22 86.5799 196.636L85.6334 195.184L83.6309 191.798C85.4419 189.997 87.3494 188.304 89.3534 186.721Z" fill="#FDFEFD"/>
<path d="M95.5405 209.793C96.8255 211.099 97.9746 212.539 99.2524 213.858C98.5958 215.138 97.8146 216.356 97.0677 217.585L95.5461 219.859C95.1127 216.394 95.1411 213.26 95.5405 209.793Z" fill="#FDFEFD"/>
<path d="M100.179 201.317C101.519 201.992 103.307 204.696 104.514 205.847L102.267 209.426L100.698 211.835C99.8729 208.438 100.102 204.783 100.179 201.317Z" fill="#FDFEFD"/>
<path d="M115.555 170.943L115.671 171.099C111.464 175.087 111.185 175.746 109.876 181.375C109.585 180.901 109.325 180.403 109.053 179.918C108.292 178.404 107.684 176.831 107.083 175.25C109.813 173.582 112.642 172.255 115.555 170.943Z" fill="#FDFEFD"/>
<path d="M26.4937 149.879C27.4624 150.375 32.2287 161.501 33.6972 163.4C33.4378 164.81 33.2825 166.248 33.0916 167.669C30.3031 161.977 27.8406 156.101 26.4937 149.879Z" fill="#FDFEFD"/>
<path d="M109.223 81.3726L109.405 81.4238C109.326 81.7782 100.914 89.7791 99.926 90.8447C98.416 92.4732 96.9223 94.1532 95.5782 95.9216C93.6504 98.4576 91.9638 101.034 89.7348 103.332L89.646 103.386L89.6392 103.138C93.1667 96.2504 102.385 84.8391 109.223 81.3726Z" fill="#542C0E"/>
<path d="M25.582 146.205C28.8858 150.739 32.1731 154.975 36.7674 158.294C35.5827 158.736 35.1606 159.183 34.6481 160.354C34.2309 161.307 33.9849 162.398 33.6971 163.4C32.2287 161.501 27.4623 150.375 26.4936 149.879C26.128 148.662 25.8365 147.451 25.582 146.205Z" fill="#4594FC"/>
<path d="M40.6603 200.91C41.0234 201.103 43.6556 205.723 44.2347 206.459C44.2203 209.755 44.8753 212.845 45.6741 216.02C44.9228 215.458 44.26 214.797 43.5831 214.15C40.7191 211.244 37.9737 207.532 36.5078 203.701C37.7609 202.468 39.1125 201.733 40.6603 200.91Z" fill="#FDFEFD"/>
<path d="M44.9136 200.371C47.9833 200.662 51.1811 201.985 54.113 202.942C53.6755 207.562 54.402 209.667 55.9389 213.99C55.3489 213.748 54.8226 213.412 54.3108 213.035C51.227 210.766 45.5154 204.202 44.9136 200.371Z" fill="#FDFEFD"/>
<path d="M57.3252 223.659C58.5096 224.333 60.2905 226.909 61.2968 228.034C63.8214 230.857 66.4899 234.056 69.4274 236.433L69.6193 236.587L69.608 236.798L69.0264 236.997C66.9474 237.492 64.9311 237.92 62.7871 238.027C59.0564 234.36 57.7252 228.699 57.3252 223.659Z" fill="#FDFEFD"/>
<path d="M78.3032 219.792C79.4573 220.79 80.4883 222.842 81.3464 224.134C83.1066 226.832 84.9121 229.499 86.7629 232.136C86.1688 232.929 85.5593 233.71 84.9345 234.478C83.1051 236.033 81.4379 236.245 79.1261 236.229C78.0211 231.623 78.2351 224.626 78.3032 219.792Z" fill="#FDFEFD"/>
<path d="M260.743 175.381C267.444 176.216 281.951 183.676 287.66 187.616C290.484 189.564 293.037 191.798 295.579 194.095C295.314 193.994 295.381 194.039 295.187 193.909C285.999 187.764 274.294 183.424 263.505 181.156C262.463 179.302 261.576 177.336 260.743 175.381Z" fill="#802E01"/>
<path d="M184.591 143.955C184.33 143.776 184.277 143.639 184.166 143.348C185.628 144.1 187.598 143.558 189.15 143.264C190.369 143.023 191.575 142.731 192.769 142.388C193.963 142.044 195.141 141.651 196.301 141.208C197.462 140.764 198.602 140.272 199.721 139.732C200.839 139.191 201.933 138.605 203.002 137.971C205.558 136.452 208.132 134.794 210.551 133.067C211.509 132.383 212.412 131.488 213.401 130.872C213.606 130.744 213.808 130.71 214.04 130.661C209.389 137.324 199.776 145.705 192.253 148.62C189.724 147.639 186.834 145.759 184.793 143.971L184.591 143.955Z" fill="#802E01"/>
<path d="M183.452 226.248C184.839 226.434 186.224 226.508 187.622 226.544C188.724 228.429 190.026 230.192 191.133 232.075C192.897 235.077 194.486 238.342 196.046 241.46C198.259 245.885 200.125 250.567 202.498 254.9C200.491 254.168 197.06 251.561 195.125 250.294C192.354 240.859 189.126 234.356 183.452 226.248Z" fill="#001A91"/>
<path d="M178.384 164.256C180.243 164.459 182.105 164.607 183.972 164.7C185.839 164.793 187.708 164.83 189.577 164.812C191.446 164.794 193.313 164.72 195.178 164.592C197.043 164.463 198.903 164.279 200.757 164.039C203.686 163.688 207.308 162.652 210.194 162.752C203.041 167.691 195.645 170.014 187.257 171.697C185.672 170.171 184.054 168.678 182.324 167.317C181.049 166.314 179.525 165.395 178.384 164.256Z" fill="#802E01"/>
<path d="M158.637 68.0205L158.715 68.083C158.555 68.3449 153.797 70.3552 153.162 70.6602C150.126 72.1193 147.128 73.823 144.288 75.6371C140.317 78.1733 136.33 81.1386 132.911 84.3871C130.83 86.3646 128.939 88.6496 126.703 90.4524C121.973 94.2664 116.602 97.2389 111.692 100.808L111.609 100.685C111.968 100.196 112.333 99.7098 112.703 99.2277C113.072 98.7456 113.447 98.2675 113.826 97.7933C114.206 97.3189 114.59 96.8485 114.98 96.3821C115.369 95.9158 115.763 95.4535 116.161 94.9952C116.56 94.5369 116.964 94.0828 117.372 93.633C117.78 93.183 118.193 92.7373 118.61 92.2958C119.027 91.8546 119.449 91.4176 119.875 90.9849C120.302 90.5522 120.732 90.1238 121.168 89.6999C121.603 89.2761 122.042 88.8569 122.486 88.4421C122.93 88.0275 123.378 87.6174 123.83 87.2118C124.282 86.8063 124.739 86.4056 125.2 86.0096C125.66 85.6133 126.125 85.222 126.593 84.8355C127.062 84.449 127.534 84.0675 128.011 83.6908C128.488 83.3142 128.968 82.9424 129.452 82.5755C129.936 82.2086 130.424 81.8469 130.916 81.4902C131.407 81.1333 131.903 80.7817 132.402 80.4352C132.901 80.0885 133.403 79.7472 133.909 79.4111C134.415 79.0749 134.924 78.7439 135.437 78.4183C135.95 78.0927 136.466 77.7724 136.985 77.4574C137.505 77.1424 138.027 76.8328 138.553 76.5286C139.079 76.2245 139.608 75.9257 140.14 75.6324C140.672 75.339 141.206 75.0512 141.744 74.7689C142.282 74.4867 142.823 74.21 143.367 73.9389C143.91 73.6679 144.456 73.4024 145.005 73.1424C145.555 72.8826 146.106 72.6285 146.661 72.3802C147.215 72.1317 147.772 71.8889 148.331 71.6521C148.89 71.4152 149.452 71.184 150.016 70.9586C150.58 70.7332 151.147 70.5137 151.715 70.3002C152.284 70.0864 152.855 69.8786 153.428 69.6768C154.001 69.4749 154.576 69.2789 155.153 69.0889C155.73 68.8989 156.308 68.7149 156.889 68.5368C157.47 68.3586 158.052 68.1865 158.637 68.0205Z" fill="#542C0E"/>
<path d="M202.259 114.609C208.049 118.342 213.468 123.136 218.732 127.576C216.717 127.658 214.7 127.863 212.686 127.992C207.386 128.705 201.563 128.277 196.271 127.687C199.438 122.836 200.968 120.337 202.259 114.609Z" fill="#001A91"/>
<path d="M233.922 136.211C236.978 136.379 240.246 137.251 243.219 137.942C257.227 141.195 271.448 146.354 283.349 154.561C282.274 154.352 281.057 153.609 280.043 153.157C278.097 152.289 276.13 151.424 274.114 150.732C263.821 147.193 252.544 145 241.632 145.233C239.352 142.068 236.717 138.93 233.922 136.211Z" fill="#802E01"/>
<path d="M216.625 103.971C219.951 103.722 223.419 103.865 226.75 104.041C229.098 104.146 231.442 104.316 233.78 104.552C236.119 104.787 238.45 105.087 240.772 105.452C243.094 105.818 245.405 106.247 247.703 106.741C250.001 107.234 252.284 107.791 254.551 108.412C256.445 108.926 258.294 109.332 260.134 110.034L260.137 110.002L259.953 110.149L260.053 109.883L259.647 110.1L259.756 110.123L259.911 109.739L259.539 110.074C255.448 108.691 250.575 108.38 246.288 108.001C237.029 107.576 227.97 108.184 218.797 109.468C214.879 110.016 210.932 110.605 207.128 111.713C206.146 110.914 205.216 110.061 204.282 109.209C205.824 107.749 207.152 106.275 208.412 104.561C211.13 104.524 213.902 104.132 216.625 103.971Z" fill="#802E01"/>
<path d="M192.386 99.04C195.971 103.313 198.114 108.343 197.617 113.983C197.2 118.726 195.278 123.19 192.902 127.263C188.448 126.74 182.934 125.667 178.832 123.871C181.015 123.444 183.722 123.077 185.494 121.61C186.811 120.52 187.714 118.924 188.45 117.407C191.307 111.525 191.859 105.434 192.386 99.04Z" fill="#802E01"/>
<path d="M264.168 183.015C266.004 183.48 267.831 184.11 269.644 184.663C277.854 187.165 286.142 190.164 293.477 194.691C294.486 195.314 296.035 196.14 296.729 197.122C296.879 197.336 296.91 197.382 296.862 197.642L296.121 197.66C285.559 195.959 280.152 196.232 269.53 197.5C268.16 192.554 266.122 187.756 264.168 183.015Z" fill="#1A0E02"/>
<path d="M67.503 200.37C72.3317 194.717 77.2445 189.279 82.6617 184.178C85.1417 181.842 87.6583 179.536 90.3739 177.473C101.417 169.089 114.459 164.561 127.88 161.688C130.424 161.143 137.263 159.681 139.532 159.749C134.908 162.102 131.635 162.503 126.733 163.675C124.039 164.319 121.35 165.131 118.732 166.035C114.974 167.332 111.174 168.8 107.607 170.561C105.035 171.832 102.586 173.348 100.135 174.834C91.3377 180.169 82.9873 186.333 75.7789 193.715C72.787 196.779 70.2895 200.228 67.4686 203.431C61.0848 200.209 46.7808 193.579 39.7283 195.854C37.3005 196.638 35.1948 198.159 33.3102 199.84L32.6211 198.098C34.6014 197.06 36.3505 195.642 38.4061 194.713C40.937 193.568 44.027 193.084 46.7892 193.345C52.2602 193.861 62.0598 198.281 67.503 200.37Z" fill="#802E01"/>
<path d="M158.705 27.0649C158.648 27.5957 158.273 27.8741 157.919 28.2311C154.437 31.7365 150.804 35.1815 147.6 38.9456C139.274 48.7237 130.298 63.7477 125.058 75.6024C120.898 75.2209 116.97 76.1815 112.98 77.2071C114.042 75.0115 115.36 72.9143 116.613 70.8246C125.35 56.2581 137.209 43.5146 150.526 33.0318C153.155 30.9628 155.815 28.7616 158.705 27.0649Z" fill="#CCDCFD"/>
<path d="M238.236 33.7722C238.778 34.011 238.861 34.1419 239.211 34.5966C235.392 37.9013 231.512 41.2003 227.954 44.7847C223.732 49.0369 219.841 53.6003 215.562 57.8003C213.771 59.3078 211.9 60.715 209.81 61.7891C207.224 63.1178 204.627 63.9832 201.985 65.4735C193.887 70.0435 187.163 76.3344 180.772 83.0103C177.81 82.1663 174.868 81.49 171.839 80.9269C179.573 74.3422 187.45 67.8425 196.522 63.1525C198.773 62.0048 201.067 60.9525 203.405 59.9957C205.193 59.2732 207.427 58.7422 209.011 57.6497C210.197 56.8307 211.208 55.5303 212.241 54.5057C213.934 52.8223 215.665 51.178 217.433 49.5728C220.66 46.6374 224.011 43.8503 227.485 41.2116C230.959 38.5731 234.542 36.0933 238.236 33.7722Z" fill="#CCDCFD"/>
<path d="M243.763 147.107C255.533 146.947 269.512 150.407 280.445 154.713C284.05 156.132 287.514 157.39 290.413 160.067C288.426 159.999 286.389 159.645 284.413 159.404C274.102 158.653 264.845 161.428 255.504 165.499C253.213 161.124 250.34 156.743 247.409 152.771C246.666 151.763 243.611 148.229 243.399 147.225L243.763 147.107Z" fill="#1A0E02"/>
<path d="M141.065 208.441C143.655 207.331 146.144 205.982 148.699 204.795C151.463 203.511 154.309 202.396 157.149 201.292C168.292 196.962 183.522 193.168 195.463 195.294C198.074 195.759 200.499 196.573 202.92 197.639L203.867 201.008C194.888 198.368 187.233 199.064 178.415 201.752C176.48 202.342 174.572 203.311 172.618 203.779C171.676 208.436 170.369 211.888 168.082 216.025C166.76 215.631 165.457 215.127 164.154 214.672C167.605 211.819 170.346 207.958 172.111 203.86L172.673 201.87C169.27 206.831 163.671 210.136 158.212 212.429C155.408 211.553 152.575 210.782 149.713 210.116C146.851 209.451 143.969 208.892 141.065 208.441Z" fill="#001A91"/>
<path d="M180.772 83.0103C187.163 76.3344 193.887 70.0434 201.985 65.4734C204.627 63.9831 207.224 63.1178 209.81 61.789C211.9 60.715 213.771 59.3078 215.562 57.8003C215.56 59.8519 213.876 62.6403 212.976 64.5C208.792 73.1456 202.327 85.134 195.584 91.8925C191.141 87.9734 186.42 84.9112 180.772 83.0103Z" fill="#1A68F8"/>
<path d="M158.705 27.0649C160.376 25.761 162.254 24.4935 164.133 23.5012C155.792 33.2543 149.157 44.2633 146.429 56.8968C145.743 60.0715 145.184 63.3512 145.427 66.6074C145.494 67.503 145.616 68.4252 145.824 69.3002C143.169 70.5605 140.516 71.7712 137.974 73.2512C136.009 74.3952 134.152 75.7455 132.179 76.8602C129.858 76.199 127.48 75.6783 125.058 75.6024C130.298 63.7477 139.274 48.7237 147.599 38.9455C150.804 35.1815 154.437 31.7365 157.919 28.2311C158.273 27.8741 158.648 27.5956 158.705 27.0649Z" fill="#024ADC"/>
<path d="M244.02 30.2496C244.839 29.5577 245.838 29.0612 246.78 28.5554C244.845 30.7403 242.876 32.9257 241.092 35.2379C234.362 43.9667 229.273 53.902 224.927 63.9832C221.734 71.3914 218.94 78.872 214.966 85.9276C211.601 91.9004 207.327 97.3817 202.945 102.632C201.16 98.5095 198.775 95.0532 195.584 91.8926C202.327 85.1342 208.792 73.1457 212.976 64.5001C213.876 62.6404 215.56 59.852 215.563 57.8004C219.841 53.6004 223.732 49.037 227.954 44.7848C231.513 41.2004 235.392 37.9014 239.211 34.5967C238.861 34.142 238.778 34.011 238.236 33.7723C239.845 32.3807 242.175 31.3085 244.02 30.2496Z" fill="#024ADC"/>
<path d="M244.02 30.2495L244.088 30.3946L243.794 30.7059L243.646 30.6066L243.655 30.8229C242.19 32.0997 240.708 33.3576 239.211 34.5966C238.861 34.1419 238.778 34.0109 238.236 33.7722C239.845 32.3806 242.174 31.3084 244.02 30.2495Z" fill="#FDFEFD"/>
<path d="M193.437 178.466C194.812 178.414 196.436 179.094 197.694 179.618C202.683 181.695 207.007 184.607 210.959 188.27C212.511 189.709 214.038 191.219 215.444 192.802C210.384 203.22 202.425 216.621 193.763 224.392C187.773 222.558 181.808 220.648 175.868 218.659C173.288 217.797 170.607 217.028 168.082 216.025C170.369 211.888 171.676 208.437 172.618 203.779C174.572 203.312 176.48 202.342 178.415 201.752C187.233 199.064 194.888 198.368 203.867 201.008L202.92 197.639C202.676 196.777 202.412 195.92 202.128 195.07C201.844 194.22 201.542 193.376 201.219 192.54C200.897 191.703 200.556 190.875 200.195 190.054C199.835 189.233 199.456 188.421 199.059 187.617C198.661 186.814 198.246 186.02 197.812 185.235C197.378 184.451 196.927 183.677 196.457 182.913C195.988 182.149 195.502 181.396 194.998 180.655C194.494 179.914 193.974 179.184 193.437 178.466Z" fill="#024ADC"/>
<path d="M219.418 128.114C221.636 130.068 224.004 132.272 225.918 134.521C226.406 139.224 226.309 144.051 226.078 148.768C225.451 161.584 223.318 172.657 218.858 184.694C217.908 187.257 216.93 190.493 215.443 192.802C214.038 191.219 212.511 189.709 210.958 188.27C207.007 184.606 202.682 181.695 197.693 179.618C196.436 179.094 194.812 178.414 193.436 178.466C192.612 177.595 191.835 176.677 191.048 175.771C200.697 173.192 210.764 168.172 217.68 160.833C210.707 159.544 202.409 155.685 196.771 151.326C207.13 145.137 213.512 138.563 219.418 128.114Z" fill="#001A91"/>
<path d="M237.257 230.406C237.628 229.914 237.994 229.419 238.354 228.919C238.715 228.42 239.07 227.917 239.42 227.41C239.769 226.903 240.114 226.392 240.452 225.878C240.791 225.364 241.124 224.846 241.452 224.324C241.78 223.803 242.102 223.278 242.418 222.75C242.735 222.222 243.046 221.69 243.351 221.155C243.656 220.62 243.956 220.082 244.249 219.541C244.543 218.999 244.831 218.455 245.112 217.907C245.395 217.36 245.671 216.809 245.941 216.256C246.211 215.703 246.475 215.146 246.734 214.587C246.992 214.028 247.245 213.467 247.491 212.902C247.737 212.338 247.978 211.771 248.212 211.201C248.446 210.632 248.674 210.06 248.896 209.485C249.118 208.911 249.334 208.334 249.544 207.755C249.754 207.176 249.957 206.595 250.154 206.011C250.352 205.428 250.543 204.843 250.727 204.255C250.912 203.668 251.091 203.078 251.263 202.487C251.435 201.895 251.601 201.302 251.76 200.707C251.92 200.113 252.073 199.516 252.22 198.918C252.366 198.32 252.507 197.72 252.641 197.119C252.775 196.518 252.902 195.916 253.023 195.312C253.144 194.708 253.259 194.103 253.367 193.497C253.475 192.89 253.577 192.283 253.672 191.674C253.767 191.066 253.856 190.457 253.938 189.846C254.02 189.236 254.096 188.625 254.165 188.013C254.234 187.401 254.296 186.788 254.352 186.175C254.408 185.562 254.458 184.948 254.501 184.333C254.544 183.719 254.58 183.104 254.609 182.489C254.639 181.874 254.662 181.259 254.679 180.643C254.696 180.027 254.705 179.412 254.709 178.796C254.712 178.18 254.709 177.564 254.7 176.948C254.69 176.333 254.674 175.717 254.651 175.102C258.956 183.903 268.26 205.868 268.2 215.209C268.192 216.406 267.85 217.554 267.465 218.677C262.523 233.093 248.329 253.229 237.128 263.536C237.329 261.052 238.083 258.545 238.384 256.052C239.447 247.248 238.968 239.093 237.257 230.406Z" fill="#001A91"/>
<path d="M237.257 230.406C238.968 239.093 239.447 247.248 238.384 256.051C238.083 258.545 237.329 261.051 237.128 263.536C233.671 267.049 229.561 270.227 225.589 273.131C222.799 275.182 219.951 277.146 217.042 279.024C214.134 280.901 211.171 282.689 208.154 284.387C205.137 286.085 202.071 287.689 198.956 289.201C195.842 290.712 192.685 292.128 189.484 293.447C190.388 290.765 191.369 288.101 192.157 285.381C195.062 275.347 195.909 265.437 195.461 255.031C197.921 256.559 200.433 257.995 202.999 259.339C216.648 252.509 227.748 242.247 237.257 230.406Z" fill="#024ADC"/>
<path d="M218.337 194.838C220.832 197.271 223.021 200.183 225.005 203.043C230.14 210.445 233.301 216.864 236.194 225.363C228.733 236.136 218.548 246.644 207.043 253.099C205.944 253.716 204.236 255.032 202.989 255.187C202.726 255.22 202.675 255.066 202.498 254.9C200.125 250.567 198.259 245.885 196.046 241.46C194.486 238.342 192.897 235.077 191.133 232.075C190.026 230.192 188.724 228.429 187.622 226.544C189.524 226.487 191.779 226.626 193.588 225.995C194.966 225.516 196.141 223.899 197.188 222.924C198.267 221.922 199.323 220.896 200.356 219.846C201.39 218.797 202.4 217.725 203.386 216.631C204.372 215.537 205.334 214.422 206.271 213.286C207.208 212.15 208.119 210.993 209.005 209.817C209.891 208.64 210.751 207.445 211.584 206.23C212.417 205.016 213.223 203.783 214.002 202.533C214.781 201.283 215.531 200.017 216.255 198.733C216.977 197.45 217.672 196.152 218.337 194.838Z" fill="#024ADC"/>
<path d="M94.782 250.356C96.0436 246.743 96.6948 242.696 96.7245 238.863C96.7407 236.728 96.5689 234.508 96.8936 232.395C97.0161 231.597 97.2264 230.76 97.6407 230.06C98.7342 228.215 100.854 226.208 102.282 224.564C106.683 219.498 111.002 214.317 115.885 209.701C118.688 207.081 121.627 204.625 124.704 202.333C140.251 190.847 163.352 182.692 182.776 186.506C186.862 187.308 191.197 188.666 194.901 190.577C195.617 190.947 196.78 191.767 197.566 191.852C197.637 191.86 197.708 191.864 197.778 191.869C198.076 192.399 198.348 192.929 198.598 193.483C183.894 190.35 168.75 193.439 154.793 198.293C147.099 200.969 139.631 204.229 132.781 208.674C121.621 215.915 112.259 226.488 104.627 237.284C103.134 234.298 101.477 231.368 98.5151 229.627C98.9611 230.436 99.1661 230.951 99.267 231.884C99.4273 233.37 100.26 234.989 100.744 236.41C101.178 237.684 101.46 239.007 101.661 240.337C103.373 251.648 98.5992 262.948 92.0286 271.905C92.4223 263.947 91.9957 257.492 88.4745 250.196C84.6907 261.644 80.3926 269.487 71.0829 277.355C68.8579 279.236 66.3873 281.223 63.8389 282.636C64.3757 280.919 64.8532 279.209 65.2192 277.447C65.4895 276.143 65.6476 274.725 66.0526 273.461C67.0501 272.356 67.7332 270.774 68.3539 269.434C68.7789 268.519 69.1745 267.592 69.5407 266.652C69.9072 265.712 70.2438 264.761 70.5504 263.8C70.8569 262.839 71.1328 261.869 71.3782 260.891C71.6235 259.912 71.8377 258.927 72.0211 257.935C72.8379 253.67 73.2929 249.565 74.6173 245.4C77.4136 247.884 78.5017 248.272 79.9795 252.067C81.0501 249.428 82.7754 247.505 84.4282 245.24C85.812 243.344 87.1486 241.428 88.5882 239.572C91.7382 242.786 93.2936 246.178 94.782 250.356Z" fill="#802E01"/>
<path d="M226.404 134.77C229.224 138.627 232.72 142.032 235.711 145.772C237.528 148.039 239.286 150.351 240.986 152.707C242.685 155.064 244.324 157.462 245.902 159.901C247.481 162.34 248.996 164.818 250.45 167.333C251.903 169.849 253.291 172.4 254.615 174.986C254.603 175.042 254.591 175.097 254.579 175.153C254.33 176.386 254.33 177.657 254.196 178.907C253.962 181.067 253.63 183.211 253.201 185.341C250.78 197.401 246.694 208.769 240.284 219.305C239.071 221.3 237.758 223.633 236.194 225.362C233.301 216.864 230.14 210.445 225.005 203.042C223.021 200.183 220.832 197.271 218.337 194.838C227.19 176.447 230.473 154.878 226.404 134.77Z" fill="#001A91"/>
<path d="M161.09 86.3342C163.215 85.9979 165.352 85.9517 167.498 86.1126C177.372 86.852 185.983 91.6129 192.386 99.0401C191.859 105.434 191.307 111.525 188.451 117.407C187.714 118.924 186.811 120.52 185.494 121.61C183.722 123.077 181.016 123.444 178.832 123.871C177.635 123.567 176.491 122.933 175.375 122.405C185.644 130.174 197.978 132.565 210.569 130.845C211.61 130.703 213.267 130.128 214.261 130.311C214.125 130.616 214.217 130.514 214.04 130.661C213.808 130.71 213.606 130.744 213.401 130.872C212.412 131.488 211.509 132.383 210.551 133.067C208.132 134.794 205.558 136.452 203.002 137.971C201.933 138.605 200.839 139.191 199.721 139.732C198.602 140.272 197.462 140.764 196.301 141.208C195.141 141.651 193.963 142.044 192.769 142.388C191.575 142.731 190.369 143.023 189.15 143.264C187.598 143.558 185.628 144.1 184.166 143.348C184.277 143.639 184.33 143.776 184.591 143.955C189.495 151.268 198.174 156.773 206.239 160.063C208.068 160.809 209.952 161.368 211.826 161.988L210.194 162.752C207.308 162.652 203.686 163.688 200.757 164.039C198.903 164.279 197.043 164.463 195.178 164.592C193.313 164.72 191.446 164.794 189.577 164.812C187.708 164.83 185.84 164.793 183.973 164.7C182.105 164.607 180.243 164.459 178.384 164.256C177.056 163.433 175.737 162.542 174.361 161.802C183.515 170.594 192.423 180.219 197.778 191.869C197.708 191.864 197.637 191.86 197.566 191.853C196.78 191.767 195.617 190.947 194.901 190.577C191.197 188.666 186.862 187.309 182.776 186.506C163.352 182.692 140.251 190.847 124.703 202.333C121.627 204.625 118.687 207.081 115.885 209.701C111.002 214.317 106.683 219.498 102.282 224.564C100.853 226.208 98.7341 228.215 97.6407 230.06C97.2263 230.76 97.016 231.597 96.8935 232.395C96.5688 234.508 96.7407 236.728 96.7244 238.864C96.6947 242.696 96.0435 246.743 94.7819 250.356C93.2935 246.178 91.7382 242.786 88.5882 239.572C87.1485 241.428 85.8119 243.344 84.4282 245.24C82.7754 247.505 81.0501 249.428 79.9794 252.067C78.5016 248.272 77.4135 247.884 74.6172 245.4C73.2929 249.565 72.8379 253.67 72.021 257.935C71.8377 258.927 71.6234 259.912 71.3782 260.891C71.1328 261.869 70.8568 262.839 70.5504 263.8C70.2437 264.761 69.9071 265.712 69.5407 266.652C69.1744 267.592 68.7788 268.519 68.3538 269.434C67.7332 270.774 67.0501 272.356 66.0526 273.461C66.93 267.129 66.7066 260.854 64.9616 254.674C64.5191 253.106 62.7285 246.959 61.3622 246.434C60.6507 246.16 56.4335 249.284 55.5451 249.831C56.2207 248.129 56.9029 246.423 57.3844 244.654C57.8694 242.873 58.1926 240.972 58.8472 239.247C59.5257 239.979 60.216 240.662 61.1122 241.124C62.0885 241.627 63.1297 241.82 64.2235 241.804C66.9726 241.764 69.7572 240.953 72.4791 240.568C75.8188 240.097 79.8544 240.079 83.0288 239.084C86.2054 238.087 88.8001 235.169 90.886 232.712C93.8797 229.185 96.3426 225.321 98.8682 221.459L106.972 209.078C111.545 202.138 116.539 195.472 121.059 188.505C124.205 183.657 126.939 178.431 130.738 174.043C138.024 165.627 152.113 163.914 157.398 156.782C159.687 153.694 160.418 148.074 161.654 144.322C163.222 139.568 164.973 134.828 167.283 130.379C165.782 132.103 164.344 133.877 162.971 135.704C161.597 137.531 160.291 139.404 159.052 141.325C158.046 142.916 157.088 144.536 156.179 146.185C154.712 148.896 153.43 152.181 151.032 154.221C147.873 156.91 143.404 158.375 139.532 159.749C137.263 159.681 130.423 161.144 127.88 161.688C114.459 164.561 101.417 169.089 90.3738 177.474C87.6582 179.536 85.1416 181.842 82.6616 184.178C77.2444 189.279 72.3316 194.717 67.5029 200.37C62.0597 198.281 52.2601 193.861 46.7891 193.345C44.0269 193.084 40.9369 193.569 38.406 194.713C36.3504 195.642 34.6013 197.06 32.621 198.098C29.1187 189.567 29.2926 179.512 31.6619 170.682C32.9119 172.781 33.5885 175.368 34.4326 177.653C35.3454 180.124 36.4041 182.441 37.6504 184.76C37.3889 183.576 37.1526 182.386 36.9413 181.192C35.9944 175.809 35.8554 170.204 36.8679 164.823C37.0679 163.758 37.216 162.579 37.851 161.676C39.3916 160.866 48.5757 162.297 50.826 162.607C48.7688 161.552 46.7363 160.439 44.6935 159.356C45.8112 158.908 46.9047 158.408 47.9741 157.854C56.6651 153.284 64.4291 145.196 71.2576 138.27C72.1788 137.335 73.2416 136.596 74.2391 135.752C74.5052 135.527 74.7638 135.295 75.0151 135.054C75.2661 134.814 75.5091 134.565 75.7441 134.309C75.9791 134.052 76.2056 133.788 76.4235 133.517C76.6416 133.246 76.8507 132.968 77.0507 132.684C77.2507 132.399 77.4413 132.108 77.6226 131.811C77.8038 131.514 77.9753 131.212 78.1369 130.904C78.2986 130.596 78.4502 130.283 78.5916 129.965C78.7331 129.647 78.8641 129.325 78.9847 128.999C81.0341 123.375 80.4891 116.981 82.3401 111.069C79.2163 116.643 78.1854 122.226 75.3438 127.658C71.1888 124.643 67.5132 119.229 65.7166 114.453C65.2301 113.16 64.6641 111.318 65.3307 110.008C65.7022 109.277 66.7732 108.708 67.4832 108.323C71.446 106.175 75.8497 104.528 79.9807 102.691C83.2301 101.246 86.5469 99.4107 89.9397 98.3635C88.7182 101.011 87.3329 103.585 86.2176 106.283C85.4316 108.184 84.8207 110.18 84.1682 112.131C94.5844 99.9638 104.72 92.961 119.782 87.4507C113.694 93.5004 108.904 100.434 104.095 107.494C107.051 105.694 109.918 103.742 112.88 101.946C124.115 95.1345 136.346 89.1201 149.612 87.951C153.841 87.5782 158.071 87.9176 162.306 87.8551C161.868 87.3776 161.485 86.8467 161.09 86.3342Z" fill="#EB6F0A"/>
<path d="M127.974 152.41C130.994 152.258 133.911 152.719 136.879 153.202C133.692 153.308 130.572 153.806 127.444 154.393C116.698 156.411 106.561 160.294 97.3998 166.279C95.571 167.475 93.8807 168.854 92.2051 170.252C93.086 169.088 93.9904 167.934 94.9613 166.843C103.338 157.436 115.679 153.141 127.974 152.41Z" fill="#020101"/>
<path d="M54.8174 186.416C55.0574 185.503 55.3303 184.599 55.6361 183.705C55.942 182.811 56.2801 181.929 56.6505 181.06C57.0207 180.191 57.4222 179.336 57.8549 178.497C58.2876 177.657 58.7503 176.834 59.243 176.028C61.4533 172.397 64.8208 167.954 69.1896 166.913C70.5321 166.593 72.4021 166.319 73.6089 167.126C74.238 167.547 74.5768 168.178 74.7018 168.914C75.283 172.334 72.7533 176.949 70.8183 179.567L71.6561 176.526L71.4599 176.312C67.2536 176.626 59.9777 181.724 56.4077 184.333C55.7293 184.911 55.2846 185.671 54.8174 186.416Z" fill="#020101"/>
<path d="M56.4077 184.333C56.6837 181.919 63.4568 174.279 65.4046 172.675C66.7533 171.565 69.4149 169.445 71.2415 169.624C71.5133 169.795 71.6427 169.826 71.8015 170.119C72.3877 171.197 72.0052 175.33 71.6562 176.526L71.4599 176.312C67.2536 176.626 59.9777 181.724 56.4077 184.333Z" fill="#802E01"/>
<path d="M100.055 144.379L100.14 144.401L100.186 144.521C91.858 148.858 84.4559 156.07 76.6524 161.393C77.664 161.397 79.3815 161.316 80.254 161.833C80.6968 162.095 80.9227 162.508 81.0599 162.988C82.0715 166.532 79.7509 173.462 77.9318 176.544C78.3799 172.712 78.0652 168.712 77.9534 164.859C73.4171 164.178 68.4599 164.598 63.8809 164.699C62.7737 165.944 61.7034 167.225 60.619 168.491C57.9637 171.598 55.3652 174.829 52.9199 178.104C54.5943 173.975 58.6818 164.363 62.1624 161.561C63.5668 161.271 65.0546 161.21 66.4821 161.073C68.929 160.838 71.3671 160.596 73.8015 160.25C83.7009 152.388 88.0949 149.014 100.055 144.379Z" fill="#020101"/>
<path d="M156.518 102.412C162.136 102.263 167.906 102.969 173.468 103.692C167.193 105.285 155.889 107.765 152.208 113.453C152.073 116.105 151.946 118.694 151.35 121.293C150.049 126.97 146.904 133.047 141.818 136.192C141.486 136.395 141.149 136.589 140.806 136.774C140.464 136.958 140.117 137.134 139.765 137.3C139.414 137.467 139.058 137.624 138.698 137.772C138.338 137.919 137.974 138.057 137.607 138.185C137.24 138.314 136.869 138.433 136.496 138.541C136.122 138.65 135.746 138.749 135.367 138.838C134.988 138.927 134.608 139.005 134.224 139.074C133.842 139.143 133.457 139.201 133.071 139.249C127.569 139.89 120.558 138.843 114.89 138.631C108.477 138.391 98.0904 138.906 92.1819 137.49C89.2935 136.798 87.1654 135.629 85.5929 133.033C85.5588 132.955 85.5238 132.879 85.4907 132.801C84.1522 129.652 84.7729 127.116 85.9925 124.08C85.805 125.712 85.6854 127.355 86.0116 128.978C86.4979 131.394 87.7375 132.954 89.7454 134.282C89.5566 133.812 89.3685 133.339 89.2126 132.857C87.8038 128.5 89.2554 124.584 91.2525 120.667C91.2194 123.94 91.0638 129.197 93.6444 131.684C95.4475 133.422 98.5179 133.039 100.74 132.468C111.401 129.728 119.793 122.129 127.948 115.196C131.513 112.165 135.249 109.029 139.359 106.762C144.823 103.748 150.359 102.711 156.518 102.412Z" fill="#020101"/>
<path d="M135.3 117.18C138.56 115.433 141.986 114.351 145.477 113.175C145.617 114.647 145.658 116.103 145.681 117.579C142.66 118.118 139.659 118.741 136.626 119.211C136.232 118.466 135.839 117.835 135.3 117.18Z" fill="#FDFEFD"/>
<path d="M145.681 117.579C145.33 122.776 143.975 128.162 139.885 131.715C136.329 134.804 131.582 134.889 127.106 134.545C123.469 134.265 120.441 132.546 118.049 129.825C121.054 127.477 124.025 124.97 127.15 122.79C127.557 124.564 128.097 126.385 129.766 127.386C130.7 127.945 131.768 128.052 132.808 127.748C134.257 127.325 135.478 126.218 136.168 124.891C137.122 123.059 137.027 121.164 136.626 119.211C139.659 118.741 142.66 118.118 145.681 117.579Z" fill="#EB6F0A"/>
</svg>
