<svg width="28" height="28" viewBox="0 0 28 28" fill="none" xmlns="http://www.w3.org/2000/svg">
<path d="M14 15.8667L8.19585 21.6417C7.94307 21.8945 7.63196 22.0258 7.26251 22.0355C6.89307 22.0452 6.59168 21.914 6.35835 21.6417C6.08612 21.389 5.95001 21.0827 5.95001 20.723C5.95001 20.3633 6.08612 20.0473 6.35835 19.7751L12.1625 14.0001L6.35835 8.1959C6.08612 7.94312 5.95001 7.63687 5.95001 7.27715C5.95001 6.91743 6.08612 6.60146 6.35835 6.32923C6.59168 6.07646 6.89307 5.95493 7.26251 5.96465C7.63196 5.97437 7.94307 6.10562 8.19585 6.3584L14 12.1334L19.8042 6.3584C20.057 6.10562 20.3681 5.97437 20.7375 5.96465C21.107 5.95493 21.4083 6.07646 21.6417 6.32923C21.9139 6.60146 22.05 6.91743 22.05 7.27715C22.05 7.63687 21.9236 7.94312 21.6708 8.1959L15.8667 14.0001L21.6708 19.7751C21.9236 20.0473 22.05 20.3633 22.05 20.723C22.05 21.0827 21.9139 21.389 21.6417 21.6417C21.4083 21.914 21.107 22.0452 20.7375 22.0355C20.3681 22.0258 20.057 21.8945 19.8042 21.6417L14 15.8667Z" fill="white"/>
</svg>
