<svg width="320" height="320" viewBox="0 0 320 320" fill="none" xmlns="http://www.w3.org/2000/svg">
<path d="M159.812 17.5972C160.86 18.3249 168.007 33.6203 169.049 35.9719C178.301 36.9438 189.028 40.9419 197.214 45.33C197.794 45.634 198.371 45.9442 198.944 46.2606C199.517 46.5771 200.087 46.8997 200.654 47.2284C201.22 47.5574 201.783 47.8924 202.342 48.2334C202.901 48.5745 203.456 48.9216 204.008 49.2747C204.559 49.6278 205.107 49.9869 205.651 50.3519C206.195 50.7169 206.734 51.0877 207.27 51.4644C207.806 51.8411 208.337 52.2236 208.865 52.6119C209.392 53.0002 209.915 53.3942 210.434 53.7938C210.953 54.1933 211.468 54.5986 211.978 55.0094C212.488 55.4202 212.993 55.8365 213.494 56.2581C213.995 56.68 214.492 57.1072 214.984 57.5397C215.475 57.9722 215.962 58.41 216.445 58.8531C216.927 59.2963 217.404 59.7446 217.877 60.1981C218.349 60.6515 218.817 61.11 219.279 61.5738C219.742 62.0373 220.2 62.5058 220.652 62.9794C221.104 63.4529 221.552 63.9314 221.993 64.4147C222.436 64.898 222.872 65.3861 223.304 65.8788C223.735 66.3715 224.161 66.8689 224.582 67.371C225.002 67.873 225.417 68.3795 225.827 68.8903C226.237 69.4014 226.641 69.9168 227.039 70.4366C227.437 70.9564 227.83 71.4804 228.217 72.0088C228.604 72.5371 228.986 73.0696 229.361 73.6063C229.737 74.1427 230.106 74.6832 230.47 75.2278C230.834 75.7726 231.192 76.3212 231.543 76.8734C231.895 77.4257 232.241 77.9819 232.581 78.5419C232.92 79.1017 233.254 79.6652 233.582 80.2325C233.909 80.7996 234.231 81.3702 234.546 81.9444C234.861 82.5183 235.17 83.0957 235.472 83.6766C235.775 84.2574 236.071 84.8415 236.361 85.4288C236.651 86.0161 236.935 86.6064 237.212 87.1997C237.489 87.7932 237.76 88.3896 238.024 88.9888C238.288 89.5881 238.546 90.1902 238.797 90.795C239.971 93.6872 240.834 96.6897 241.733 99.6753C248.897 94.1225 255.96 87.4341 260.369 79.4372C259.903 82.8841 259.1 86.2738 258.216 89.6341C255.317 100.658 251.081 109.32 244.832 118.821L244.813 142.911C244.806 145.957 244.458 150.749 244.763 153.563C244.967 155.453 246.282 157.409 247.11 159.121C248.403 161.795 249.925 164.784 250.648 167.673C251.088 169.428 250.767 175.133 250.761 177.298L250.8 197.586C247.77 200.655 244.175 203.277 240.861 206.038C242.902 208.963 245.766 211.806 248.134 214.498C254.251 221.451 260.689 228.282 266.376 235.587C266.316 235.696 266.255 235.803 266.192 235.91C262.251 242.491 255.267 249.913 249.863 255.38C248.811 256.459 247.743 257.521 246.659 258.568C245.575 259.615 244.476 260.645 243.361 261.659C242.247 262.674 241.117 263.671 239.973 264.652C238.829 265.632 237.67 266.595 236.497 267.541C235.324 268.487 234.137 269.416 232.937 270.327C231.736 271.237 230.523 272.13 229.296 273.005C228.069 273.879 226.829 274.736 225.576 275.573C224.324 276.411 223.059 277.23 221.782 278.03C220.505 278.831 219.217 279.612 217.917 280.373C216.616 281.135 215.305 281.878 213.983 282.6C212.661 283.323 211.328 284.026 209.985 284.71C208.642 285.393 207.289 286.056 205.926 286.699C204.563 287.342 203.191 287.965 201.81 288.567C200.428 289.169 199.038 289.75 197.64 290.311C196.241 290.872 194.834 291.412 193.42 291.931C192.005 292.45 190.583 292.948 189.153 293.424C179.921 296.531 170.496 298.791 161.055 301.14C159.437 301.589 157.612 300.908 156.014 300.521C147.154 298.468 138.423 295.962 129.822 293.002C106.275 284.653 84.2831 271.303 67.3134 252.836C62.3816 247.469 57.5816 241.756 53.7791 235.521C54.9909 234.347 56.0719 232.996 57.1856 231.726L63.4166 224.584L79.5094 206.431C76.4644 203.239 72.7137 200.749 69.5291 197.694C69.3803 190.178 69.4872 182.64 69.4887 175.123C69.4894 172.708 69.1506 166.974 69.6666 164.919C70.605 161.182 74.9606 157.751 75.4256 153.854C75.7731 150.944 75.4531 146.291 75.4544 143.191L75.4822 119.236C68.7028 109.623 64.5975 99.085 61.6647 87.7566C61.0387 85.3388 60.1119 82.6216 60.069 80.1185C63.984 88.2185 70.7222 94.3803 77.8425 99.6441C81.6578 89.0831 85.1634 80.8297 91.7741 71.6188C105.835 52.0278 127.314 39.7378 150.93 35.8716C153.495 29.5794 157.05 23.7846 159.812 17.5972Z" fill="black"/>
<path d="M201.181 145.934C201.417 145.942 201.292 145.908 201.532 146.1C201.831 148.657 201.581 151.487 201.582 154.078C201.551 159.968 201.571 165.858 201.641 171.748C198.627 173.487 195.332 175.1 192.07 176.317C191.889 176.13 191.86 175.932 191.841 175.677C191.646 173.018 191.835 170.209 191.832 167.535L191.777 150.058C194.947 148.765 198.082 147.39 201.181 145.934Z" fill="#FBC101"/>
<path d="M118.555 145.95C121.6 147.006 125.501 148.989 128.588 150.312V176.799C125.217 175.399 121.865 173.954 118.532 172.464C118.45 163.629 118.514 154.785 118.555 145.95Z" fill="#FBC101"/>
<path d="M233.404 128.472C233.867 130.02 233.572 135.304 233.576 137.124L233.631 155.197C225.341 163.994 208.769 174.038 197.73 179.127C193.671 180.999 189.483 182.517 185.288 184.049C185.179 190.735 185.298 197.445 185.304 204.134L185.254 242.914C184.544 243.444 183.841 243.983 183.145 244.532C182.717 243.53 182.983 188.234 182.987 182.269C186.664 180.722 190.471 179.509 194.127 177.897C207.514 171.991 221.178 163.661 231.78 153.51C232.072 145.686 231.837 137.778 231.833 129.945L233.404 128.472Z" fill="#FEFEFE"/>
<path d="M86.4163 128.032C87.0248 128.342 87.5723 128.812 88.1179 129.222L88.1532 152.503C97.046 163.557 110.381 171.458 123.279 176.944C127.951 178.932 132.742 180.574 137.515 182.296L137.496 225.38L137.501 238.254C137.501 240.505 137.686 242.939 137.365 245.162C136.549 244.543 135.777 243.847 134.994 243.186L134.923 183.991C128.457 181.957 122.307 179.449 116.199 176.51C104.972 171.108 95.0766 164.626 86.4623 155.566C86.2851 146.4 86.4051 137.202 86.4163 128.032Z" fill="#FEFEFE"/>
<path d="M84.5863 210.759C85.5116 211.482 86.4113 212.243 87.3213 212.985C84.9419 217.607 82.6666 222.279 80.2404 226.876C77.7813 231.536 75.1022 236.207 73.0013 241.037C77.9519 246.488 82.4872 252.319 87.4347 257.783C90.0539 260.647 92.6989 263.486 95.3697 266.302C96.6022 267.583 99.3022 269.933 100.151 271.357C98.1575 270.336 96.2263 268.785 94.3838 267.491C93.1082 266.609 91.8478 265.705 90.6028 264.78C89.3581 263.854 88.1293 262.908 86.9166 261.94C85.7041 260.973 84.5084 259.985 83.3294 258.977C82.1502 257.969 80.9887 256.941 79.8447 255.894C78.7008 254.846 77.575 253.779 76.4675 252.693C75.3598 251.607 74.271 250.502 73.201 249.379C72.1312 248.256 71.0807 247.115 70.0494 245.956C69.0184 244.798 68.0073 243.621 67.0163 242.428C65.3475 240.398 63.6238 238.336 62.1963 236.126L76.5175 220.01C79.2163 216.936 81.7747 213.733 84.5863 210.759Z" fill="#FEFEFE"/>
<path d="M167.358 158.929C167.525 158.944 167.411 158.925 167.679 159.063C168.049 161.675 167.802 165.747 167.814 168.472L167.897 189.184L167.858 231.386C167.859 240.606 168.045 249.841 167.846 259.059C170.82 257.107 173.645 254.759 176.515 252.645L197.805 236.744C200.756 234.538 203.643 232.227 206.658 230.107C203.949 233.443 200.683 236.503 197.627 239.522C189.328 247.695 180.797 255.493 172.052 263.175C168.785 266.045 165.632 269.074 162.248 271.804C161.857 263.808 162.148 255.626 162.165 247.604L162.154 207.666L162.175 177.003C162.176 171.489 161.866 165.759 162.336 160.271C164.016 159.922 165.701 159.383 167.358 158.929Z" fill="#FEFEFE"/>
<path d="M152.322 158.692C154.217 159.041 156.096 159.536 157.948 160.063C158.083 165.628 158.021 171.215 158.037 176.783L158.098 207.169C158.127 228.729 158.309 250.325 157.976 271.881C156.377 270.364 154.588 268.995 152.919 267.55L142.683 258.534C135.983 252.548 129.574 246.196 123.233 239.833C120.156 236.619 116.958 233.42 114.115 229.999L152.185 259.151C152.055 225.663 152.101 192.177 152.322 158.692Z" fill="#FEFEFE"/>
<path d="M190.364 49.5403C208.996 57.8515 225.41 74.459 232.746 93.5812C234.012 96.9454 235.065 100.375 235.905 103.87C229.063 108.778 221.303 112.265 213.464 115.247C213.454 110.416 213.531 105.566 213.182 100.744C212.15 86.4603 207.673 73.0528 199.596 61.2015C197.844 58.6297 195.89 56.1359 193.884 53.7584C192.795 52.4681 191.451 51.2 190.53 49.7993C190.474 49.7134 190.419 49.6265 190.364 49.5403Z" fill="#0D2C7A"/>
<path d="M83.7764 103.874C84.2279 101.89 85.0198 99.9035 85.7142 97.9926C88.4536 90.4538 91.9154 83.1701 96.5329 76.5832C108.477 59.5445 127.964 46.8298 148.496 43.1917C147.505 45.9004 146.667 48.6617 145.694 51.377C123.742 61.662 106.857 78.5841 98.522 101.547C97.8123 103.502 97.2339 105.502 96.6307 107.491C96.3492 108.42 96.122 109.59 95.6695 110.438C93.5968 109.516 91.5675 108.508 89.5817 107.412C87.5958 106.316 85.6607 105.137 83.7764 103.874Z" fill="#FEFEFE"/>
<path d="M224.815 220.809C228.262 217.247 231.787 213.496 235.57 210.301L245.371 221.531C249.622 226.311 254.012 231.101 257.926 236.159C244.517 253.078 227.896 268.156 208.533 277.935C205.901 279.265 203.199 280.643 200.451 281.711C201.288 280.351 203.022 279.039 204.183 277.915C205.57 276.585 206.907 275.206 208.193 273.779C214.432 266.848 219.452 257.219 222.858 248.597C226.537 239.285 229.032 230.502 224.815 220.809Z" fill="#0D2C7A"/>
<path d="M95.6694 110.438C96.1219 109.59 96.3491 108.42 96.6307 107.491C97.2338 105.502 97.8122 103.502 98.5219 101.547C106.857 78.5841 123.742 61.662 145.694 51.377C139.861 71.7235 137.286 101.834 139.235 123.184C135.923 122.627 132.592 122.162 129.298 121.497C117.733 119.162 106.286 115.601 95.6694 110.438Z" fill="#235DD5"/>
<path d="M159.772 31.6392C159.896 31.7235 159.961 31.7573 160.061 31.8901C161.601 33.9363 163.995 40.6292 164.918 43.2142C174.136 69.0407 175.184 96.9742 173.59 124.086C169.072 124.597 164.579 124.892 160.039 125.088C155.384 125.032 150.74 124.566 146.114 124.082C144.253 94.7004 146.697 58.4085 159.772 31.6392Z" fill="#FEFEFE"/>
<path d="M171.405 43.0015C177.167 44.0399 185.138 46.8221 190.364 49.5402C190.419 49.6265 190.474 49.7133 190.53 49.7993C191.451 51.1999 192.795 52.468 193.884 53.7583C195.89 56.1358 197.844 58.6296 199.596 61.2015C207.673 73.0527 212.15 86.4602 213.182 100.744C213.531 105.566 213.454 110.416 213.464 115.247C210.794 116.187 208.101 117.057 205.386 117.856C202.67 118.656 199.936 119.383 197.182 120.04C194.429 120.697 191.66 121.281 188.876 121.793C186.092 122.305 183.296 122.744 180.489 123.11C181.049 117.845 181.105 112.483 181.114 107.194C181.138 92.1005 180.188 76.444 176.936 61.679C175.533 55.3037 173.49 49.1768 171.405 43.0015Z" fill="#235DD5"/>
<path d="M245.923 104.843L245.983 104.911C245.893 106.168 239.072 114.549 237.785 115.964C233.201 121.001 227.766 125.866 222.143 129.721C216.115 133.853 209.471 137.109 202.837 140.142C198.295 142.24 193.696 144.205 189.04 146.037C184.384 147.869 179.68 149.565 174.926 151.126C171.913 152.125 162.645 155.279 159.968 155.351C157.428 155.42 149.328 152.662 146.612 151.772C130.52 146.496 115.117 140.244 100.709 131.236C95.2131 127.8 89.9193 124.063 85.1834 119.629C80.6765 115.236 77.2862 110.488 74.2915 104.976C76.8046 107.15 79.6634 109.062 82.4684 110.839C99.0846 121.364 120.961 127.873 140.468 129.943C172.334 133.325 211.347 128.158 238.573 110.364C241.139 108.687 243.539 106.766 245.923 104.843Z" fill="#FEFEFE"/>
<path d="M159.848 135.285C161.323 135.761 163.998 137.383 164.779 138.727C165.466 139.906 165.569 141.656 165.166 142.945C164.466 145.185 161.999 146.125 160.094 147.141C158.278 146.649 156.181 144.995 154.722 143.818C154.702 142.391 154.509 140.637 154.896 139.264C155.422 137.403 158.267 136.217 159.848 135.285Z" fill="#235DD5"/>
<path d="M159.726 136.946C160.985 137.343 162.453 138.856 163.1 139.974C163.17 140.915 163.133 141.828 163.085 142.769C162.358 144.028 161.061 144.722 159.99 145.667L159.834 145.766C158.588 145.03 157.265 142.815 156.629 141.522C157.289 139.612 158.343 138.37 159.726 136.946Z" fill="#35D2F8"/>
<path d="M237.947 124.06C238.633 125.497 237.493 150.543 237.9 155.403C238.067 157.403 239.502 159.578 240.352 161.4C241.483 163.822 243.275 167.569 243.874 170.082C244.4 172.284 244.013 177.377 244 179.92L244.06 194.441C240.313 197.744 236.32 200.805 232.444 203.957C225.212 209.886 217.942 215.769 210.635 221.605C204.05 226.91 197.818 232.574 191.197 237.891C189.927 238.854 188.678 239.845 187.451 240.863C187.206 222.438 187.607 203.992 187.452 185.564C190.003 184.585 192.589 183.678 195.094 182.587C204.642 178.428 213.562 173.083 222.138 167.207C226.784 164.023 231.769 160.464 235.487 156.202L235.453 126.812C236.278 125.889 237.11 124.972 237.947 124.06Z" fill="#235DD5"/>
<path d="M236.104 166.819C236.461 167.708 236.437 174.114 236.53 175.735C236.85 181.3 237.161 186.888 237.681 192.438C234.271 195.453 230.655 198.276 227.192 201.237L211.249 215.092C205.407 220.121 199.486 225.075 193.728 230.201C193.52 230.413 193.343 230.539 193.08 230.678C193.33 229.751 198.489 224.229 199.567 223.003L217.201 202.548L223.138 195.733C224.961 193.642 226.851 191.605 228.28 189.212C232.328 182.432 234.246 174.408 236.104 166.819Z" fill="black"/>
<path d="M76.229 194.364L76.2405 177.426C76.2421 174.87 75.8918 168.867 76.544 166.768C77.6983 163.054 81.8446 159.752 82.3158 155.848C82.5662 153.775 82.3512 151.453 82.3424 149.358L82.3518 132.958C82.354 130.465 82.0974 127.697 82.4015 125.239L82.5971 125.304C83.3393 125.915 84.0343 126.552 84.7233 127.221C84.8394 133.65 84.8798 140.08 84.8446 146.51C84.8418 149.907 84.7208 153.352 84.8808 156.743C85.7302 157.488 86.4918 158.315 87.2662 159.136C89.438 161.18 91.5896 163.253 93.9012 165.141C101.909 171.678 111.146 176.76 120.618 180.827C124.585 182.53 128.641 184.185 132.822 185.292C132.934 204.007 132.935 222.723 132.825 241.438C130.064 239.037 127.045 236.903 124.181 234.624C120.768 231.909 117.476 229.038 114.096 226.283C112.754 225.19 109.643 223.056 108.686 221.798C102.007 216.644 95.663 210.917 89.2608 205.42C84.948 201.717 80.4221 198.197 76.229 194.364Z" fill="#235DD5"/>
<path d="M76.229 194.364L76.2405 177.426C76.2421 174.87 75.8918 168.867 76.544 166.768C77.6983 163.054 81.8446 159.752 82.3158 155.848C82.5662 153.775 82.3512 151.453 82.3424 149.358L82.3518 132.958C82.354 130.465 82.0974 127.697 82.4015 125.239L82.5971 125.304C83.3393 125.915 84.0343 126.552 84.7233 127.221C84.8394 133.65 84.8798 140.08 84.8446 146.51C84.8418 149.907 84.7208 153.352 84.8808 156.743C85.7302 157.488 86.4918 158.315 87.2662 159.136C86.7674 160.967 85.3199 165.296 85.184 166.949C85.193 166.996 85.2024 167.042 85.2108 167.089C85.5811 169.15 85.4721 171.313 85.7521 173.4C86.3877 178.132 88.1224 182.757 90.1815 187.051C95.8405 198.85 106.392 209.474 115.374 218.915L122.558 226.337C123.548 227.353 124.728 228.357 125.613 229.458C125.814 229.709 125.873 229.82 125.902 230.129C126.479 230.663 127.021 231.223 127.565 231.789C121.699 227.907 83.3565 193.904 81.2696 193.699L81.7702 194.161L81.6065 194.181C84.4743 197.81 87.6755 201.233 90.9505 204.497C93.3265 206.864 108.105 220.603 108.623 221.631C108.65 221.684 108.665 221.743 108.686 221.798C102.007 216.644 95.663 210.917 89.2608 205.42C84.948 201.717 80.4221 198.197 76.229 194.364Z" fill="#FEFEFE"/>
<path d="M82.5972 125.304C83.3394 125.915 84.0344 126.552 84.7234 127.221C84.8395 133.65 84.8799 140.08 84.8447 146.51C84.8419 149.907 84.7209 153.353 84.8809 156.743C84.2397 156.745 83.6581 156.764 83.04 156.559C82.9644 156.473 82.864 156.404 82.8134 156.302C82.2694 155.195 83.1759 129.689 82.5972 125.304Z" fill="#235DD5"/>
<path d="M85.184 166.949C85.1931 166.996 85.2024 167.042 85.2109 167.089C85.5812 169.15 85.4721 171.313 85.7521 173.4C86.3877 178.132 88.1224 182.758 90.1815 187.051C95.8406 198.85 106.392 209.474 115.374 218.915L122.558 226.337C123.548 227.353 124.728 228.358 125.613 229.459C125.814 229.709 125.873 229.82 125.902 230.129C120.742 225.576 115.547 221.062 110.318 216.588C106.56 213.435 102.692 210.414 98.9368 207.259L87.3006 197.584C85.4265 196.039 83.6249 194.397 81.6877 192.932C81.7346 190.403 82.1477 187.787 82.4052 185.267C83.0349 179.102 83.6646 172.971 85.184 166.949Z" fill="black"/>
<path d="M87.3212 212.985C89.7406 214.927 92.0584 216.991 94.4475 218.969C96.14 220.37 97.9897 221.683 99.5325 223.243C102.41 226.154 104.816 229.641 107.502 232.743C112.399 238.321 117.462 243.744 122.691 249.011C134.557 261.009 147.612 271.718 159.987 283.17C172.519 271.923 185.246 260.883 197.34 249.16C206.809 239.981 215.679 230.306 224.815 220.809C229.032 230.502 226.537 239.285 222.858 248.597C219.452 257.219 214.432 266.848 208.193 273.779C206.907 275.206 205.57 276.585 204.183 277.915C203.022 279.039 201.288 280.351 200.451 281.711C193.065 285.406 184.821 287.857 176.907 290.146C171.782 291.628 166.426 293.172 161.155 294.039C158.511 294.473 155.61 293.317 153.023 292.726C151.119 292.29 149.222 291.823 147.332 291.325C145.443 290.828 143.561 290.3 141.689 289.743C139.816 289.185 137.953 288.597 136.099 287.98C134.245 287.362 132.402 286.715 130.568 286.038C128.735 285.362 126.914 284.656 125.103 283.921C123.293 283.186 121.494 282.422 119.708 281.63C117.923 280.837 116.15 280.016 114.39 279.167C112.63 278.317 110.885 277.44 109.153 276.534C106.137 274.952 102.913 273.357 100.151 271.358C99.3022 269.933 96.6022 267.583 95.3697 266.302C92.6988 263.487 90.0538 260.647 87.4347 257.783C82.4872 252.319 77.9518 246.488 73.0012 241.037C75.1022 236.207 77.7812 231.536 80.2403 226.877C82.6665 222.279 84.9418 217.607 87.3212 212.985Z" fill="#235DD5"/>
</svg>
