<svg width="64" height="64" viewBox="0 0 64 64" fill="none" xmlns="http://www.w3.org/2000/svg">
<path d="M54.1573 31.8645C54.9591 31.8646 55.7608 31.86 56.5626 31.8506L56.5482 59.3817L12.095 59.3755L12.0965 57.4589C13.6302 57.4114 15.1768 57.457 16.712 57.4539L26.5868 57.4485L54.1437 57.4338L54.1292 39.7029C54.1104 37.0899 54.1198 34.4771 54.1573 31.8645Z" fill="#195E03"/>
<path d="M14.005 29.3129C14.0565 27.3323 14.0074 25.3383 14.011 23.3564C14.0136 21.9211 14.0008 20.5118 14.2394 19.0911C14.9967 14.5812 17.6832 10.4349 21.3987 7.79187C22.3084 7.14468 23.2806 6.54418 24.2906 6.06653C27.5073 4.54518 31.3679 3.96317 34.8834 4.56064C39.1071 5.27848 42.8624 7.33324 45.6477 10.6081C46.1156 11.1583 46.5269 11.7546 46.9438 12.3437C47.3137 12.6023 47.6929 13.1042 47.9969 13.4469C48.131 13.5996 48.2624 13.7544 48.3911 13.9114C48.5199 14.0685 48.6459 14.2277 48.7692 14.3891C48.8925 14.5505 49.0131 14.7139 49.1309 14.8794C49.2486 15.0448 49.3635 15.2122 49.4756 15.3816C49.5877 15.551 49.6968 15.7223 49.8031 15.8954C49.9093 16.0684 50.0126 16.2433 50.1129 16.4199C50.2132 16.5966 50.3104 16.7748 50.4046 16.9547C50.4988 17.1347 50.59 17.3161 50.678 17.4991C50.766 17.6822 50.851 17.8666 50.9328 18.0526C51.0145 18.2385 51.0931 18.4257 51.1685 18.6143C51.2439 18.8029 51.316 18.9927 51.3849 19.1837C51.4539 19.3748 51.5196 19.567 51.5819 19.7602C51.6443 19.9535 51.7034 20.1478 51.7592 20.3431C51.815 20.5383 51.8674 20.7345 51.9165 20.9316C51.9656 21.1287 52.0114 21.3266 52.0537 21.5252C52.0961 21.7238 52.135 21.9231 52.1706 22.1231C52.3956 23.3951 52.3814 24.6461 52.3814 25.9327L52.3777 29.3149C52.8964 29.3138 53.428 29.2879 53.9452 29.3172C54.0258 29.3166 54.0862 29.3002 54.1543 29.3467C54.2231 30.1491 54.1616 31.0512 54.1572 31.8642C54.1197 34.4769 54.1103 37.0897 54.1291 39.7026L54.1436 57.4336L26.5867 57.4482L16.7119 57.4536C15.1768 57.4567 13.6301 57.4111 12.0964 57.4586L9.88 57.4641C9.90067 54.7167 9.90242 51.9694 9.88525 49.2219L9.91125 29.315L14.005 29.3129Z" fill="#010100"/>
<path d="M47.6506 46.7354C48.136 47.0822 48.5976 47.4681 49.0845 47.8095L49.0927 47.8282C48.9035 48.3439 48.8752 48.9785 48.7079 49.5269L48.7148 49.555L48.6574 49.6709C48.3418 49.4084 48.0141 49.1809 47.6594 48.9742L47.6503 48.7578C47.5832 48.1433 47.6195 47.3568 47.6506 46.7354Z" fill="#8C0707"/>
<path d="M47.6503 48.7578C48.0125 49.0002 48.3861 49.2313 48.7079 49.5269L48.7148 49.5551L48.6574 49.6709C48.3418 49.4084 48.0141 49.1809 47.6593 48.9743L47.6503 48.7578Z" fill="#978688"/>
<path d="M47.6593 48.9746C48.0141 49.1813 48.3418 49.4087 48.6574 49.6713L48.6554 49.6998C48.5446 50.1706 48.4975 50.663 48.4161 51.1403C48.2878 51.8919 48.1344 52.6409 47.9933 53.3903C47.9099 53.8336 47.8603 54.3429 47.6849 54.7595C47.5939 54.1232 47.6547 53.4095 47.6542 52.7631C47.6533 51.5007 47.6423 50.2369 47.6593 48.9746Z" fill="#8C0707"/>
<path d="M47.6555 44.4922C48.2761 44.9819 48.9025 45.466 49.5165 45.9641C49.4101 46.4417 49.2866 47.2259 49.1235 47.6648L49.1288 47.6854L49.0845 47.8097C48.5976 47.4683 48.136 47.0824 47.6506 46.7356L47.637 46.5494C47.5975 46.1552 47.5778 44.8348 47.6555 44.4922Z" fill="#8C0707"/>
<path d="M47.637 46.5493C48.1693 46.8772 48.6122 47.3122 49.1234 47.6648L49.1287 47.6853L49.0845 47.8097C48.5976 47.4683 48.136 47.0823 47.6506 46.7355L47.637 46.5493Z" fill="#978688"/>
<path d="M52.5058 40.8076C52.5233 41.9599 52.5306 43.1123 52.5278 44.2647C52.5301 44.8297 52.5835 45.4507 52.5183 46.0088C51.7021 45.2527 50.7549 44.5862 49.8599 43.926L49.8479 43.9025C49.8513 43.5785 49.8852 43.2412 49.8483 42.9194L49.8539 42.8934C50.7671 42.2422 51.5827 41.4498 52.5058 40.8076Z" fill="#F90801"/>
<path d="M47.6562 42.5181C47.9485 42.3184 48.2209 42.063 48.4962 41.8388C48.9032 41.5129 49.3129 41.1905 49.7254 40.8716C49.8009 41.4879 49.6907 42.122 49.8275 42.733L49.8539 42.8931L49.8483 42.919C49.8852 43.2409 49.8512 43.5781 49.8479 43.9021L49.8599 43.9256C50.7549 44.5859 51.7021 45.2524 52.5183 46.0085L52.513 46.1564C52.5198 46.7935 52.4983 47.4315 52.5148 48.0683L52.5119 48.2642C51.4822 47.5565 50.4891 46.749 49.5164 45.9638C48.9025 45.4657 48.2761 44.9816 47.6554 44.4919L47.6546 44.4733C47.5839 44.0126 47.6357 43.0241 47.6562 42.5181Z" fill="#F90801"/>
<path d="M49.8599 43.9258C50.7549 44.586 51.7021 45.2525 52.5184 46.0086L52.5131 46.1565C51.6059 45.4892 50.7437 44.759 49.8422 44.0827L49.8395 44.0725L49.8599 43.9258Z" fill="#FEFEFD"/>
<path d="M49.8275 42.7334L49.8539 42.8935L49.8484 42.9194C49.8852 43.2413 49.8513 43.5785 49.8479 43.9025L49.8599 43.926L49.8395 44.0728L49.8422 44.083C49.7085 44.5859 49.6524 45.252 49.5436 45.7936L51.4723 47.304C51.8005 47.5585 52.1535 47.8645 52.5149 48.0686L52.5119 48.2646C51.4822 47.5568 50.4891 46.7493 49.5165 45.9641C48.9025 45.4661 48.2762 44.982 47.6555 44.4923L47.6547 44.4736C47.8091 44.4131 47.9433 44.2901 48.0702 44.1853C48.6312 43.6818 49.2259 43.1876 49.8275 42.7334Z" fill="#8C0707"/>
<path d="M49.8275 42.7334L49.8539 42.8935L49.8484 42.9194C49.8852 43.2413 49.8513 43.5785 49.8479 43.9025L49.8599 43.926L49.8395 44.0728C49.5628 43.9247 49.3004 43.7045 49.0464 43.5191L48.1623 44.244L47.8649 44.4944C48.4457 44.9005 48.9777 45.3684 49.5436 45.7936L51.4723 47.304C51.8005 47.5585 52.1535 47.8645 52.5149 48.0686L52.5119 48.2646C51.4822 47.5568 50.4891 46.7493 49.5165 45.9641C48.9025 45.4661 48.2762 44.982 47.6555 44.4923L47.6547 44.4736C47.8091 44.4131 47.9433 44.2901 48.0702 44.1853C48.6312 43.6818 49.2259 43.1876 49.8275 42.7334Z" fill="#978688"/>
<path d="M49.1299 43.453C49.3728 43.2802 49.6094 43.0978 49.8483 42.9194C49.8851 43.2413 49.8512 43.5786 49.8478 43.9026C49.6166 43.7397 49.387 43.5728 49.1299 43.453Z" fill="#8C0707"/>
<path d="M47.6562 42.5181C47.9485 42.3184 48.2209 42.063 48.4962 41.8388C48.9032 41.5129 49.3129 41.1905 49.7254 40.8716C49.8009 41.4879 49.6907 42.122 49.8275 42.733C49.2259 43.1872 48.6312 43.6814 48.0702 44.1849C47.9433 44.2897 47.809 44.4128 47.6546 44.4733C47.5839 44.0126 47.6357 43.0241 47.6562 42.5181Z" fill="#8C0707"/>
<path d="M49.1234 47.6646C49.2866 47.2257 49.41 46.4415 49.5164 45.9639C50.489 46.7491 51.4821 47.5566 52.5118 48.2643C52.5178 48.9431 52.5568 49.6459 52.5172 50.3221L52.5296 50.5007C52.5235 51.2015 52.5239 51.9023 52.5306 52.6032C52.3094 52.4629 52.1013 52.2707 51.8954 52.1071C51.4036 51.7162 50.9195 51.3118 50.415 50.9375C50.2673 50.7629 50.0149 50.6084 49.8324 50.4632C49.4563 50.1648 49.0838 49.8621 48.7148 49.5551L48.7079 49.5269C48.8751 48.9786 48.9034 48.3439 49.0926 47.8282L49.0844 47.8096L49.1287 47.6852L49.1234 47.6646Z" fill="#F90801"/>
<path d="M49.1287 47.6855C49.8097 48.1822 50.4622 48.7215 51.1265 49.2404C51.587 49.6 52.0764 49.9405 52.5172 50.3224L52.5296 50.501C52.0652 50.2005 51.6281 49.8237 51.1913 49.4834C50.4879 48.9352 49.7823 48.3943 49.0927 47.8286L49.0845 47.8099L49.1287 47.6855Z" fill="#FEFEFD"/>
<path d="M49.1234 47.6646C49.2866 47.2257 49.41 46.4415 49.5164 45.9639C50.489 46.7491 51.4822 47.5566 52.5119 48.2643C52.5178 48.9431 52.5568 49.6459 52.5172 50.3221C52.0764 49.9401 51.587 49.5997 51.1265 49.24C50.4622 48.7211 49.8097 48.1818 49.1287 47.6852L49.1234 47.6646Z" fill="#F90801"/>
<path d="M15.6785 24.2222C16.6806 24.231 17.6828 24.2324 18.685 24.2264C19.2117 24.2347 19.7393 24.219 20.2656 24.2299C19.7406 24.2422 19.2156 24.2451 18.6905 24.2386L18.6837 29.2775C17.6858 29.2564 16.6864 29.2845 15.688 29.2694L15.6785 24.2222Z" fill="#1D1EB3"/>
<path d="M20.2656 24.23C20.803 24.2289 21.3409 24.2222 21.8782 24.2293L21.8806 29.2701C20.8152 29.2743 19.749 29.2874 18.6837 29.2777L18.6905 24.2388C19.2155 24.2453 19.7406 24.2423 20.2656 24.23Z" fill="#350822"/>
<path d="M11.5332 33.9971C12.4302 34.5779 13.2714 35.2716 14.1217 35.9196C14.8416 36.4681 15.5909 36.9896 16.2914 37.5621C16.3445 38.0046 16.3401 39.119 16.301 39.5885L16.29 39.8109C16.3497 40.2112 16.3364 41.2988 16.2918 41.723L16.2821 41.946C15.2763 41.2005 14.2755 40.4484 13.2797 39.6897C12.7333 39.2694 12.1221 38.7138 11.5307 38.374L11.5309 38.1105C11.5188 37.4516 11.5328 36.7896 11.5342 36.1304L11.5307 35.8726C11.5271 35.2474 11.5279 34.6222 11.5332 33.9971Z" fill="#F90801"/>
<path d="M11.5306 35.8726C12.2608 36.5461 13.1066 37.1276 13.8943 37.7354C14.6914 38.3504 15.4728 39.0172 16.301 39.5884L16.29 39.8109C15.8338 39.4801 15.3944 39.1162 14.9493 38.77C13.8143 37.8872 12.6863 36.9902 11.5341 36.1303L11.5306 35.8726Z" fill="#FEFEFD"/>
<path d="M11.5342 36.1304C12.6864 36.9903 13.8144 37.8873 14.9493 38.7701C15.3944 39.1163 15.8339 39.4802 16.29 39.8109C16.3497 40.2112 16.3364 41.2988 16.2918 41.723L16.2821 41.946C15.2763 41.2005 14.2755 40.4484 13.2797 39.6897C12.7333 39.2694 12.1221 38.7138 11.5307 38.374L11.5309 38.1105C11.5188 37.4516 11.5328 36.7896 11.5342 36.1304Z" fill="#F90801"/>
<path d="M11.5309 38.1108C12.5351 38.9025 13.549 39.6814 14.5726 40.4476C15.1396 40.8782 15.6991 41.3285 16.2918 41.7233L16.2821 41.9463C15.2763 41.2009 14.2755 40.4488 13.2797 39.69C12.7333 39.2697 12.1221 38.7142 11.5308 38.3743L11.5309 38.1108Z" fill="#FEFEFD"/>
<path d="M48.7148 49.5552C49.0838 49.8622 49.4563 50.1649 49.8324 50.4633C50.0149 50.6086 50.2673 50.763 50.415 50.9376C50.9195 51.3119 51.4036 51.7164 51.8954 52.1072C52.1013 52.2709 52.3094 52.463 52.5306 52.6033L52.5298 52.8192C52.5349 53.8426 52.5297 54.867 52.5459 55.8902L47.6506 55.8877C47.6538 55.5115 47.6494 55.1341 47.6849 54.7592C47.8603 54.3427 47.9099 53.8334 47.9933 53.3901C48.1344 52.6406 48.2878 51.8917 48.4161 51.1401C48.4975 50.6627 48.5446 50.1704 48.6554 49.6996L48.6574 49.6711L48.7148 49.5552Z" fill="#F90801"/>
<path d="M48.7148 49.5552C49.0838 49.8622 49.4564 50.1649 49.8324 50.4633C50.0149 50.6086 50.2673 50.763 50.415 50.9376C50.9195 51.3119 51.4036 51.7164 51.8955 52.1072C52.1013 52.2709 52.3095 52.463 52.5306 52.6033L52.5298 52.8192C52.315 52.6146 52.0574 52.4365 51.8238 52.2526C51.3137 51.859 50.8108 51.4564 50.3152 51.0447C49.7391 50.6359 49.1991 50.1509 48.6554 49.6996L48.6574 49.6711L48.7148 49.5552Z" fill="#FEFEFD"/>
<path d="M11.5408 30.9097C13.1275 30.9121 14.7169 30.9369 16.3033 30.912C16.2878 32.3135 16.2884 33.7148 16.3053 35.1162C16.3093 35.8532 16.3415 36.608 16.2988 37.3433L16.2915 37.5624C15.5909 36.9898 14.8416 36.4684 14.1217 35.9198C13.2714 35.2719 12.4302 34.5782 11.5332 33.9973L11.5348 33.7417L11.5408 30.9097Z" fill="#F90801"/>
<path d="M11.5348 33.7417C13.0983 34.9651 14.6961 36.1713 16.2988 37.3433L16.2915 37.5623C15.5909 36.9898 14.8416 36.4683 14.1217 35.9198C13.2714 35.2718 12.4302 34.5781 11.5332 33.9973L11.5348 33.7417Z" fill="#FEFEFD"/>
<path d="M11.5278 52.7587C12.0093 52.4 12.4655 52.0008 12.9328 51.623L15.2547 49.7753C15.4793 49.5976 16.046 49.0766 16.2777 49.0044L16.2607 49.1708C16.2973 50.0405 16.2715 50.9185 16.2696 51.7891L16.274 55.8932C14.6926 55.8793 13.1089 55.921 11.5281 55.8958L11.5307 52.9816L11.5278 52.7587Z" fill="#F90801"/>
<path d="M11.5278 52.7587C12.0093 52.4 12.4655 52.0008 12.9328 51.623L15.2547 49.7753C15.4793 49.5976 16.046 49.0766 16.2777 49.0044L16.2607 49.1708C15.6202 49.57 15.0206 50.1284 14.4313 50.6008C13.4586 51.3804 12.4525 52.1419 11.5307 52.9816L11.5278 52.7587Z" fill="#FEFEFD"/>
<path d="M47.6562 30.9404C49.0155 30.9567 50.3762 30.9134 51.735 30.9424C51.9941 30.939 52.2532 30.9372 52.5124 30.937C52.5219 31.6358 52.5256 32.3346 52.5233 33.0334C52.5237 33.375 52.4937 33.7543 52.5365 34.0925C52.3187 34.1538 50.1512 36.0049 49.785 36.305C49.0839 36.8832 48.3631 37.4402 47.6519 38.0062L47.6562 30.9404Z" fill="#D40A05"/>
<path d="M51.7349 30.9424C51.994 30.939 52.2532 30.9372 52.5123 30.937C52.5219 31.6358 52.5255 32.3345 52.5232 33.0333C52.5237 33.3749 52.4937 33.7543 52.5364 34.0925C52.3186 34.1538 50.1511 36.0048 49.7849 36.3049C49.6861 36.0199 49.7627 31.6889 49.7512 30.9744C50.4054 30.9719 51.085 31.0039 51.7349 30.9424Z" fill="#F90801"/>
<path d="M49.785 36.3048C50.1511 36.0047 52.3186 34.1536 52.5365 34.0923L52.5176 34.2736C52.5009 34.7813 52.466 35.7345 52.5361 36.2088L52.5133 36.399C52.5388 37.0976 52.5068 37.7969 52.5337 38.495L52.5061 38.6876C52.5067 39.3233 52.4944 39.9622 52.522 40.5973L52.5058 40.8074C51.5826 41.4496 50.7671 42.242 49.8539 42.8932L49.8275 42.7332C49.6907 42.1221 49.8009 41.488 49.7254 40.8717C49.313 41.1907 48.9033 41.5131 48.4962 41.8389C48.2209 42.0632 47.9485 42.3185 47.6562 42.5183L47.6506 42.2926C47.6486 41.6501 47.6316 41.0038 47.6561 40.3618L47.6509 40.1587C47.6363 39.5282 47.6145 38.8834 47.6481 38.2538L47.6518 38.006C48.3631 37.44 49.0838 36.883 49.785 36.3048Z" fill="#F90801"/>
<path d="M49.7118 40.6893C50.1174 40.3861 52.3324 38.5447 52.5336 38.4951L52.5061 38.6877C52.1442 38.8832 51.7967 39.2276 51.4762 39.487C50.8971 39.9543 50.3135 40.4159 49.7253 40.8719C49.3129 41.1908 48.9032 41.5132 48.4961 41.8391C48.2208 42.0633 47.9485 42.3187 47.6561 42.5184L47.6505 42.2927C48.2925 41.722 49.0279 41.2128 49.7118 40.6893Z" fill="#978688"/>
<path d="M49.7071 38.5103L49.7258 38.677L49.7133 38.698C49.7201 39.3584 49.739 40.0293 49.7119 40.6892C49.028 41.2127 48.2926 41.7219 47.6506 42.2926C47.6487 41.6501 47.6317 41.0038 47.6561 40.3618L47.6509 40.1587C48.3296 39.62 48.9881 38.9884 49.7071 38.5103Z" fill="#8C0707"/>
<path d="M49.7071 38.5103L49.7258 38.677L49.7133 38.698C49.2587 39.058 48.8078 39.4225 48.3605 39.7915C48.1303 39.9801 47.901 40.1938 47.6561 40.3618L47.6509 40.1587C48.3295 39.62 48.988 38.9884 49.7071 38.5103Z" fill="#978688"/>
<path d="M52.5061 38.6875C52.5067 39.3232 52.4943 39.9621 52.522 40.5972L52.5057 40.8073C51.5826 41.4495 50.767 42.2419 49.8538 42.8931L49.8275 42.7331C49.6907 42.122 49.8008 41.4879 49.7253 40.8716C50.3135 40.4157 50.8971 39.9541 51.4762 39.4868C51.7967 39.2273 52.1442 38.8829 52.5061 38.6875Z" fill="#F90801"/>
<path d="M52.522 40.5972L52.5058 40.8073C51.5826 41.4495 50.7671 42.2419 49.8539 42.8931L49.8275 42.733C50.7549 42.066 51.5831 41.2493 52.522 40.5972Z" fill="#FEFEFD"/>
<path d="M49.785 36.3048C50.1511 36.0047 52.3186 34.1536 52.5365 34.0923L52.5176 34.2736C52.5009 34.7813 52.466 35.7345 52.5361 36.2088L52.5133 36.399C51.6003 37.165 50.6829 37.9667 49.7258 38.677L49.7071 38.5102C48.988 38.9883 48.3295 39.62 47.6509 40.1587C47.6363 39.5282 47.6145 38.8834 47.6481 38.2538L47.6518 38.006C48.3631 37.44 49.0838 36.883 49.785 36.3048Z" fill="#F90801"/>
<path d="M49.707 38.5104C50.1617 38.1114 50.6503 37.7427 51.119 37.3597C51.5878 36.9766 52.0477 36.5663 52.536 36.209L52.5133 36.3992C51.6003 37.1651 50.6828 37.9668 49.7257 38.6771L49.707 38.5104Z" fill="#FEFEFD"/>
<path d="M49.7849 36.3048C50.1511 36.0047 52.3186 34.1536 52.5364 34.0923L52.5176 34.2736C51.7833 34.8037 51.0946 35.4298 50.3949 36.0067C50.1721 36.1904 49.9522 36.3911 49.7164 36.5569C49.0234 37.1105 48.2955 37.6474 47.6481 38.2538L47.6518 38.006C48.3631 37.44 49.0838 36.883 49.7849 36.3048Z" fill="#978688"/>
<path d="M49.7164 36.5571C49.7175 37.1887 49.7725 37.8859 49.7071 38.5104C48.988 38.9886 48.3295 39.6202 47.6509 40.1589C47.6363 39.5284 47.6145 38.8836 47.6481 38.254C48.2955 37.6476 49.0235 37.1107 49.7164 36.5571Z" fill="#8C0707"/>
<path d="M24.4016 30.9256C25.5267 30.9396 26.6524 30.9163 27.7776 30.9141L35.3286 30.9092C36.733 30.9116 38.1547 30.8769 39.5575 30.9369C39.5594 31.5438 39.5955 32.1761 39.5424 32.7793L24.4027 32.7742L24.4016 30.9256Z" fill="#B9B5C5"/>
<path d="M46.9438 12.3438C47.3138 12.6024 47.693 13.1042 47.997 13.447C48.1311 13.5996 48.2625 13.7545 48.3912 13.9115C48.52 14.0686 48.646 14.2278 48.7693 14.3892C48.8926 14.5506 49.0132 14.714 49.131 14.8794C49.2487 15.0449 49.3636 15.2123 49.4757 15.3817C49.5878 15.5511 49.6969 15.7224 49.8032 15.8954C49.9094 16.0685 50.0127 16.2434 50.113 16.42C50.2133 16.5966 50.3105 16.7749 50.4047 16.9548C50.4989 17.1347 50.5901 17.3162 50.6781 17.4992C50.7661 17.6822 50.8511 17.8667 50.9328 18.0526C51.0146 18.2385 51.0932 18.4258 51.1686 18.6144C51.244 18.803 51.3161 18.9928 51.385 19.1838C51.454 19.3749 51.5197 19.567 51.582 19.7603C51.6444 19.9536 51.7035 20.1478 51.7593 20.3431C51.8151 20.5384 51.8675 20.7346 51.9166 20.9317C51.9657 21.1288 52.0115 21.3266 52.0538 21.5252C52.0962 21.7239 52.1351 21.9232 52.1707 22.1231C52.3957 23.3952 52.3815 24.6462 52.3815 25.9328L52.3778 29.3149C52.8965 29.3139 53.4281 29.2879 53.9453 29.3172C53.3596 29.4041 52.7038 29.3438 52.113 29.3342C51.396 29.3225 50.6774 29.3334 49.9602 29.3336C49.9472 27.9313 49.9449 26.5289 49.953 25.1264C49.9631 24.0567 50.0012 22.9751 49.9578 21.9064C49.8507 19.2647 49.2308 16.8466 48.134 14.4484C47.9499 14.0469 47.7435 13.6572 47.5148 13.2794C47.3303 12.9791 47.1205 12.6866 46.9589 12.3736L46.9438 12.3438Z" fill="#195E03"/>
<path d="M42.0682 24.1895C43.1752 24.2346 44.2921 24.2091 45.3999 24.2116L45.4232 24.209C46.4045 24.232 47.3902 24.2131 48.3721 24.213C48.3744 25.8985 48.3405 27.5903 48.3747 29.2748C47.601 29.3287 46.7928 29.2722 46.0139 29.2738C44.7052 29.2766 43.3875 29.3187 42.0803 29.2691L42.0682 24.1895Z" fill="#350822"/>
<path d="M48.372 24.213C48.3744 25.8985 48.3405 27.5903 48.3747 29.2749C48.0053 29.238 47.622 29.2535 47.251 29.2532L45.3951 29.2569C45.361 27.5786 45.3925 25.8907 45.3999 24.2116L45.4232 24.209C46.4045 24.232 47.3902 24.2132 48.372 24.213Z" fill="#1D1EB3"/>
<path d="M11.5308 38.374C12.1221 38.7138 12.7333 39.2694 13.2797 39.6897C14.2755 40.4485 15.2763 41.2006 16.2821 41.946C16.3479 42.5409 16.3275 43.4173 16.2968 44.0247L16.2847 44.2112C16.3408 44.3686 16.2917 48.5441 16.2778 49.0043C16.0461 49.0765 15.4794 49.5975 15.2548 49.7753L12.9328 51.623C12.4656 52.0008 12.0094 52.3999 11.5279 52.7586C11.5119 51.46 11.5002 50.1576 11.5084 48.859C11.5138 48.0228 11.5424 47.1885 11.5238 46.352L11.5323 46.1931C11.5181 45.0725 11.5051 43.9467 11.5264 42.8263L11.5272 42.582L11.5308 40.587L11.5298 40.3315L11.5308 38.374Z" fill="#F90801"/>
<path d="M11.5272 42.582C12.2711 43.2062 13.0299 43.8119 13.8035 44.3989C14.1356 44.3952 14.7628 44.3279 15.0555 44.4332L15.0926 44.4698C14.7712 44.5453 14.1133 44.4957 13.7517 44.4955C13.0215 45.1296 12.2536 45.7178 11.5238 46.352L11.5323 46.1932C12.2167 45.6017 12.9376 45.0517 13.6301 44.4691L11.5264 42.8264L11.5272 42.582Z" fill="#FEFEFD"/>
<path d="M11.5264 42.8267L13.6301 44.4693C12.9376 45.0519 12.2167 45.602 11.5323 46.1934C11.5181 45.0728 11.5051 43.947 11.5264 42.8267Z" fill="#F90801"/>
<path d="M11.5308 38.374C12.1222 38.7138 12.7333 39.2694 13.2797 39.6897C14.2756 40.4485 15.2764 41.2006 16.2822 41.946C16.348 42.5409 16.3275 43.4173 16.2968 44.0247L16.2847 44.2112C15.1538 43.4213 14.0678 42.5566 12.9798 41.709C12.5012 41.3362 12.0343 40.9248 11.5308 40.587L11.5298 40.3315L11.5308 38.374Z" fill="#F90801"/>
<path d="M11.5298 40.3315C12.1672 40.8861 12.8515 41.3926 13.5204 41.9084C14.4389 42.6231 15.3643 43.3285 16.2968 44.0248L16.2847 44.2113C15.1538 43.4214 14.0678 42.5567 12.9798 41.7091C12.5012 41.3363 12.0343 40.9249 11.5308 40.5871L11.5298 40.3315Z" fill="#FEFEFD"/>
<path d="M23.4983 29.2526C23.5033 26.8742 23.4486 24.467 23.5035 22.0931C23.5052 22.0223 23.5078 21.9514 23.5112 21.8806C23.5147 21.8098 23.519 21.739 23.5242 21.6683C23.5294 21.5976 23.5355 21.527 23.5425 21.4564C23.5495 21.3859 23.5573 21.3154 23.566 21.2451C23.5747 21.1747 23.5843 21.1045 23.5948 21.0343C23.6052 20.9642 23.6166 20.8942 23.6288 20.8244C23.641 20.7546 23.654 20.6849 23.6679 20.6153C23.6819 20.5458 23.6967 20.4765 23.7123 20.4073C23.728 20.3382 23.7445 20.2693 23.7618 20.2005C23.7792 20.1318 23.7974 20.0633 23.8165 19.995C23.8356 19.9267 23.8554 19.8586 23.8762 19.7908C23.8969 19.723 23.9186 19.6555 23.941 19.5883C23.9634 19.521 23.9867 19.4541 24.0108 19.3874C24.0349 19.3207 24.0598 19.2543 24.0856 19.1883C24.1113 19.1222 24.1379 19.0565 24.1653 18.9911C24.1926 18.9257 24.2208 18.8606 24.2498 18.796C24.2788 18.7313 24.3086 18.6669 24.3392 18.603C24.3698 18.539 24.4012 18.4754 24.4333 18.4123C24.4655 18.3491 24.4984 18.2863 24.5322 18.224C24.5659 18.1616 24.6004 18.0996 24.6357 18.0381C24.6709 17.9766 24.707 17.9156 24.7438 17.855C24.7806 17.7944 24.8181 17.7342 24.8564 17.6745C24.8946 17.6149 24.9336 17.5557 24.9734 17.497C25.0131 17.4383 25.0536 17.38 25.0948 17.3223C25.136 17.2646 25.1779 17.2075 25.2206 17.1508C25.2632 17.0942 25.3065 17.038 25.3505 16.9825C25.3945 16.9269 25.4392 16.8718 25.4846 16.8173C25.5299 16.7629 25.576 16.709 25.6227 16.6556C25.6694 16.6023 25.7168 16.5496 25.7648 16.4974C25.8129 16.4453 25.8615 16.3937 25.9108 16.3428C25.9602 16.2918 26.0101 16.2415 26.0606 16.1918C26.1112 16.1421 26.1623 16.093 26.2141 16.0446C26.2648 15.9973 26.3159 15.9507 26.3677 15.9047C26.4194 15.8587 26.4718 15.8134 26.5246 15.7686C26.5775 15.7239 26.6309 15.6799 26.6849 15.6365C26.7388 15.5931 26.7933 15.5504 26.8483 15.5083C26.9033 15.4663 26.9588 15.4249 27.0149 15.3842C27.0709 15.3435 27.1274 15.3035 27.1844 15.2642C27.2414 15.2249 27.2989 15.1863 27.3569 15.1485C27.4148 15.1106 27.4733 15.0734 27.5321 15.037C27.591 15.0005 27.6503 14.9648 27.7101 14.9298C27.7698 14.8948 27.83 14.8605 27.8906 14.827C27.9512 14.7935 28.0122 14.7608 28.0736 14.7288C28.135 14.6967 28.1968 14.6655 28.2589 14.635C28.3211 14.6045 28.3836 14.5748 28.4465 14.5458C28.5094 14.5169 28.5727 14.4887 28.6363 14.4613C28.6998 14.4339 28.7638 14.4073 28.828 14.3815C28.8923 14.3556 28.9568 14.3306 29.0217 14.3064C29.0866 14.2821 29.1517 14.2587 29.2171 14.2361C29.2826 14.2134 29.3483 14.1916 29.4143 14.1706C29.4802 14.1495 29.5464 14.1293 29.6129 14.11C29.6794 14.0906 29.7461 14.072 29.813 14.0543C29.88 14.0365 29.9471 14.0196 30.0144 14.0035C30.0818 13.9874 30.1493 13.9721 30.2171 13.9576C30.2848 13.9432 30.3527 13.9296 30.4207 13.9168C30.4888 13.9041 30.557 13.8922 30.6253 13.8811C30.6937 13.87 30.7621 13.8597 30.8308 13.8503C30.8993 13.8409 30.9681 13.8323 31.0369 13.8246C31.1057 13.8169 31.1746 13.81 31.2436 13.804C31.3125 13.798 31.3816 13.7928 31.4507 13.7885C31.5198 13.7841 31.5889 13.7806 31.6581 13.778C31.7273 13.7754 31.7965 13.7736 31.8658 13.7727C31.935 13.7718 32.0043 13.7717 32.0735 13.7725C32.1427 13.7733 32.2119 13.7749 32.2811 13.7774C34.5032 13.8486 36.4875 14.7871 38.0048 16.3938C37.5209 16.2293 37.035 16.047 36.5379 15.9273C36.4816 15.9131 36.4251 15.8996 36.3684 15.8866C36.3118 15.8738 36.2551 15.8615 36.1981 15.8498C36.1412 15.8382 36.0842 15.8272 36.0271 15.8168C35.9699 15.8064 35.9127 15.7967 35.8553 15.7876C35.7979 15.7785 35.7405 15.77 35.6829 15.7621C35.6254 15.7543 35.5677 15.7471 35.51 15.7405C35.4523 15.7339 35.3945 15.728 35.3367 15.7228C35.2789 15.7175 35.221 15.7128 35.163 15.7088C35.1051 15.7048 35.0471 15.7015 34.9891 15.6988C34.9311 15.696 34.873 15.6939 34.8149 15.6925C34.7569 15.6911 34.6988 15.6903 34.6408 15.6901C34.5827 15.69 34.5246 15.6905 34.4665 15.6917C34.4084 15.6928 34.3504 15.6946 34.2923 15.697C34.2343 15.6995 34.1763 15.7026 34.1184 15.7063C34.0604 15.71 34.0025 15.7143 33.9446 15.7193C33.8868 15.7243 33.829 15.73 33.7712 15.7363C33.7135 15.7426 33.6558 15.7495 33.5982 15.757C33.5406 15.7646 33.4831 15.7728 33.4257 15.7816C33.3683 15.7905 33.311 15.7999 33.2538 15.81C33.1966 15.8201 33.1395 15.8309 33.0826 15.8423C33.0256 15.8536 32.9688 15.8656 32.9121 15.8783C32.8554 15.8909 32.7989 15.9041 32.7424 15.918C32.686 15.9319 32.6298 15.9464 32.5738 15.9615C32.5177 15.9766 32.4618 15.9924 32.406 16.0088C32.3503 16.0251 32.2948 16.0421 32.2394 16.0597C32.1841 16.0773 32.1289 16.0955 32.0739 16.1143C32.019 16.1332 31.9643 16.1526 31.9098 16.1726C31.8552 16.1927 31.8009 16.2133 31.7469 16.2345C31.6928 16.2558 31.639 16.2776 31.5854 16.3C31.5319 16.3225 31.4785 16.3455 31.4254 16.3691C31.3724 16.3927 31.3196 16.4169 31.2671 16.4417C31.2145 16.4665 31.1623 16.4918 31.1103 16.5178C29.0163 17.5512 27.4047 19.4826 26.6669 21.6901C26.1567 23.217 26.2211 24.8113 26.2226 26.397L26.2274 29.2519L23.4983 29.2526Z" fill="#195E03"/>
<path d="M20.6324 30.929C21.4613 30.9333 22.2901 30.9332 23.1189 30.9285C23.5421 30.9268 23.9799 30.902 24.4016 30.9258L24.4028 32.7744C24.4001 33.5407 24.4108 34.3076 24.4031 35.0737L24.4034 37.2997L24.4019 39.5828L24.4023 41.7557C24.4046 42.4836 24.4194 43.2139 24.3986 43.9415C24.3818 44.6758 24.3602 45.4245 24.3939 46.1582C24.4129 46.8972 24.4258 47.6532 24.3868 48.3913C24.3758 49.1361 24.3747 49.8809 24.3836 50.6257L24.39 52.1318C24.3898 52.391 24.3688 52.6697 24.3928 52.9267C24.3035 53.8553 24.3976 54.9503 24.3933 55.9033C23.6342 55.8479 22.8527 55.8795 22.0909 55.8786L17.9001 55.8814L17.8999 53.4974L17.8994 52.4882C17.9202 50.8269 17.9031 49.1632 17.9038 47.5016L17.8905 30.9372L20.6324 30.929Z" fill="#1D1EB3"/>
<path d="M21.9706 34.8267C22.2426 35.129 22.3711 35.5203 22.3566 35.9258C22.3557 35.9504 22.3542 35.975 22.3521 35.9995C22.35 36.024 22.3473 36.0485 22.344 36.0728C22.3407 36.0972 22.3367 36.1215 22.3322 36.1457C22.3276 36.1698 22.3225 36.1939 22.3168 36.2178C22.3111 36.2418 22.3047 36.2655 22.2977 36.2891C22.2908 36.3127 22.2833 36.3361 22.2752 36.3593C22.2671 36.3826 22.2583 36.4056 22.2491 36.4283C22.2398 36.4511 22.23 36.4737 22.2196 36.496C22.2092 36.5183 22.1982 36.5403 22.1867 36.562C22.1752 36.5838 22.1631 36.6052 22.1506 36.6264C22.138 36.6475 22.1249 36.6683 22.1112 36.6888C22.0976 36.7093 22.0835 36.7294 22.0689 36.7492C22.0542 36.769 22.0391 36.7884 22.0235 36.8074C22.0079 36.8264 21.9918 36.845 21.9752 36.8632C21.9587 36.8814 21.9417 36.8992 21.9242 36.9165C21.9068 36.9339 21.889 36.9508 21.8707 36.9673C21.5249 37.2783 21.084 37.3859 20.6284 37.3603C20.6116 36.8502 20.6487 36.3224 20.6741 35.8124C20.8417 35.8027 21.012 35.7739 21.1669 35.7075C21.5646 35.5369 21.8197 35.2238 21.9706 34.8267Z" fill="#0E0B62"/>
<path d="M21.8309 51.9692C22.0442 52.2259 22.1295 52.5844 22.1048 52.9136C22.1028 52.9387 22.1002 52.9636 22.097 52.9885C22.0938 53.0135 22.09 53.0383 22.0856 53.063C22.0812 53.0878 22.0762 53.1124 22.0706 53.1369C22.065 53.1614 22.0588 53.1858 22.052 53.21C22.0452 53.2342 22.0378 53.2582 22.0299 53.282C22.0219 53.3058 22.0134 53.3294 22.0043 53.3529C21.9952 53.3763 21.9855 53.3995 21.9752 53.4224C21.965 53.4454 21.9542 53.4681 21.9429 53.4905C21.9315 53.5129 21.9196 53.535 21.9072 53.5569C21.8948 53.5788 21.8819 53.6003 21.8684 53.6215C21.855 53.6427 21.841 53.6636 21.8265 53.6841C21.812 53.7047 21.7971 53.7248 21.7816 53.7447C21.7661 53.7645 21.7502 53.7839 21.7338 53.8029C21.7174 53.8219 21.7005 53.8405 21.6832 53.8588C21.6659 53.877 21.6481 53.8948 21.6299 53.9121C21.6117 53.9294 21.5932 53.9463 21.5742 53.9628C21.2888 54.2075 20.922 54.3297 20.5469 54.2882C20.2175 54.2519 19.9334 54.0799 19.7343 53.8166C19.6604 53.7189 19.5965 53.6071 19.5367 53.5004L17.8999 53.4973L17.8994 52.4881C18.5441 52.4679 19.2059 52.5198 19.8468 52.456C20.152 52.6644 20.5123 52.7615 20.8792 52.6928C21.3222 52.6098 21.5859 52.3188 21.8309 51.9692Z" fill="#0E0B62"/>
<path d="M20.6321 33.0898C21.0593 33.122 21.4358 33.2513 21.7177 33.592C21.9459 33.8677 22.0622 34.2367 22.0182 34.5933C22.0086 34.6712 21.9884 34.7501 21.9705 34.8264C21.8197 35.2235 21.5645 35.5367 21.1669 35.7072C21.0119 35.7737 20.8417 35.8024 20.674 35.8122C20.6056 35.8057 20.5374 35.7973 20.4694 35.7872C20.0411 35.721 19.7244 35.4713 19.4763 35.1307C19.4049 34.9902 19.3524 34.8479 19.3258 34.692C19.2636 34.329 19.3337 33.9468 19.5555 33.6485C19.8302 33.279 20.1987 33.1578 20.6321 33.0898Z" fill="#FEFEFD"/>
<path d="M17.8905 30.9369L20.6324 30.9287C20.6363 31.6491 20.6363 32.3695 20.6321 33.0898C20.1987 33.1578 19.8302 33.279 19.5555 33.6485C19.3337 33.9468 19.2636 34.329 19.3258 34.692C19.3524 34.8479 19.4049 34.9902 19.4763 35.1307C19.7244 35.4713 20.0411 35.721 20.4694 35.7872C20.5374 35.7973 20.6056 35.8056 20.674 35.8121C20.6486 36.3221 20.6115 36.85 20.6283 37.36L20.6434 46.0994L20.6436 48.7261C20.6424 49.1442 20.5994 49.5853 20.6449 49.9991C20.7166 50.0222 20.7838 50.0385 20.8582 50.0503C21.26 50.1735 21.5904 50.3559 21.8028 50.7371C21.9676 51.0328 22.0179 51.4061 21.9241 51.7331C21.9009 51.8144 21.8654 51.8922 21.8308 51.9691C21.5859 52.3187 21.3221 52.6096 20.8791 52.6926C20.5123 52.7614 20.1519 52.6642 19.8468 52.4558C19.2058 52.5196 18.5441 52.4677 17.8994 52.488C17.9202 50.8267 17.9031 49.163 17.9038 47.5013L17.8905 30.9369Z" fill="#5B5CE9"/>
<path d="M19.4763 35.1309C19.7245 35.4714 20.0411 35.7211 20.4695 35.7874C20.5374 35.7975 20.6056 35.8058 20.674 35.8123C20.6487 36.3223 20.6115 36.8501 20.6283 37.3602C20.5468 37.3381 20.4655 37.3151 20.3863 37.2855C19.9867 37.1364 19.6657 36.7993 19.4972 36.411C19.3244 36.0129 19.3097 35.5333 19.4763 35.1309Z" fill="#1D1EB3"/>
<path d="M19.8468 52.4559C19.5496 52.1721 19.341 51.8164 19.3306 51.3967C19.3301 51.3745 19.3303 51.3524 19.3309 51.3302C19.3316 51.3081 19.3329 51.286 19.3347 51.2639C19.3365 51.2418 19.3389 51.2198 19.3418 51.1979C19.3447 51.1759 19.3482 51.154 19.3522 51.1323C19.3563 51.1105 19.3609 51.0888 19.366 51.0673C19.3711 51.0457 19.3768 51.0243 19.3831 51.003C19.3893 50.9818 19.396 50.9607 19.4033 50.9398C19.4106 50.9189 19.4184 50.8982 19.4267 50.8777C19.4351 50.8571 19.4439 50.8368 19.4533 50.8167C19.4627 50.7967 19.4726 50.7769 19.4829 50.7573C19.4933 50.7377 19.5042 50.7184 19.5155 50.6994C19.5268 50.6804 19.5387 50.6616 19.551 50.6432C19.5633 50.6248 19.576 50.6067 19.5893 50.5889C19.6025 50.5712 19.6161 50.5538 19.6303 50.5367C19.6443 50.5196 19.6589 50.5029 19.6738 50.4865C19.6888 50.4702 19.7041 50.4543 19.7199 50.4387C20.0436 50.1148 20.4221 50.0535 20.8582 50.0503C21.26 50.1735 21.5904 50.3559 21.8028 50.7371C21.9676 51.0328 22.0179 51.4062 21.9241 51.7332C21.9009 51.8144 21.8654 51.8922 21.8308 51.9691C21.5859 52.3187 21.3221 52.6097 20.8791 52.6927C20.5123 52.7614 20.1519 52.6642 19.8468 52.4559Z" fill="#FEFEFD"/>
<path d="M39.5575 30.9367C40.1995 30.9819 40.8511 30.9573 41.4947 30.9541C43.0311 30.9463 44.5844 30.8929 46.1191 30.9463L46.1137 47.2473L46.0995 53.1656C46.0994 54.0777 46.0841 54.993 46.1068 55.9047L41.7295 55.9098C41.0064 55.91 40.2766 55.9327 39.5543 55.9086C39.5588 55.2998 39.572 54.6895 39.5576 54.0807L39.5617 52.9156L39.5613 50.5888L39.5618 48.4658L39.5399 46.0975C39.5446 45.4165 39.5458 44.7356 39.5436 44.0547C39.5409 43.287 39.5146 42.5102 39.5538 41.7436C39.5691 41.0428 39.611 40.2914 39.54 39.5956C39.4732 38.8397 39.5226 38.0283 39.5325 37.2688C39.5631 36.5462 39.5652 35.8122 39.5435 35.0892C39.5295 34.3213 39.5191 33.5467 39.5423 32.7791C39.5955 32.1759 39.5594 31.5436 39.5575 30.9367Z" fill="#1D1EB3"/>
<path d="M42.0978 34.9146C42.2868 35.2827 42.5306 35.5532 42.9407 35.6767C43.2891 35.7816 43.6696 35.7507 43.9869 35.5687C44.2067 35.4426 44.3583 35.2695 44.4932 35.0584C44.5868 35.169 44.6288 35.3457 44.6515 35.4858C44.7221 35.9227 44.639 36.4225 44.3631 36.7753C44.1158 37.0914 43.7385 37.2766 43.3416 37.3107C42.939 37.3454 42.5496 37.2256 42.2473 36.9541C42.2293 36.9378 42.2116 36.921 42.1943 36.9038C42.177 36.8866 42.1602 36.869 42.1439 36.8509C42.1275 36.8328 42.1116 36.8144 42.0962 36.7956C42.0808 36.7767 42.0659 36.7574 42.0514 36.7378C42.0369 36.7182 42.023 36.6982 42.0095 36.6779C41.9961 36.6576 41.9831 36.6369 41.9707 36.6159C41.9583 36.595 41.9465 36.5737 41.9351 36.5521C41.9238 36.5305 41.913 36.5087 41.9028 36.4865C41.8926 36.4645 41.8829 36.4421 41.8738 36.4195C41.8648 36.3969 41.8562 36.374 41.8483 36.351C41.8403 36.3279 41.833 36.3047 41.8262 36.2814C41.8195 36.2579 41.8133 36.2344 41.8077 36.2107C41.8021 36.1869 41.7971 36.1631 41.7928 36.1391C41.7884 36.1152 41.7846 36.0911 41.7815 36.0669C41.7783 36.0428 41.7758 36.0185 41.7738 35.9942C41.7719 35.9699 41.7706 35.9456 41.7699 35.9212C41.7562 35.5646 41.8461 35.1781 42.0978 34.9146Z" fill="#0E0B62"/>
<path d="M44.5875 51.958C44.8323 52.3531 44.9495 52.7594 44.8417 53.2246C44.7473 53.6321 44.5101 54.0078 44.1448 54.2223C43.7835 54.4344 43.2896 54.4946 42.8867 54.3804C42.8623 54.3736 42.8382 54.3663 42.8142 54.3583C42.7902 54.3504 42.7665 54.3418 42.7429 54.3327C42.7194 54.3235 42.6961 54.3138 42.673 54.3035C42.6499 54.2932 42.6271 54.2823 42.6046 54.2709C42.5821 54.2594 42.5599 54.2474 42.538 54.2349C42.516 54.2223 42.4944 54.2093 42.4732 54.1956C42.4519 54.182 42.431 54.1679 42.4104 54.1532C42.3898 54.1385 42.3696 54.1234 42.3498 54.1077C42.33 54.092 42.3106 54.0759 42.2916 54.0593C42.2726 54.0426 42.254 54.0255 42.2359 54.0079C42.2177 53.9904 42.2 53.9723 42.1828 53.9539C42.1655 53.9354 42.1487 53.9166 42.1324 53.8973C42.1161 53.878 42.1003 53.8583 42.085 53.8383C42.0696 53.8182 42.0548 53.7977 42.0405 53.7769C42.0262 53.7561 42.0124 53.7349 41.9991 53.7134C41.9858 53.6919 41.9731 53.6701 41.961 53.648C41.7566 53.2701 41.7197 52.8048 41.8487 52.3961C41.8958 52.2466 41.9608 52.1175 42.0398 51.9831C42.2025 52.2911 42.4051 52.5301 42.7243 52.6876C43.0473 52.8469 43.419 52.8839 43.7618 52.7659C44.1717 52.6248 44.4077 52.3361 44.5875 51.958Z" fill="#0E0B62"/>
<path d="M42.0979 34.9146C41.9855 34.5542 41.9625 34.1995 42.1399 33.8526C42.3065 33.5264 42.6207 33.2829 42.9709 33.1824C43.3199 33.0822 43.6852 33.133 43.9977 33.3167C44.3075 33.4987 44.5354 33.7924 44.6125 34.1453C44.6827 34.4657 44.6176 34.7564 44.4956 35.0523C44.4947 35.0543 44.494 35.0564 44.4933 35.0584C44.3584 35.2696 44.2068 35.4427 43.987 35.5687C43.6697 35.7507 43.2892 35.7817 42.9408 35.6767C42.5307 35.5533 42.2869 35.2827 42.0979 34.9146Z" fill="#FEFEFD"/>
<path d="M42.0398 51.9829C41.9602 51.7038 41.9317 51.4207 42.0067 51.1364C42.0937 50.8064 42.3229 50.5238 42.6162 50.353C42.6358 50.3415 42.6557 50.3305 42.6759 50.32C42.696 50.3095 42.7164 50.2995 42.7371 50.29C42.7578 50.2805 42.7787 50.2715 42.7998 50.2631C42.8209 50.2546 42.8422 50.2467 42.8637 50.2392C42.8853 50.2319 42.907 50.225 42.9288 50.2187C42.9506 50.2123 42.9726 50.2066 42.9948 50.2014C43.0169 50.1961 43.0392 50.1914 43.0615 50.1873C43.0839 50.1832 43.1064 50.1796 43.1289 50.1766C43.1515 50.1736 43.1741 50.1712 43.1967 50.1693C43.2194 50.1674 43.2421 50.1661 43.2649 50.1653C43.2876 50.1645 43.3103 50.1644 43.333 50.1647C43.3558 50.1651 43.3785 50.1661 43.4012 50.1676C43.4239 50.1691 43.4466 50.1711 43.4692 50.1737C43.4918 50.1764 43.5143 50.1796 43.5367 50.1833C43.5591 50.1871 43.5815 50.1914 43.6037 50.1962C43.6259 50.2011 43.648 50.2065 43.67 50.2124C44.0225 50.3111 44.3437 50.5561 44.5197 50.8786C44.7128 51.2326 44.691 51.5829 44.5875 51.9578C44.4077 52.3359 44.1717 52.6246 43.7619 52.7657C43.419 52.8837 43.0474 52.8467 42.7244 52.6874C42.4051 52.5299 42.2025 52.2909 42.0398 51.9829Z" fill="#FEFEFD"/>
<path d="M26.2275 29.2517L26.2227 26.3968C26.2212 24.8111 26.1568 23.2168 26.667 21.69C27.4048 19.4824 29.0164 17.551 31.1104 16.5176C31.1624 16.4916 31.2146 16.4663 31.2672 16.4415C31.3197 16.4167 31.3725 16.3925 31.4255 16.3689C31.4786 16.3453 31.532 16.3223 31.5855 16.2998C31.6391 16.2774 31.6929 16.2556 31.747 16.2343C31.801 16.2131 31.8553 16.1925 31.9099 16.1725C31.9644 16.1524 32.0191 16.133 32.074 16.1141C32.129 16.0954 32.1841 16.0771 32.2395 16.0595C32.2949 16.0419 32.3504 16.025 32.4061 16.0086C32.4619 15.9922 32.5178 15.9765 32.5739 15.9613C32.6299 15.9462 32.6861 15.9317 32.7425 15.9178C32.799 15.904 32.8555 15.8907 32.9122 15.8781C32.9689 15.8654 33.0257 15.8534 33.0827 15.8421C33.1396 15.8307 33.1967 15.82 33.2539 15.8098C33.3111 15.7998 33.3684 15.7903 33.4258 15.7815C33.4832 15.7726 33.5407 15.7644 33.5983 15.7568C33.6559 15.7493 33.7135 15.7424 33.7713 15.7361C33.829 15.7298 33.8869 15.7241 33.9447 15.7191C34.0026 15.7141 34.0605 15.7098 34.1185 15.7061C34.1764 15.7024 34.2344 15.6993 34.2924 15.6968C34.3505 15.6944 34.4085 15.6926 34.4666 15.6915C34.5247 15.6904 34.5828 15.6898 34.6408 15.69C34.6989 15.6901 34.757 15.6909 34.815 15.6923C34.8731 15.6938 34.9312 15.6958 34.9892 15.6986C35.0472 15.7013 35.1052 15.7046 35.1631 15.7086C35.2211 15.7126 35.279 15.7173 35.3368 15.7226C35.3946 15.7278 35.4524 15.7338 35.5101 15.7403C35.5678 15.7469 35.6255 15.7541 35.683 15.762C35.7406 15.7698 35.798 15.7783 35.8554 15.7874C35.9127 15.7965 35.97 15.8062 36.0272 15.8166C36.0843 15.827 36.1413 15.838 36.1982 15.8496C36.2551 15.8613 36.3119 15.8736 36.3685 15.8865C36.4252 15.8994 36.4816 15.9129 36.538 15.9271C37.0351 16.0468 37.521 16.2291 38.0049 16.3936C38.3182 16.6235 38.5697 16.9448 38.7987 17.2551C39.5979 18.338 40.1415 19.5636 40.3462 20.896C40.5242 22.0545 40.4336 23.5473 40.4318 24.7433C40.4295 26.2407 40.4778 27.7558 40.4265 29.2515L26.2275 29.2517Z" fill="#D93C13"/>
<path d="M15.6785 24.2223C15.6638 22.8967 15.6203 21.5596 15.7631 20.2393C16.1391 16.7616 17.7874 13.4521 20.2271 10.9592C20.3212 10.8627 20.4165 10.7673 20.513 10.6731C20.6094 10.5789 20.707 10.4858 20.8058 10.394C20.9045 10.3022 21.0044 10.2116 21.1053 10.1223C21.2063 10.0329 21.3084 9.94479 21.4115 9.85795C21.5146 9.77108 21.6188 9.68549 21.7241 9.6012C21.8293 9.51691 21.9356 9.43393 22.0428 9.35227C22.1501 9.27056 22.2584 9.1902 22.3676 9.1112C22.4769 9.03216 22.5871 8.95447 22.6983 8.87814C22.8094 8.80185 22.9215 8.72691 23.0345 8.65333C23.1475 8.57974 23.2613 8.50758 23.3761 8.43683C23.4909 8.36604 23.6065 8.29668 23.723 8.22877C23.8395 8.16085 23.9567 8.09437 24.0748 8.02933C24.193 7.96425 24.3118 7.90064 24.4315 7.83852C24.5512 7.77639 24.6716 7.71574 24.7928 7.65658C24.9139 7.59741 25.0357 7.53972 25.1583 7.48352C25.2809 7.42735 25.4042 7.37268 25.5281 7.31952C25.652 7.26635 25.7765 7.21472 25.9017 7.16464C26.0269 7.11456 26.1527 7.06602 26.2791 7.01902C26.4055 6.97202 26.5324 6.92656 26.6599 6.88264C26.7874 6.83877 26.9154 6.79645 27.0439 6.7557C27.1724 6.71495 27.3015 6.67579 27.431 6.6382C27.5605 6.60062 27.6904 6.56464 27.8208 6.53027C27.9511 6.49589 28.0819 6.46312 28.2131 6.43195C28.3443 6.40074 28.4758 6.37118 28.6077 6.34327C28.7396 6.31531 28.8719 6.28897 29.0045 6.26427C29.137 6.23959 29.2698 6.21653 29.403 6.1951C29.5361 6.17366 29.6694 6.15386 29.803 6.1357C29.9366 6.11754 30.0705 6.10103 30.2045 6.08616C30.3385 6.07128 30.4726 6.05806 30.607 6.04648C30.7413 6.03491 30.8758 6.02498 31.0103 6.0167C31.1449 6.00843 31.2796 6.00181 31.4143 5.99683C31.5491 5.99187 31.6839 5.98856 31.8187 5.9869C31.9517 5.98506 32.0847 5.98486 32.2176 5.98629C32.3506 5.98772 32.4836 5.99078 32.6165 5.99548C32.7494 6.00017 32.8823 6.0065 33.015 6.01445C33.1478 6.02241 33.2805 6.032 33.413 6.04321C33.5455 6.05443 33.6779 6.06727 33.8101 6.08173C33.9423 6.09619 34.0743 6.11228 34.2061 6.12998C34.3379 6.14769 34.4695 6.16702 34.6008 6.18795C34.7322 6.20889 34.8632 6.23143 34.994 6.25558C35.1248 6.27974 35.2553 6.30552 35.3855 6.33289C35.5156 6.36022 35.6454 6.38916 35.7748 6.4197C35.9043 6.45024 36.0333 6.48239 36.162 6.51614C36.2906 6.54985 36.4188 6.58514 36.5466 6.62202C36.6744 6.65885 36.8017 6.69727 36.9286 6.73727C37.0554 6.77727 37.1817 6.81881 37.3076 6.86189C37.4334 6.90497 37.5587 6.9496 37.6834 6.99577C37.8081 7.04193 37.9323 7.08964 38.0558 7.13889C38.1794 7.1881 38.3023 7.23883 38.4246 7.29108C38.5469 7.34329 38.6686 7.39702 38.7896 7.45227C38.9106 7.50747 39.0309 7.56416 39.1504 7.62233C39.27 7.68054 39.3889 7.74018 39.5071 7.80127C39.6252 7.86235 39.7426 7.92489 39.8591 7.98889C39.9758 8.05285 40.0916 8.11824 40.2065 8.18508C40.3215 8.25191 40.4357 8.32014 40.549 8.38977C40.6623 8.45939 40.7747 8.53039 40.8863 8.60277C40.9979 8.67514 41.1086 8.74889 41.2183 8.82402C41.3281 8.8991 41.4369 8.97554 41.5448 9.05333C41.6527 9.13108 41.7596 9.21016 41.8656 9.29058C41.9715 9.37099 42.0764 9.45268 42.1804 9.53564C42.2843 9.61864 42.3872 9.70289 42.4891 9.78839C42.591 9.87389 42.6918 9.96064 42.7915 10.0486C42.8912 10.1366 42.9899 10.2258 43.0875 10.3162C43.185 10.4066 43.2814 10.4982 43.3767 10.591C43.4583 10.6714 43.5391 10.7527 43.6191 10.8348C43.699 10.9169 43.7781 10.9998 43.8563 11.0836C43.9346 11.1673 44.0119 11.2519 44.0884 11.3372C44.1649 11.4225 44.2406 11.5087 44.3153 11.5956C44.39 11.6825 44.4638 11.7701 44.5368 11.8585C44.6097 11.9469 44.6817 12.0361 44.7528 12.126C44.8238 12.2159 44.894 12.3066 44.9632 12.3979C45.0325 12.4892 45.1007 12.5813 45.168 12.674C45.2353 12.7668 45.3017 12.8602 45.3671 12.9543C45.4325 13.0485 45.4969 13.1432 45.5604 13.2386C45.6238 13.3341 45.6862 13.4302 45.7477 13.527C45.8092 13.6237 45.8697 13.721 45.9291 13.819C45.9886 13.917 46.047 14.0155 46.1045 14.1147C46.1619 14.2139 46.2183 14.3137 46.2736 14.414C46.329 14.5143 46.3833 14.6152 46.4366 14.7167C46.4899 14.8182 46.5422 14.9202 46.5934 15.0227C46.6446 15.1252 46.6947 15.2283 46.7438 15.3319C46.7928 15.4355 46.8408 15.5395 46.8878 15.6441C46.9347 15.7486 46.9806 15.8537 47.0253 15.9592C47.0701 16.0647 47.1137 16.1706 47.1563 16.277C47.1989 16.3834 47.2404 16.4903 47.2808 16.5975C47.3211 16.7048 47.3604 16.8124 47.3986 16.9205C47.4367 17.0286 47.4738 17.137 47.5098 17.2458C47.5457 17.3547 47.5805 17.4639 47.6141 17.5735C47.6478 17.683 47.6804 17.7929 47.7118 17.9031C47.7432 18.0133 47.7735 18.1238 47.8026 18.2346C47.8318 18.3455 47.8598 18.4566 47.8866 18.568C47.9135 18.6794 47.9392 18.7911 47.9637 18.9031C47.9883 19.015 48.0117 19.1272 48.034 19.2396C48.0562 19.3521 48.0772 19.4647 48.0971 19.5776C48.1171 19.6905 48.1358 19.8035 48.1535 19.9168C48.171 20.03 48.1875 20.1434 48.2027 20.257C48.3731 21.5759 48.3635 22.8869 48.3721 24.2135C47.3903 24.2136 46.4046 24.2324 45.4233 24.2094L45.4 24.212C44.2921 24.2096 43.1753 24.2351 42.0683 24.1899C42.0613 23.173 42.1095 22.1174 42.0006 21.1072C41.7578 18.8537 40.6703 16.6847 39.057 15.1016C37.5624 13.635 35.5685 12.5966 33.4888 12.2983C32.921 12.2169 32.354 12.2065 31.7817 12.2131C29.0703 12.244 26.5851 13.4291 24.7066 15.3581C22.9896 17.1215 22.0813 19.3218 21.9033 21.7632C21.8441 22.5768 21.8789 23.4128 21.8782 24.2293C21.3409 24.2222 20.803 24.229 20.2656 24.23C19.7393 24.2191 19.2117 24.2348 18.685 24.2265C17.6828 24.2326 16.6806 24.2312 15.6785 24.2223Z" fill="#B9B5C5"/>
<path d="M18.6849 24.2262C18.6858 23.0525 18.6449 21.8602 18.7697 20.692C18.7804 20.6007 18.792 20.5095 18.8046 20.4184C18.8172 20.3274 18.8308 20.2365 18.8453 20.1457C18.8598 20.0549 18.8752 19.9642 18.8917 19.8737C18.9081 19.7833 18.9255 19.693 18.9438 19.6029C18.9622 19.5128 18.9814 19.4229 19.0016 19.3332C19.0219 19.2435 19.0431 19.154 19.0651 19.0648C19.0873 18.9755 19.1103 18.8865 19.1343 18.7978C19.1583 18.709 19.1833 18.6205 19.2091 18.5323C19.235 18.4441 19.2618 18.3561 19.2895 18.2685C19.3172 18.1808 19.3459 18.0934 19.3754 18.0063C19.405 17.9193 19.4355 17.8326 19.4668 17.7462C19.4982 17.6597 19.5306 17.5737 19.5638 17.4879C19.597 17.4022 19.6311 17.3168 19.6661 17.2318C19.7011 17.1467 19.737 17.0621 19.7738 16.9778C19.8106 16.8936 19.8482 16.8097 19.8868 16.7263C19.9254 16.6428 19.9648 16.5597 20.0051 16.4771C20.0455 16.3945 20.0867 16.3123 20.1287 16.2305C20.1707 16.1487 20.2137 16.0674 20.2575 15.9866C20.3012 15.9057 20.3458 15.8253 20.3913 15.7454C20.4367 15.6655 20.483 15.5861 20.5302 15.5072C20.5773 15.4282 20.6253 15.3498 20.6741 15.2718C20.7229 15.1939 20.7725 15.1165 20.8229 15.0396C20.8734 14.9627 20.9246 14.8864 20.9766 14.8106C21.0287 14.7348 21.0815 14.6596 21.1351 14.5848C21.1888 14.5102 21.2432 14.4361 21.2983 14.3625C21.3535 14.289 21.4095 14.216 21.4662 14.1437C21.523 14.0713 21.5805 13.9996 21.6387 13.9284C21.697 13.8573 21.7559 13.7868 21.8156 13.7168C21.8754 13.647 21.9359 13.5777 21.9971 13.5091C22.0582 13.4405 22.1201 13.3725 22.1828 13.3052C22.2454 13.2379 22.3087 13.1712 22.3728 13.1052C22.4368 13.0393 22.5015 12.974 22.567 12.9093C22.6444 12.8326 22.7228 12.7569 22.8021 12.6821C22.8814 12.6073 22.9616 12.5334 23.0426 12.4605C23.1237 12.3877 23.2057 12.3158 23.2885 12.2449C23.3713 12.174 23.455 12.1042 23.5395 12.0353C23.624 11.9664 23.7093 11.8986 23.7955 11.8318C23.8816 11.765 23.9685 11.6993 24.0563 11.6346C24.144 11.5699 24.2325 11.5063 24.3218 11.4437C24.4111 11.3812 24.5011 11.3197 24.5919 11.2593C24.6826 11.199 24.7741 11.1397 24.8663 11.0815C24.9585 11.0234 25.0514 10.9663 25.145 10.9105C25.2386 10.8546 25.3329 10.7998 25.4278 10.7462C25.5227 10.6925 25.6182 10.6401 25.7144 10.5887C25.8106 10.5374 25.9074 10.4873 26.0048 10.4383C26.1021 10.3893 26.2001 10.3416 26.2986 10.295C26.3972 10.2484 26.4963 10.203 26.596 10.1588C26.6956 10.1146 26.7958 10.0716 26.8965 10.0298C26.9972 9.98804 27.0984 9.94749 27.2 9.90816C27.3017 9.86883 27.4038 9.83072 27.5064 9.79385C27.609 9.75701 27.712 9.72141 27.8155 9.68703C27.9189 9.6527 28.0228 9.6196 28.127 9.58772C28.2313 9.55589 28.3359 9.52531 28.4409 9.49597C28.5459 9.46668 28.6512 9.43864 28.7569 9.41185C28.8626 9.3851 28.9686 9.35962 29.0749 9.33541C29.1812 9.3112 29.2877 9.28831 29.3946 9.26672C29.5014 9.2451 29.6085 9.22476 29.7158 9.20572C29.8232 9.18668 29.9307 9.16895 30.0385 9.15253C30.1463 9.13612 30.2542 9.12099 30.3623 9.10716C30.4705 9.09337 30.5788 9.08087 30.6872 9.06966C30.7956 9.05849 30.9042 9.04862 31.0129 9.04004C31.1216 9.03149 31.2303 9.02424 31.3391 9.01828C31.448 9.01237 31.5569 9.00776 31.6659 9.00447C31.7749 9.00118 31.8838 8.9992 31.9928 8.99854C32.1031 8.99874 32.2134 9.00033 32.3236 9.00328C32.4339 9.0062 32.5441 9.01049 32.6542 9.01616C32.7644 9.02183 32.8744 9.02885 32.9844 9.03722C33.0944 9.04556 33.2042 9.05526 33.314 9.06635C33.4237 9.07743 33.5332 9.08987 33.6427 9.10366C33.7521 9.11745 33.8614 9.1326 33.9704 9.1491C34.0794 9.1656 34.1883 9.18343 34.2969 9.2026C34.4055 9.22176 34.5138 9.24226 34.622 9.2641C34.7301 9.28593 34.8379 9.3091 34.9454 9.3336C35.0529 9.35814 35.1602 9.38397 35.2671 9.4111C35.374 9.43826 35.4805 9.46674 35.5867 9.49654C35.6929 9.52629 35.7987 9.55737 35.9041 9.58978C36.0095 9.62216 36.1145 9.65585 36.2191 9.69085C36.3237 9.72581 36.4279 9.76208 36.5316 9.79966C36.6353 9.8372 36.7385 9.87603 36.8412 9.91616C36.944 9.95624 37.0462 9.9976 37.1479 10.0402C37.2496 10.0828 37.3508 10.1267 37.4515 10.1718C37.5521 10.217 37.6521 10.2633 37.7516 10.3109C37.8511 10.3585 37.95 10.4073 38.0483 10.4573C38.1466 10.5074 38.2442 10.5586 38.3413 10.6111C38.4383 10.6635 38.5346 10.7171 38.6303 10.772C38.726 10.8268 38.821 10.8828 38.9153 10.94C39.0097 10.9971 39.1033 11.0555 39.1961 11.1149C39.289 11.1744 39.3811 11.235 39.4725 11.2968C39.5639 11.3585 39.6545 11.4214 39.7443 11.4854C39.8342 11.5494 39.9232 11.6145 40.0115 11.6807C40.0997 11.7468 40.187 11.8141 40.2736 11.8824C40.3602 11.9508 40.4459 12.0202 40.5307 12.0906C40.6156 12.1611 40.6996 12.2326 40.7826 12.3051C40.8657 12.3776 40.9479 12.4512 41.0291 12.5257C41.1104 12.6003 41.1908 12.6759 41.2701 12.7524C41.3496 12.829 41.428 12.9065 41.5055 12.9849C41.5755 13.0563 41.6446 13.1285 41.713 13.2015C41.7814 13.2744 41.849 13.3481 41.9157 13.4225C41.9825 13.4969 42.0484 13.572 42.1135 13.6479C42.1786 13.7238 42.2429 13.8004 42.3063 13.8777C42.3697 13.9549 42.4323 14.0329 42.494 14.1115C42.5557 14.1902 42.6166 14.2695 42.6765 14.3495C42.7365 14.4295 42.7956 14.5101 42.8538 14.5914C42.912 14.6727 42.9693 14.7546 43.0257 14.8371C43.0821 14.9196 43.1376 15.0028 43.1922 15.0865C43.2468 15.1703 43.3004 15.2547 43.3531 15.3396C43.4059 15.4246 43.4577 15.5101 43.5085 15.5961C43.5594 15.6822 43.6093 15.7688 43.6583 15.856C43.7072 15.9431 43.7552 16.0308 43.8023 16.119C43.8493 16.2072 43.8953 16.296 43.9404 16.3852C43.9855 16.4744 44.0296 16.5641 44.0727 16.6543C44.1158 16.7446 44.158 16.8352 44.1991 16.9263C44.2402 17.0175 44.2803 17.109 44.3195 17.201C44.3586 17.293 44.3967 17.3855 44.4338 17.4783C44.4709 17.5711 44.5069 17.6643 44.542 17.758C44.577 17.8516 44.611 17.9456 44.644 18.04C44.677 18.1343 44.7089 18.2291 44.7398 18.3242C44.7708 18.4192 44.8006 18.5146 44.8294 18.6103C44.8582 18.7061 44.886 18.8021 44.9126 18.8985C44.9394 18.9948 44.965 19.0914 44.9896 19.1883C45.0142 19.2853 45.0377 19.3824 45.0601 19.4798C45.0826 19.5773 45.104 19.6749 45.1243 19.7728C45.1446 19.8707 45.1638 19.9688 45.182 20.0671C45.2001 20.1654 45.2172 20.2639 45.2332 20.3626C45.2492 20.4613 45.2641 20.5601 45.278 20.6592C45.2918 20.7582 45.3045 20.8573 45.3161 20.9566C45.3278 21.0559 45.3384 21.1553 45.3478 21.2548C45.3573 21.3543 45.3657 21.454 45.373 21.5537C45.4186 22.1412 45.4101 22.7278 45.4076 23.3166C45.4065 23.5932 45.3701 23.9388 45.4232 24.209L45.3999 24.2117C44.292 24.2092 43.1752 24.2347 42.0682 24.1895C42.0612 23.1727 42.1095 22.117 42.0006 21.1068C41.7577 18.8533 40.6703 16.6843 39.057 15.1013C37.5623 13.6347 35.5685 12.5963 33.4888 12.298C32.921 12.2165 32.354 12.2062 31.7816 12.2127C29.0702 12.2437 26.5851 13.4287 24.7066 15.3578C22.9895 17.1211 22.0813 19.3215 21.9033 21.7628C21.844 22.5764 21.8788 23.4124 21.8781 24.2289C21.3408 24.2218 20.8029 24.2286 20.2655 24.2297C19.7392 24.2188 19.2116 24.2345 18.6849 24.2262Z" fill="#A40AEF"/>
<path d="M24.4027 32.7744L39.5423 32.7795C39.5191 33.5471 39.5295 34.3217 39.5435 35.0896C39.5652 35.8125 39.5632 36.5465 39.5325 37.2692C39.5226 38.0287 39.4732 38.84 39.54 39.596C39.611 40.2918 39.5691 41.0432 39.5538 41.744C39.5146 42.5105 39.5409 43.2874 39.5436 44.055C39.5459 44.736 39.5446 45.4169 39.5399 46.0979L39.5618 48.4662L39.5613 50.5892L39.5617 52.916L39.5576 54.0811C39.572 54.6899 39.5588 55.3002 39.5543 55.909L24.3932 55.9034C24.3976 54.9503 24.3035 53.8553 24.3927 52.9267C24.3687 52.6697 24.3898 52.391 24.39 52.1318L24.3835 50.6257C24.3747 49.8808 24.3758 49.136 24.3867 48.3913C24.4257 47.6532 24.4129 46.8972 24.3939 46.1582C24.3602 45.4245 24.3817 44.6758 24.3986 43.9415C24.4194 43.2139 24.4045 42.4836 24.4023 41.7557L24.4018 39.5828L24.4034 37.2997L24.403 35.0737C24.4107 34.3076 24.4001 33.5407 24.4027 32.7744Z" fill="#010100"/>
<path d="M29.7037 36.301C30.6499 35.6744 31.8599 35.4787 32.9695 35.7103C33.0384 35.7243 33.1069 35.7401 33.1749 35.7576C33.243 35.7751 33.3106 35.7943 33.3777 35.8152C33.4448 35.8361 33.5113 35.8587 33.5772 35.8829C33.6432 35.9072 33.7085 35.9331 33.7732 35.9607C33.8378 35.9882 33.9018 36.0174 33.9649 36.0481C34.0281 36.0789 34.0905 36.1113 34.152 36.1452C34.2136 36.1791 34.2743 36.2145 34.334 36.2515C34.3938 36.2884 34.4526 36.3269 34.5104 36.3669C34.5683 36.4068 34.625 36.4481 34.6808 36.4909C34.7365 36.5337 34.7912 36.5779 34.8447 36.6234C34.8982 36.669 34.9506 36.7158 35.0017 36.7641C35.0529 36.8122 35.1028 36.8617 35.1515 36.9124C35.2002 36.9631 35.2475 37.015 35.2935 37.0681C35.3396 37.1211 35.3843 37.1753 35.4276 37.2307C35.4709 37.286 35.5128 37.3424 35.5533 37.3999C35.5938 37.4573 35.6328 37.5158 35.6703 37.5752C35.7066 37.6308 35.7417 37.6873 35.7754 37.7446C35.8091 37.8019 35.8414 37.86 35.8724 37.9188C35.9033 37.9776 35.9329 38.0372 35.9611 38.0974C35.9893 38.1576 36.016 38.2184 36.0414 38.2799C36.0667 38.3413 36.0906 38.4033 36.113 38.4659C36.1354 38.5285 36.1563 38.5916 36.1757 38.6551C36.1952 38.7187 36.2132 38.7827 36.2296 38.8471C36.2461 38.9115 36.261 38.9762 36.2744 39.0414C36.2878 39.1064 36.2997 39.1718 36.3101 39.2375C36.3204 39.3032 36.3292 39.369 36.3365 39.4351C36.3438 39.5012 36.3495 39.5674 36.3536 39.6337C36.3578 39.7001 36.3604 39.7665 36.3614 39.833C36.3625 39.8994 36.3619 39.9659 36.3599 40.0323C36.3578 40.0988 36.3542 40.1651 36.349 40.2314C36.3438 40.2977 36.337 40.3638 36.3287 40.4297C36.3204 40.4957 36.3106 40.5614 36.2992 40.6269C36.2794 40.1841 36.2762 39.7289 36.1857 39.2936C35.9587 38.2024 35.2324 37.1497 34.2989 36.5448C33.4544 35.9976 32.6257 35.8186 31.6304 35.831C31.3268 35.8347 31.0359 35.8387 30.7405 35.9187C30.4192 36.0056 30.028 36.2426 29.745 36.2942C29.7313 36.2967 29.7175 36.2987 29.7037 36.301Z" fill="#FEFEFD"/>
<path d="M24.4019 39.5827C25.3028 39.5797 26.2037 39.5826 27.1045 39.5916C27.1237 40.3701 27.1972 41.0141 27.4483 41.7543C27.8881 42.8991 28.3234 43.1661 29.1684 43.9541C27.5798 43.9238 25.9877 43.9424 24.3987 43.9414C24.4195 43.2138 24.4046 42.4835 24.4024 41.7556L24.4019 39.5827Z" fill="#F90801"/>
<path d="M24.4019 39.5827C25.3027 39.5797 26.2036 39.5826 27.1044 39.5916C27.1236 40.3701 27.1972 41.0141 27.4482 41.7543C26.4336 41.7413 25.4171 41.7548 24.4023 41.7556L24.4019 39.5827Z" fill="#FEFEFD"/>
<path d="M36.914 39.5999C37.784 39.5633 38.6685 39.5959 39.54 39.5959C39.611 40.2917 39.5691 41.043 39.5538 41.7439C39.5146 42.5104 39.541 43.2873 39.5437 44.0549C38.9901 44.0183 38.423 44.0425 37.8682 44.043L34.6787 44.0413C34.8647 43.8822 35.076 43.7474 35.2646 43.5886C35.8762 43.0739 36.2936 42.46 36.601 41.7266C36.8731 41.0135 36.924 40.353 36.914 39.5999Z" fill="#F90801"/>
<path d="M36.914 39.5999C37.784 39.5633 38.6685 39.5959 39.54 39.5959C39.611 40.2917 39.5691 41.043 39.5538 41.7439L37.677 41.7407C37.3225 41.7405 36.9531 41.7607 36.601 41.7266C36.8731 41.0135 36.924 40.353 36.914 39.5999Z" fill="#FEFEFD"/>
<path d="M32.6525 35.1067C33.3212 35.0226 34.3489 35.0729 35.0452 35.0744L39.5435 35.0893C39.5652 35.8122 39.5632 36.5462 39.5325 37.2689C39.5226 38.0284 39.4732 38.8397 39.54 39.5957C38.6684 39.5957 37.7839 39.5631 36.914 39.5997C36.8705 38.731 36.525 38.0079 36.1085 37.263C35.1044 35.9681 34.2638 35.4422 32.6525 35.1067Z" fill="#FEFEFD"/>
<path d="M36.1085 37.263C37.2495 37.2874 38.392 37.2436 39.5325 37.2689C39.5226 38.0284 39.4732 38.8398 39.54 39.5957C38.6684 39.5958 37.7839 39.5631 36.914 39.5997C36.8705 38.731 36.525 38.008 36.1085 37.263Z" fill="#F90801"/>
<path d="M24.403 35.0733L28.9324 35.0752C29.5606 35.0744 30.6822 35.0125 31.2672 35.1163C29.8546 35.429 28.7403 36.1199 27.8906 37.2969C27.5079 37.9609 27.1062 38.8065 27.1044 39.5913C26.2036 39.5823 25.3027 39.5793 24.4019 39.5824L24.4034 37.2993L24.403 35.0733Z" fill="#FEFEFD"/>
<path d="M24.4034 37.2997C25.5015 37.3243 26.8032 37.354 27.8906 37.2974C27.5079 37.9614 27.1062 38.8069 27.1044 39.5918C26.2036 39.5828 25.3027 39.5798 24.4019 39.5829L24.4034 37.2997Z" fill="#F90801"/>
<path d="M34.6787 44.0413L37.8682 44.043C38.4231 44.0425 38.9901 44.0183 39.5437 44.0549C39.546 44.7359 39.5447 45.4168 39.54 46.0977L39.5619 48.4661C37.9077 48.4256 36.2462 48.4455 34.5918 48.4622C34.6189 47.6788 34.6021 46.888 34.5964 46.104C34.5922 45.615 34.5266 44.5246 34.6109 44.082L34.6787 44.0413Z" fill="#F90801"/>
<path d="M34.6787 44.0413L37.8682 44.043C38.4231 44.0425 38.9901 44.0183 39.5437 44.0549C39.546 44.7359 39.5447 45.4168 39.54 46.0977L34.5964 46.104C34.5922 45.615 34.5266 44.5246 34.6109 44.082L34.6787 44.0413Z" fill="#FEFEFD"/>
<path d="M24.3986 43.9413C25.9876 43.9423 27.5797 43.9237 29.1683 43.9539L29.3953 44.0184C29.383 44.7288 29.4127 45.4498 29.3783 46.1582C29.3681 46.9031 29.3564 47.6563 29.3815 48.4007C27.7198 48.3625 26.0493 48.3954 24.3867 48.3911C24.4257 47.653 24.4129 46.8969 24.3939 46.158C24.3602 45.4243 24.3817 44.6756 24.3986 43.9413Z" fill="#F90801"/>
<path d="M24.3986 43.9413C25.9876 43.9423 27.5797 43.9237 29.1683 43.9539L29.3953 44.0184C29.383 44.7288 29.4127 45.4498 29.3783 46.1582L24.3939 46.158C24.3602 45.4243 24.3817 44.6756 24.3986 43.9413Z" fill="#FEFEFD"/>
<path d="M24.3868 48.3909C26.0493 48.3952 27.7199 48.3623 29.3816 48.4005C29.3846 48.9614 29.3598 49.5295 29.3887 50.089L34.5839 50.0887C34.5852 49.5475 34.5736 49.0028 34.5918 48.462C36.2462 48.4453 37.9077 48.4253 39.5618 48.4658L39.5613 50.5888L24.3836 50.6253C24.3748 49.8804 24.3758 49.1357 24.3868 48.3909Z" fill="#FEFEFD"/>
<path d="M24.4028 32.7744L39.5424 32.7795C39.5191 33.5471 39.5295 34.3217 39.5436 35.0896L35.0453 35.0747C34.349 35.0732 33.3213 35.0229 32.6525 35.107C32.1935 35.0874 31.7253 35.0769 31.2673 35.1167C30.6823 35.0129 29.5606 35.0748 28.9324 35.0756L24.4031 35.0737C24.4108 34.3076 24.4001 33.5407 24.4028 32.7744Z" fill="#F90801"/>
<path d="M24.3835 50.6253L39.5613 50.5889L39.5617 52.9157C37.7521 52.8653 35.9295 52.9163 34.1184 52.9186L24.3927 52.9263C24.3687 52.6694 24.3898 52.3907 24.39 52.1314L24.3835 50.6253Z" fill="#F90801"/>
<path d="M29.7037 36.3007C29.7174 36.2984 29.7312 36.2964 29.745 36.2939C30.028 36.2423 30.4191 36.0052 30.7404 35.9184C31.0358 35.8384 31.3267 35.8344 31.6303 35.8307C32.6256 35.8183 33.4543 35.9972 34.2988 36.5445C35.2323 37.1494 35.9586 38.202 36.1856 39.2933C36.2762 39.7286 36.2793 40.1837 36.2992 40.6266C36.2876 40.7596 36.2673 40.886 36.2348 41.0156C35.9529 42.1378 35.1457 43.1647 34.1616 43.7589C34.1931 45.7442 34.139 47.7331 34.1523 49.7191L33.5607 49.7212L33.5513 42.2097C33.6508 42.1182 33.7535 42.0264 33.8427 41.9247C34.2955 41.4088 34.5008 40.6627 34.4503 39.9849C34.4474 39.944 34.4435 39.9033 34.4387 39.8627C34.4337 39.822 34.4278 39.7816 34.421 39.7413C34.4141 39.701 34.4062 39.6608 34.3973 39.6209C34.3884 39.5809 34.3785 39.5413 34.3677 39.5018C34.3568 39.4623 34.345 39.4232 34.3322 39.3844C34.3193 39.3455 34.3056 39.307 34.2908 39.2688C34.2761 39.2306 34.2605 39.1928 34.2438 39.1554C34.2273 39.118 34.2098 39.081 34.1913 39.0445C34.1729 39.008 34.1536 38.9719 34.1333 38.9364C34.1131 38.9008 34.092 38.8658 34.07 38.8312C34.0481 38.7967 34.0253 38.7628 34.0017 38.7294C33.978 38.696 33.9535 38.6632 33.9283 38.631C33.903 38.5988 33.8769 38.5673 33.8501 38.5364C33.8232 38.5055 33.7956 38.4754 33.7673 38.4459C33.739 38.4164 33.7099 38.3876 33.6802 38.3595C33.6504 38.3314 33.6199 38.3041 33.5888 38.2775C33.0619 37.8336 32.4139 37.6569 31.7328 37.7163C31.6935 37.7193 31.6543 37.7234 31.6152 37.7284C31.5761 37.7334 31.5371 37.7394 31.4983 37.7464C31.4596 37.7534 31.421 37.7614 31.3825 37.7704C31.3442 37.7793 31.306 37.7892 31.2682 37.8C31.2302 37.8109 31.1926 37.8228 31.1553 37.8355C31.1181 37.8483 31.0811 37.862 31.0445 37.8767C31.0079 37.8913 30.9717 37.9069 30.9359 37.9234C30.9001 37.9399 30.8647 37.9572 30.8298 37.9755C30.7949 37.9938 30.7604 38.0129 30.7265 38.0329C30.6925 38.0529 30.659 38.0738 30.6262 38.0955C30.5932 38.1172 30.5609 38.1397 30.5291 38.163C30.4973 38.1864 30.4662 38.2105 30.4357 38.2354C30.4051 38.2603 30.3752 38.286 30.346 38.3125C30.3167 38.3389 30.2882 38.366 30.2603 38.3939C30.2324 38.4218 30.2052 38.4504 30.1788 38.4796C30.1524 38.5089 30.1267 38.5388 30.1018 38.5693C29.6772 39.0804 29.4508 39.75 29.5132 40.415C29.5818 41.1477 29.973 41.7777 30.5335 42.2382L30.4981 49.76L29.779 49.7545C29.7896 47.7436 29.75 45.7302 29.787 43.7197C29.2433 43.3599 28.7903 42.9232 28.4285 42.3783C27.799 41.4304 27.5957 40.2221 27.8282 39.1107C28.054 38.0314 28.7713 36.9051 29.7037 36.3007Z" fill="url(#paint0_linear_33_25)"/>
<path d="M24.3927 52.9263L34.1184 52.9186C35.9295 52.9163 37.7522 52.8653 39.5617 52.9157L39.5576 54.0808C39.572 54.6895 39.5588 55.2998 39.5543 55.9087L24.3932 55.903C24.3976 54.95 24.3035 53.855 24.3927 52.9263Z" fill="#FEFEFD"/>
<path d="M24.3932 55.903C24.3976 54.9499 24.3035 53.8549 24.3927 52.9263C24.4642 53.4638 24.4125 54.0625 24.4122 54.606C27.1412 54.6448 29.8757 54.5938 32.6053 54.5926C34.9117 54.5916 37.2257 54.6473 39.5308 54.5976C39.5384 54.4265 39.5391 54.2508 39.5576 54.0807C39.572 54.6895 39.5588 55.2998 39.5543 55.9086L24.3932 55.903Z" fill="#B9B5C5"/>
<defs>
<linearGradient id="paint0_linear_33_25" x1="34.6908" y1="36.7677" x2="28.5477" y2="49.0386" gradientUnits="userSpaceOnUse">
<stop stop-color="#CB4800"/>
<stop offset="1" stop-color="#F16F10"/>
</linearGradient>
</defs>
</svg>
