<svg width="320" height="320" viewBox="0 0 320 320" fill="none" xmlns="http://www.w3.org/2000/svg">
<path d="M304.677 14.3843C304.7 14.4355 304.729 14.4845 304.745 14.5381C304.965 15.2601 302.017 21.7748 301.492 23.0542C299.853 26.955 298.161 30.833 296.417 34.6884C294.674 38.5438 292.879 42.3753 291.033 46.1828C289.187 49.9901 287.29 53.772 285.342 57.5284C283.395 61.2851 281.398 65.015 279.351 68.7181C277.303 72.421 275.207 76.096 273.061 79.7431C270.915 83.39 268.721 87.0075 266.478 90.5956C264.236 94.1838 261.945 97.7411 259.607 101.268C257.269 104.795 254.885 108.29 252.453 111.752C250.178 115.038 247.873 118.302 245.536 121.543C244.395 123.127 243.283 124.948 241.93 126.349C241.316 126.985 240.633 127.492 239.856 127.91C236.532 129.702 232.399 130.187 228.717 130.855C225.936 138.9 223.96 147.313 221.773 155.537C219.561 163.588 217.266 171.614 214.888 179.617C213.346 175.332 212.109 170.917 210.792 166.558C207.746 156.657 205.092 146.652 202.828 136.543C202.742 136.504 202.657 136.462 202.568 136.427C201.345 135.938 200.224 134.965 199.15 134.198C197.068 135.728 195.169 137.731 193.338 139.548L186.125 146.733L163.778 168.933L96.3334 235.957C96.3636 236.127 96.3911 236.299 96.4159 236.47C96.6128 237.815 96.7053 238.97 95.9906 240.201C94.7797 242.284 91.7547 244.789 89.9656 246.543L79.2147 257.017C75.8694 260.243 72.2666 263.473 69.4916 267.213C65.9825 271.941 65.24 275.167 66.0906 280.952C62.1013 283.577 57.7231 285.774 53.51 288.026C41.9497 294.205 30.2444 299.632 18.0899 304.533C17.0428 304.898 16.003 305.415 14.9791 305.848C15.6916 303.054 16.6985 300.309 17.613 297.576C18.7285 294.242 19.7754 290.851 21.1069 287.596C24.5217 279.247 29.0396 271.408 33.4209 263.55C34.8056 261.067 35.9656 258.444 37.4191 256.007C40.4256 255.196 43.2828 254.606 46.1469 253.3C54.75 249.378 63.7362 238.416 70.4678 231.497C72.5791 229.327 74.7288 226.617 77.1503 224.822C78.8238 223.582 80.6428 223.218 82.6869 223.542C85.6244 220.822 88.4019 217.905 91.2347 215.074L107.187 199.172L166.069 140.802C172.558 134.441 178.953 128.01 185.54 121.748C184.781 120.93 184.156 120.072 183.537 119.145C180.051 117.725 176.143 116.809 172.532 115.699L156.021 110.507C151.853 109.196 147.61 107.967 143.53 106.405C147.255 104.502 154.056 102.953 158.325 101.74L177.729 96.1794C181.884 95.0106 186.096 93.9569 190.215 92.6719C191.18 88.7722 192.065 84.7403 193.296 80.9209C193.56 80.1003 193.885 79.4022 194.461 78.7487C196.687 76.2209 202.306 72.3319 205.193 70.2647C213.063 64.7241 221.068 59.3886 229.211 54.2584C237.354 49.128 245.622 44.2096 254.017 39.5031C261.207 35.5331 268.465 31.6921 275.792 27.9801C285.266 23.1283 295.192 19.2005 304.677 14.3843Z" fill="black"/>
<path d="M149.5 106.382C156.117 105.284 162.675 105.254 169.367 105.371C177.387 105.511 185.224 105.998 193.175 107.099C194.275 107.252 196.924 107.338 197.771 107.843C197.815 107.869 197.852 107.905 197.893 107.937L197.855 108.271C194.625 108.579 190.719 107.789 187.425 107.556C179.932 107.073 172.431 106.79 164.923 106.707C161.037 106.677 156.919 106.451 153.09 107.203L149.5 106.382Z" fill="#FACA10"/>
<path d="M60.0122 247.139C61.9597 245.063 63.9394 243.018 65.9513 241.004C66.8456 243.834 67.8759 246.226 69.7259 248.57C67.8159 250.545 65.7988 252.418 63.8363 254.34C61.9544 252.221 60.8797 249.807 60.0122 247.139Z" fill="#FFF544"/>
<path d="M86.8028 233.195C88.9509 234.972 91.1459 236.537 93.5806 237.906C91.9925 240.04 89.8144 241.888 87.7812 243.599C84.8778 242.922 82.0406 242.03 79.8175 239.934C82.1072 237.647 84.3978 235.362 86.8028 233.195Z" fill="#BC5C16"/>
<path d="M69.7259 248.571C72.2866 250.93 75.0872 252.267 78.555 252.74C76.5909 254.884 74.4662 256.887 72.3187 258.845C69.1278 258.436 66.0725 256.617 63.8363 254.341C65.7988 252.418 67.8159 250.545 69.7259 248.571Z" fill="#F8AE08"/>
<path d="M66.9097 240.04C68.9434 237.592 71.2144 235.372 73.4656 233.127C74.3184 236.094 75.7347 238.544 77.8484 240.794C75.7116 243.073 73.5841 245.367 71.34 247.541C69.1081 245.514 67.8766 242.835 66.9097 240.04Z" fill="#B9D7F2"/>
<path d="M77.8484 240.794C80.4741 243.241 82.8516 244.268 86.2947 245.129C84.218 247.202 82.1233 249.256 80.0106 251.292C76.5975 250.732 73.9162 249.957 71.34 247.541C73.5841 245.366 75.7116 243.072 77.8484 240.794Z" fill="#1688F7"/>
<path d="M201.841 119.958C204.126 122.294 206.894 124.786 208.378 127.736C207.382 129.212 205.125 132.463 203.287 132.874C202.649 133.017 202.081 132.828 201.551 132.468C199.762 131.25 197.648 128.842 196.016 127.281C198.802 124.388 200.123 123.812 201.841 119.958Z" fill="#BC5C16"/>
<path d="M205.376 135.845C206.062 135.29 206.707 134.684 207.361 134.092C208.395 136.19 209.065 138.691 209.651 140.957C211.408 147.747 212.686 155.258 213.885 162.187C214.225 164.151 214.899 166.489 214.858 168.459C214.849 169.647 214.699 170.857 214.603 172.044C213.215 167.856 212.307 163.357 211.173 159.085C209.127 151.383 206.935 143.664 205.376 135.845Z" fill="#FACA10"/>
<path d="M74.7169 232.119C76.4153 230.279 78.5563 227.309 80.935 226.385C82.8259 228.819 84.4888 231.106 86.8028 233.195C84.3978 235.362 82.1072 237.647 79.8175 239.934C77.7338 237.909 75.3634 235.012 74.7169 232.119Z" fill="#F98E09"/>
<path d="M191.482 112.02C195.374 113.988 198.693 116.99 201.841 119.958C200.122 123.812 198.802 124.388 196.016 127.281C192.626 124.28 189.355 120.98 186.329 117.611C187.868 115.561 189.399 113.549 191.482 112.02Z" fill="#F98E09"/>
<path d="M209.819 124.155C210.678 123.633 211.507 123.17 212.437 122.787C216.848 132.219 215.947 151.64 215.229 162.102C215.086 164.175 215.24 166.428 214.857 168.458C214.899 166.489 214.225 164.151 213.885 162.187C212.686 155.258 211.408 147.747 209.651 140.957C209.065 138.691 208.395 136.19 207.361 134.092C208.767 132.282 211.42 129.768 211.082 127.324C210.925 126.19 210.333 125.161 209.819 124.155Z" fill="#BC5C16"/>
<path d="M191.116 95.3451C191.196 95.3285 191.275 95.3051 191.356 95.2954C191.644 95.2613 191.854 95.4122 192.071 95.5738C193.143 96.3738 194.112 97.4441 195.09 98.3613C196.738 99.9294 198.437 101.442 200.185 102.898L198.937 105.584C190.262 103.481 180.974 103.093 172.074 102.937C168.052 102.774 164.09 103.175 160.086 103.117C170.35 100.232 180.757 97.8713 191.116 95.3451Z" fill="#74B5FE"/>
<path d="M216.484 120.112C217.242 120.085 225.694 127.706 226.846 128.576C225.804 131.24 225.066 134.101 224.254 136.844C222.609 142.505 221.011 148.18 219.462 153.868C218.859 155.96 218.343 158.079 217.778 160.181C218.08 155.963 218.099 151.684 218.139 147.455C218.229 137.986 218.314 130.006 214.882 121.02L216.484 120.112Z" fill="#74B5FE"/>
<path d="M153.09 107.203C156.919 106.451 161.037 106.677 164.923 106.707C172.431 106.79 179.932 107.073 187.425 107.556C190.719 107.789 194.625 108.579 197.855 108.271C197.238 109.198 196.713 110.218 196.156 111.184C195.688 110.771 195.192 110.344 194.678 109.991C193.659 109.29 192.386 108.915 191.155 109.146C188.103 109.719 185.483 113.613 183.772 115.974C179.785 115.016 175.842 113.821 171.903 112.685L153.09 107.203Z" fill="#BC5C16"/>
<path d="M233.865 86.7988C233.902 86.7279 233.937 86.656 233.976 86.5857C234.723 85.2204 236.863 83.4173 238.012 82.2366C241.191 78.9688 244.504 75.7673 247.5 72.3341C248.418 71.2823 252.865 65.7613 253.583 65.3738C253.858 65.2254 254.366 65.1626 254.681 65.0779C252.133 69.3701 249.904 73.891 247.633 78.3335C244.944 83.5932 242.17 88.8585 239.616 94.1838C237.042 99.5516 234.663 105.012 232.098 110.38C224.18 113.019 215.017 117.582 208.04 122.174C206.673 120.828 205.269 119.504 203.983 118.079C204.93 116.944 205.623 115.499 206.325 114.2C207.848 113.968 209.513 113.292 211.011 112.856C215.738 111.482 222.561 109.77 226.855 107.6C228.75 102.501 230.453 97.4048 232.112 92.2248C232.681 90.4479 233.513 88.6182 233.865 86.7988Z" fill="#BC5C16"/>
<path d="M39.615 258.572C47.3262 257.325 53.4441 253.613 58.9384 248.162C59.5522 251.094 60.8322 253.316 62.6459 255.677C60.1378 258.859 56.4306 262.242 53.5647 265.257L30.2752 289.433C27.9104 291.898 25.596 294.408 23.3322 296.966C22.5568 297.829 21.5113 298.746 20.8705 299.681L20.6493 299.768L20.5553 299.551C20.832 298.398 21.2613 297.307 21.6166 296.179C24.2958 287.668 28.3173 279.575 32.64 271.79C35.0816 267.393 37.6591 263.226 39.615 258.572Z" fill="#F98E09"/>
<path d="M62.6459 255.678C64.9759 258.176 67.4728 259.496 70.6747 260.617C66.1694 265.185 62.2412 270.396 62.3122 277.114C62.32 277.836 62.3666 278.56 62.4109 279.281C51.0559 285.299 40.42 291.346 28.5432 296.476C26.3201 297.437 23.1256 299.104 20.8705 299.681C21.5113 298.746 22.5568 297.829 23.3322 296.966C25.596 294.409 27.9104 291.898 30.2752 289.434L53.5647 265.257C56.4306 262.243 60.1378 258.86 62.6459 255.678Z" fill="#BC5C16"/>
<path d="M85.0216 226.303C89.0144 221.862 93.5566 217.76 97.8216 213.57L118.218 193.288C141.445 170.094 164.791 147.021 188.255 124.067C189.531 125.222 190.793 126.394 192.039 127.581L125.252 193.725C116.495 202.512 107.677 211.237 98.7969 219.898C95.3666 223.264 92.1091 226.903 88.5284 230.105C87.2661 228.924 86.0972 227.656 85.0216 226.303Z" fill="#BC5C16"/>
<path d="M192.039 127.581C193.44 128.785 194.788 130.059 195.97 131.482C188.826 138.925 181.281 146.065 173.925 153.304L137.299 189.642L107.429 219.414L97.3828 229.599C95.975 231.006 94.5859 232.497 93.0916 233.809C91.5106 232.642 89.9647 231.452 88.5284 230.105C92.1091 226.904 95.3666 223.264 98.7969 219.899C107.677 211.237 116.495 202.512 125.252 193.725L192.039 127.581Z" fill="#5D3513"/>
<path d="M255.599 63.5796L254.681 65.0777C254.366 65.1624 253.858 65.2252 253.583 65.3737C252.865 65.7612 248.418 71.2821 247.5 72.334C244.504 75.7671 241.191 78.9687 238.012 82.2365C236.863 83.4171 234.723 85.2202 233.976 86.5855C233.937 86.6558 233.902 86.7277 233.865 86.7987C233.513 88.618 232.681 90.4477 232.112 92.2246C230.453 97.4046 228.75 102.501 226.855 107.6C222.561 109.77 215.738 111.482 211.011 112.856C209.513 113.291 207.848 113.968 206.325 114.2C205.623 115.499 204.93 116.944 203.983 118.079C202.272 116.131 200.173 114.454 198.219 112.759C199.327 110.974 200.194 109.027 201.069 107.12C203.704 101.377 205.701 95.4524 208.081 89.6152C209.725 88.5343 211.559 87.6733 213.306 86.7733C216.005 85.4004 218.686 83.9931 221.349 82.5515C232.857 76.3917 244.274 70.0677 255.599 63.5796Z" fill="#F8AE08"/>
<path d="M233.865 86.7988C233.512 88.6182 232.681 90.4479 232.112 92.2248C230.453 97.4048 228.75 102.501 226.855 107.6C222.561 109.77 215.738 111.482 211.011 112.856C209.513 113.292 207.848 113.968 206.325 114.2C207.614 110.071 208.639 105.834 209.717 101.645C210.457 98.7691 211.334 95.8529 211.856 92.9301L225.49 89.3448C228.228 88.6151 231.33 88.0701 233.865 86.7988Z" fill="black"/>
<path d="M230.097 90.9438C228.345 95.911 226.928 101.03 224.958 105.915C219.807 107.214 214.845 109.344 209.687 110.654C209.8 110.218 209.885 109.675 210.064 109.267L210.232 109.424C211.639 108.62 213.018 107.114 214.241 106.022C216.825 103.715 219.347 101.342 221.807 98.9029C224.524 96.1989 227.162 93.4167 230.097 90.9438Z" fill="#7C8380"/>
<path d="M213.727 94.9423C216.463 94.3866 228.843 90.5845 230.097 90.9438C227.162 93.4166 224.524 96.1988 221.807 98.9029C219.347 101.342 216.825 103.715 214.241 106.022C213.018 107.114 211.639 108.62 210.232 109.424L210.064 109.267C211.285 104.506 212.852 99.7829 213.727 94.9423Z" fill="#FAFDFD"/>
<path d="M193.44 92.7051C193.785 90.3495 195.942 82.106 197.428 80.4367C198.569 79.1554 200.177 78.1288 201.549 77.107C204.522 74.882 207.541 72.7231 210.608 70.6304C216.8 66.3325 223.079 62.1652 229.444 58.1285C235.81 54.0921 242.256 50.1897 248.784 46.4213C255.312 42.653 261.916 39.0222 268.595 35.5288C275.274 32.0354 282.022 28.6825 288.841 25.47C290.341 24.7629 297.333 21.3082 298.507 21.2581L298.436 21.6493C297.877 21.885 297.375 22.1345 296.9 22.5167C295.531 23.6184 294.325 25.064 293.112 26.3342C291.522 27.9847 289.911 29.6128 288.276 31.2186L269.504 49.4992L263.019 55.9667C261.921 57.0648 260.841 58.3017 259.639 59.2757L259.495 59.3351C257.479 60.1782 255.521 61.2851 253.571 62.2735C249.777 64.1694 246.014 66.1237 242.281 68.1367L218.743 80.7523C216.52 81.9551 207.37 86.477 206.22 87.6917C204.901 89.086 202.152 97.9257 201.125 100.44C198.495 98.1107 195.494 95.566 193.44 92.7051Z" fill="#FAFDFD"/>
<path d="M298.436 21.6492L298.351 21.8192C296.881 24.8017 295.814 28.0525 294.472 31.105C291.67 37.3979 288.71 43.6154 285.591 49.7575C280.161 60.2735 274.399 70.6042 268.304 80.7496C262.209 90.8951 255.795 100.834 249.062 110.567L243.613 118.465C242.596 119.953 241.591 121.769 240.354 123.077C239.241 124.255 237.443 124.965 235.942 125.489C233.874 126.212 231.782 126.629 229.614 126.906C228.034 125.937 220.848 119.728 219.713 118.443C222.15 117.216 224.608 116.071 227.161 115.104C229.067 114.382 231.089 113.844 232.911 112.929C232.973 112.898 233.037 112.869 233.099 112.837C233.803 112.466 234.296 111.368 234.662 110.675C236.504 107.188 238.037 103.497 239.758 99.945C244.142 90.9177 248.572 81.9128 253.046 72.9303C255.263 68.4078 257.264 63.7115 259.639 59.2756C260.841 58.3015 261.921 57.0646 263.019 55.9665L269.504 49.499L288.276 31.2184C289.911 29.6126 291.522 27.9845 293.112 26.3341C294.325 25.0639 295.531 23.6183 296.9 22.5166C297.375 22.1344 297.877 21.8849 298.436 21.6492Z" fill="#74B5FE"/>
</svg>
